<?xml version="1.0" standalone="no"?>
<!DOCTYPE svg PUBLIC "-//W3C//DTD SVG 1.1//EN" "http://www.w3.org/Graphics/SVG/1.1/DTD/svg11.dtd" >
<svg xmlns="http://www.w3.org/2000/svg" xmlns:xlink="http://www.w3.org/1999/xlink" version="1.1">
<metadata>
Created by FontForge 20170910 at Mon Aug 27 17:00:57 2012
 By Jimmy Wärting
Copyright (c) 2011 by Tom Grace. All rights reserved.
</metadata>
<defs>
<font id="Iskra-Light" horiz-adv-x="501" >
  <font-face 
    font-family="Iskra Lt"
    font-weight="300"
    font-stretch="normal"
    units-per-em="1000"
    panose-1="2 11 4 4 6 1 3 3 0 3"
    ascent="795"
    descent="-205"
    x-height="477"
    cap-height="644"
    bbox="-125 -248 1134 979"
    underline-thickness="47"
    underline-position="-167"
    unicode-range="U+0020-FB04"
  />
<missing-glyph horiz-adv-x="732" 
d="M652 -100h-572v823h572v-823z" />
    <glyph glyph-name="f_f" unicode="ff" horiz-adv-x="634" 
d="M155 0h-54v379l-71 18q2 21 12 31h59v41q0 84 41 134.5t116 50.5q24 0 44.5 -9.5t20.5 -30.5v-21q-22 8 -46 8q-64 0 -93 -35t-29 -107v-31h242v41q0 84 41 134.5t116 50.5q24 0 44.5 -9.5t20.5 -30.5v-21q-22 8 -46 8q-64 0 -93 -35t-29 -107v-31h125q15 0 18 -10t3 -41
h-146v-377h-54v377h-242v-377z" />
    <glyph glyph-name="fi" unicode="fi" horiz-adv-x="520" 
d="M155 0h-54v379l-71 18q2 21 12 31h59v41q0 84 41 134.5t116 50.5q24 0 44.5 -9.5t20.5 -30.5v-21q-22 8 -46 8q-64 0 -93 -35t-29 -107v-31h290v-428h-55v377h-235v-377zM462 644q0 -44 -42 -44t-42 44t42 44t42 -44z" />
    <glyph glyph-name="fl" unicode="fl" horiz-adv-x="532" 
d="M457 0h-55v481q0 55 -35.5 87.5t-87.5 32.5q-58 0 -91 -37t-33 -105v-31h120q15 0 18.5 -10.5t3.5 -40.5h-142v-377h-54v379l-71 18q2 21 12 31h59v41q0 82 43 133.5t117 51.5q96 0 141 -71v66q0 22 8.5 26.5t46.5 4.5v-680z" />
    <glyph glyph-name="f_f_i" unicode="ffi" horiz-adv-x="816" 
d="M155 0h-54v379l-71 18q2 21 12 31h59v41q0 84 41 134.5t116 50.5q24 0 44.5 -9.5t20.5 -30.5v-21q-22 8 -46 8q-64 0 -93 -35t-29 -107v-31h242v41q0 84 41 134.5t116 50.5q24 0 44.5 -9.5t20.5 -30.5v-21q-22 8 -46 8q-64 0 -93 -35t-29 -107v-31h290v-428h-55v377h-235
v-377h-54v377h-242v-377zM758 644q0 -44 -42 -44t-42 44t42 44t42 -44z" />
    <glyph glyph-name="f_f_l" unicode="ffl" horiz-adv-x="828" 
d="M155 0h-54v379l-71 18q2 21 12 31h59v41q0 84 41 134.5t116 50.5q24 0 44.5 -9.5t20.5 -30.5v-21q-22 8 -46 8q-64 0 -93 -35t-29 -107v-31h242v41q0 82 43 133.5t117 51.5q96 0 141 -71v66q0 22 8.5 26.5t46.5 4.5v-680h-55v481q0 55 -35.5 87.5t-87.5 32.5
q-58 0 -91 -37t-33 -105v-31h120q11 0 15.5 -6t5.5 -14.5t1 -30.5h-142v-377h-54v377h-242v-377z" />
    <glyph glyph-name=".notdef" horiz-adv-x="732" 
d="M652 -100h-572v823h572v-823z" />
    <glyph glyph-name=".null" horiz-adv-x="0" 
 />
    <glyph glyph-name=".null" horiz-adv-x="0" 
 />
    <glyph glyph-name="nonmarkingreturn" horiz-adv-x="333" 
 />
    <glyph glyph-name="space" unicode=" " horiz-adv-x="209" 
 />
    <glyph glyph-name="space" unicode="&#xa0;" horiz-adv-x="209" 
 />
    <glyph glyph-name="exclam" unicode="!" horiz-adv-x="292" 
d="M185 45q0 -51 -48 -51q-49 0 -49 51q0 50 49 50q48 0 48 -50zM160 202h-44l-16 413q-1 12 3.5 18.5t16.5 9.5t22.5 3.5t33.5 0.5z" />
    <glyph glyph-name="quotedbl" unicode="&#x22;" horiz-adv-x="404" 
d="M138 452h-41l-13 232h67zM307 452h-41l-13 232h67z" />
    <glyph glyph-name="numbersign" unicode="#" 
d="M158 -10h-48l20 180h-87v47h93l17 150h-120v47h126l19 168h48l-19 -168h118l19 168h48l-19 -168h77q12 0 15 -10t3 -37h-101l-17 -150h91q12 0 15 -10t3 -37h-115l-20 -180h-48l20 180h-118zM201 367l-17 -150h118l17 150h-118z" />
    <glyph glyph-name="dollar" unicode="$" 
d="M277 -101h-47v91q-63 0 -103 19t-40 48v21q65 -35 142 -35q57 0 97 24t40 72q0 32 -22 54.5t-55 34t-71.5 26.5t-71.5 31t-55 48.5t-22 78.5q0 67 43.5 113t117.5 55v93h47v-92q67 -4 111 -39t44 -83q0 -46 -32 -46h-18v17q0 41 -33 70t-90 29q-61 0 -96 -31t-35 -77
q0 -43 30.5 -70.5t74 -42t87.5 -30.5t74.5 -48.5t30.5 -83.5q0 -64 -42 -102.5t-106 -49.5v-95z" />
    <glyph glyph-name="percent" unicode="%" horiz-adv-x="807" 
d="M781 211q0 -93 -39.5 -156.5t-111.5 -63.5q-73 0 -112 63.5t-39 156.5q0 90 37.5 142t113.5 52q75 0 113 -52t38 -142zM729 211q0 148 -99 148t-99 -148q0 -73 24.5 -123.5t74.5 -50.5t74.5 50t24.5 124zM621 712l-378 -752h-54l378 752h54zM327 467q0 -93 -39.5 -156.5
t-111.5 -63.5q-73 0 -112 63.5t-39 156.5q0 90 37.5 142t113.5 52q75 0 113 -52t38 -142zM275 467q0 148 -99 148t-99 -148q0 -73 24.5 -123.5t74.5 -50.5t74.5 50t24.5 124z" />
    <glyph glyph-name="ampersand" unicode="&#x26;" horiz-adv-x="505" 
d="M456 205q0 -91 -68 -153q30 -59 71 -115v-9h-62q-28 40 -55 92q-55 -30 -123 -30q-79 0 -128.5 42t-49.5 118q0 60 35 95.5t100 57.5q-44 16 -70.5 52t-26.5 84q0 67 45 105t114 38q72 0 115 -38.5t43 -104.5t-37 -101t-96 -53q-34 -10 -46 -14t-40.5 -16.5t-40.5 -25
t-23 -33.5t-11 -47q0 -47 34 -75.5t88 -28.5q79 0 128 53.5t49 139.5v17h14q41 0 41 -50zM239 335q41 0 70 27.5t29 73.5q0 45 -27 69.5t-72 24.5t-72 -26t-27 -71q0 -41 28.5 -69.5t70.5 -28.5z" />
    <glyph glyph-name="quotesingle" unicode="'" horiz-adv-x="245" 
d="M143 452h-42l-13 232h68z" />
    <glyph glyph-name="parenleft" unicode="(" horiz-adv-x="317" 
d="M275 -103l-36 -25q-86 118 -124.5 228.5t-38.5 249.5q0 201 137 375q11 15 21 15t33 -17q-137 -181 -137 -373q0 -253 145 -453z" />
    <glyph glyph-name="parenright" unicode=")" horiz-adv-x="317" 
d="M241 349q0 -259 -145 -456q-9 -15 -20 -15t-34 17q145 199 145 454q0 191 -136 373l35 25q155 -195 155 -398z" />
    <glyph glyph-name="asterisk" unicode="*" horiz-adv-x="328" 
d="M270 451l-95 84l-28 -123q-26 2 -47 15l50 117l-125 -12q-8 26 0 51l126 -13l-50 117q21 15 46 15l28 -123l95 84q19 -17 29 -41l-109 -65l109 -64q-9 -24 -29 -42z" />
    <glyph glyph-name="plus" unicode="+" 
d="M275 32h-49v184h-182v50h182v184h49v-184h182v-50h-182v-184z" />
    <glyph glyph-name="comma" unicode="," horiz-adv-x="245" 
d="M102 -124q-9 -16 -18 -16t-30 9q32 100 40 233h66q-7 -126 -58 -226z" />
    <glyph glyph-name="hyphen" unicode="-" horiz-adv-x="355" 
d="M299 291v-53h-243v53h243z" />
    <glyph glyph-name="hyphen" unicode="&#xad;" horiz-adv-x="355" 
d="M299 291v-53h-243v53h243z" />
    <glyph glyph-name="period" unicode="." horiz-adv-x="245" 
d="M122 -6q-49 0 -49 51q0 50 49 50t49 -50q0 -51 -49 -51z" />
    <glyph glyph-name="slash" unicode="/" horiz-adv-x="341" 
d="M42 -100h-52l310 823h52z" />
    <glyph glyph-name="slash" unicode="&#x2215;" horiz-adv-x="341" 
d="M42 -100h-52l310 823h52z" />
    <glyph glyph-name="zero" unicode="0" 
d="M460 304q0 -133 -54 -223.5t-156 -90.5q-69 0 -117.5 45t-70 114t-21.5 155q0 131 51 204.5t158 73.5q108 0 159 -73.5t51 -204.5zM398 304q0 225 -148 225q-147 0 -147 -225q0 -112 37.5 -186.5t109.5 -74.5q73 0 110.5 74t37.5 187z" />
    <glyph glyph-name="one" unicode="1" 
d="M107 344l-15 54q67 19 125 49t58 60v37q0 23 9.5 27.5t48.5 4.5v-576h-58v420q-63 -46 -168 -76z" />
    <glyph glyph-name="two" unicode="2" 
d="M431 0h-379q-3 31 8 55q60 32 111 66.5t99.5 78.5t77 94.5t28.5 101.5q0 66 -37 99t-99 33q-63 0 -98.5 -35t-35.5 -82v-18h-22q-11 0 -19 9.5t-8 25.5q0 66 53 110t134 44q85 0 139.5 -47.5t54.5 -129.5q0 -177 -279 -351h272v-54z" />
    <glyph glyph-name="three" unicode="3" 
d="M417 159q0 -81 -58.5 -125t-145.5 -44q-62 0 -101.5 17.5t-39.5 49.5v20q62 -32 136 -32q63 0 105 29.5t42 84.5q0 95 -157 95h-40v51h26q82 0 126.5 34t44.5 91q0 46 -33 72t-86 26q-57 0 -89 -29t-32 -66v-18h-22q-11 0 -19 9t-8 25q0 60 50.5 96.5t125.5 36.5
q77 0 126.5 -39.5t49.5 -105.5q0 -52 -32 -90.5t-89 -58.5q120 -27 120 -129z" />
    <glyph glyph-name="four" unicode="4" 
d="M375 0h-57v129h-285q-3 29 9 53q144 196 247 390h62v-9q-101 -188 -247 -380h214v112q0 21 10 25.5t47 4.5v-142h92v-54h-92v-129z" />
    <glyph glyph-name="five" unicode="5" 
d="M435 165q0 -80 -63.5 -127.5t-150.5 -47.5q-64 0 -106 17.5t-42 49.5v20q66 -32 139 -32q68 0 114.5 32t46.5 86q0 107 -154 107q-59 0 -116 -15q-12 20 -18 49l12 268h311q17 0 20.5 -10t3.5 -44h-287l-10 -206q56 10 87 10q213 0 213 -157z" />
    <glyph glyph-name="six" unicode="6" 
d="M447 172q0 -81 -55.5 -131.5t-134.5 -50.5q-102 0 -154.5 75t-52.5 189q0 140 68.5 234t189.5 94q63 0 103.5 -29.5t40.5 -79.5q0 -22 -11.5 -33.5t-30.5 -11.5h-13v18q0 39 -26 60t-69 21q-86 0 -138 -75t-52 -180q0 -42 10 -73q18 51 67.5 83t108.5 32
q66 0 107.5 -35.5t41.5 -106.5zM384 162q0 46 -28 72.5t-80 26.5q-55 0 -96 -34t-41 -84q0 -39 32.5 -69.5t84.5 -30.5q58 0 93 34.5t35 84.5z" />
    <glyph glyph-name="seven" unicode="7" 
d="M196 0h-68v9q108 263 260 509h-334q0 23 1 32t5.5 15.5t15.5 6.5h379q3 -31 -8 -55q-151 -261 -251 -517z" />
    <glyph glyph-name="eight" unicode="8" 
d="M444 150q0 -72 -56.5 -116t-137.5 -44q-80 0 -136.5 44t-56.5 116q0 51 31.5 86.5t86.5 50.5q-53 17 -84.5 54t-31.5 85q0 75 55.5 115.5t135.5 40.5q81 0 136.5 -40.5t55.5 -115.5q0 -48 -31.5 -85t-85.5 -54q55 -16 87 -51t32 -86zM381 154q0 46 -36.5 75t-94.5 29
q-57 0 -93.5 -28.5t-36.5 -75.5q0 -50 37 -81t93 -31t93.5 31t37.5 81zM379 420q0 51 -35 80.5t-94 29.5q-58 0 -93.5 -29.5t-35.5 -80.5q0 -47 37 -80t92 -33q56 0 92.5 33t36.5 80z" />
    <glyph glyph-name="nine" unicode="9" 
d="M444 318q0 -144 -76.5 -236t-203.5 -92q-99 0 -99 48v21q42 -14 89 -14q105 0 166.5 72t61.5 183q0 32 -8 59q-22 -57 -70.5 -89t-107.5 -32q-64 0 -107.5 40t-43.5 114q0 83 54 136.5t136 53.5q103 0 156 -75t53 -189zM357 421q0 41 -33.5 74.5t-87.5 33.5
q-59 0 -94 -36t-35 -91q0 -50 30 -80.5t83 -30.5q55 0 96 37t41 93z" />
    <glyph glyph-name="colon" unicode=":" horiz-adv-x="245" 
d="M122 -6q-49 0 -49 51q0 50 49 50t49 -50q0 -51 -49 -51zM122 345q-49 0 -49 51t49 51t49 -51t-49 -51z" />
    <glyph glyph-name="semicolon" unicode=";" horiz-adv-x="245" 
d="M122 345q-49 0 -49 51t49 51t49 -51t-49 -51zM96 -124q-9 -16 -18 -16t-30 9q32 100 40 233h66q-7 -122 -58 -226z" />
    <glyph glyph-name="less" unicode="&#x3c;" 
d="M436 41l-372 170v59l372 171v-56l-318 -145l318 -144v-55z" />
    <glyph glyph-name="equal" unicode="=" 
d="M457 122h-413v49h413v-49zM457 311h-413v49h413v-49z" />
    <glyph glyph-name="greater" unicode="&#x3e;" 
d="M437 211l-373 -170v55l318 144l-318 145v56l373 -171v-59z" />
    <glyph glyph-name="question" unicode="?" horiz-adv-x="391" 
d="M186 45q0 -51 -49 -51t-49 51q0 50 49 50t49 -50zM330 525q0 -39 -19.5 -72.5t-47 -56.5t-55 -42.5t-47 -40t-19.5 -40.5q0 -19 13.5 -29.5t33.5 -10.5v-11q0 -25 -33 -25q-31 0 -50.5 22t-19.5 56q0 27 18.5 52t45 45.5t52.5 42t44.5 49.5t18.5 59q0 37 -28 58t-69 21
q-51 0 -98 -29l-7 18q-8 22 33.5 42.5t87.5 20.5q63 0 104.5 -33t41.5 -96z" />
    <glyph glyph-name="at" unicode="@" horiz-adv-x="800" 
d="M272 135q0 82 120 95l100 12l-1 15q-5 85 -99 85q-40 0 -89 -22v16q0 21 34 34.5t73 13.5q121 0 129 -122l12 -175q73 18 112.5 78t39.5 141q0 47 -17.5 91t-51.5 81t-91 59.5t-128 22.5q-145 0 -231.5 -88.5t-86.5 -230.5q0 -139 82 -229.5t223 -90.5q66 0 107 18v-15
q0 -21 -34.5 -31.5t-81.5 -10.5q-154 0 -244 103t-90 256q0 158 97.5 258t258.5 100q154 0 240 -86t86 -207q0 -111 -63.5 -184.5t-173.5 -80.5l-5 87q-42 -91 -129 -91q-47 0 -72.5 28.5t-25.5 69.5zM325 137q0 -27 16.5 -45t45.5 -18q43 0 71.5 38.5t33.5 95.5l-94 -12
q-73 -8 -73 -59z" />
    <glyph glyph-name="A" unicode="A" horiz-adv-x="654" 
d="M618 0h-68l-61 159h-329q-27 -78 -51 -159h-67q94 301 239 578q17 35 10 53q32 19 71 21l256 -643v-9zM470 216l-135 348q-89 -167 -156 -348h291z" />
    <glyph glyph-name="B" unicode="B" horiz-adv-x="550" 
d="M490 179q0 -88 -68.5 -133.5t-164.5 -45.5h-35q-72 0 -104.5 32.5t-32.5 107.5v463q0 30 9.5 35.5t49.5 5.5h116q62 0 111 -13.5t84.5 -51t35.5 -96.5q0 -122 -134 -163q133 -28 133 -141zM428 182q0 33 -15.5 55.5t-44.5 33.5t-58.5 15t-68.5 4h-97v-149q0 -43 18.5 -64
t61.5 -21h30q71 0 122.5 30.5t51.5 95.5zM429 473q0 62 -49.5 89t-126.5 27h-109v-249h89q90 0 143 34.5t53 98.5z" />
    <glyph glyph-name="C" unicode="C" horiz-adv-x="618" 
d="M549 90v-21q0 -38 -55.5 -58.5t-130.5 -20.5q-143 0 -224 92t-81 257q0 136 84 225.5t217 89.5q90 0 149 -43t59 -114q0 -22 -11 -35t-27 -13h-20v18q0 61 -42 95t-111 34q-103 0 -169.5 -74.5t-66.5 -182.5q0 -131 66 -210t193 -79q90 0 170 40z" />
    <glyph glyph-name="D" unicode="D" horiz-adv-x="671" 
d="M613 345q0 -156 -93 -250.5t-228 -94.5h-59q-71 0 -103.5 32t-32.5 108v446h-56q0 18 0.5 26t2.5 17t6.5 12t12.5 3h236q138 0 226 -75.5t88 -223.5zM290 586h-135v-440q0 -45 19.5 -66.5t63.5 -21.5h52q110 0 185.5 76t75.5 211q0 124 -72.5 182.5t-188.5 58.5z" />
    <glyph glyph-name="E" unicode="E" horiz-adv-x="510" 
d="M459 58v-58h-245q-71 0 -100 28.5t-29 99.5v484q0 23 9.5 27.5t49.5 4.5h286q8 0 12.5 -3t6.5 -12t2.5 -17t0.5 -26h-308v-246h253v-56h-253v-149q0 -41 18.5 -59t60.5 -18h236z" />
    <glyph glyph-name="F" unicode="F" horiz-adv-x="486" 
d="M144 0h-59v612q0 23 9.5 27.5t49.5 4.5h284q16 0 19.5 -12t3.5 -46h-307v-267h266v-56h-266v-263z" />
    <glyph glyph-name="G" unicode="G" horiz-adv-x="678" 
d="M644 212h-101v-148q0 -35 -57.5 -54.5t-127.5 -19.5q-141 0 -220.5 93.5t-79.5 255.5q0 136 83.5 225.5t218.5 89.5q93 0 151 -41t58 -111q0 -23 -11 -38t-27 -15h-20v18q0 61 -41.5 95t-111.5 34q-108 0 -173 -73.5t-65 -183.5q0 -133 65 -212.5t192 -79.5q58 0 108 19
v171q0 22 9.5 26.5t49.5 4.5h100v-56z" />
    <glyph glyph-name="H" unicode="H" horiz-adv-x="667" 
d="M582 644v-615q0 -22 -10 -27t-48 -5v287h-380v-284h-59v615q0 22 10 27t49 5v-307h380v304h58z" />
    <glyph glyph-name="I" unicode="I" horiz-adv-x="229" 
d="M144 0h-59v615q0 22 10 27t49 5v-647z" />
    <glyph glyph-name="J" unicode="J" horiz-adv-x="292" 
d="M208 35q0 -70 -40 -108t-95 -38q-34 0 -56 12t-22 34v21q27 -10 61 -10q41 0 67.5 26t26.5 73v570q0 22 10 27t48 5v-612z" />
    <glyph glyph-name="K" unicode="K" horiz-adv-x="598" 
d="M567 48v-13q0 -21 -15 -31.5t-36 -10.5q-34 0 -57.5 14t-52.5 54l-172 222h-90v-283h-59v615q0 22 10 27t49 5v-308h84q124 113 245 305h67v-9q-119 -184 -260 -318l176 -218q39 -51 99 -51h12z" />
    <glyph glyph-name="K" unicode="&#x212a;" horiz-adv-x="598" 
d="M567 48v-13q0 -21 -15 -31.5t-36 -10.5q-34 0 -57.5 14t-52.5 54l-172 222h-90v-283h-59v615q0 22 10 27t49 5v-308h84q124 113 245 305h67v-9q-119 -184 -260 -318l176 -218q39 -51 99 -51h12z" />
    <glyph glyph-name="L" unicode="L" horiz-adv-x="477" 
d="M437 0h-223q-71 0 -100 28.5t-29 99.5v487q0 22 10 27t49 5v-512q0 -41 18.5 -59t60.5 -18h214v-58z" />
    <glyph glyph-name="M" unicode="M" horiz-adv-x="812" 
d="M727 38q0 -30 -7.5 -35.5t-48.5 -5.5v542q-98 -220 -235 -437q-28 -12 -59 -12q-130 205 -236 448v-538h-56v629q25 14 72 18q133 -301 249 -488q133 221 244 469q30 17 77 19v-609z" />
    <glyph glyph-name="N" unicode="N" horiz-adv-x="681" 
d="M596 14q-25 -17 -57 -20l-395 547v-541h-59v629q25 17 57 20l396 -545v540h58v-630z" />
    <glyph glyph-name="O" unicode="O" horiz-adv-x="701" 
d="M643 341q0 -149 -83.5 -250t-210.5 -101q-125 0 -208 101t-83 250q0 148 78.5 230.5t212.5 82.5q136 0 215 -82.5t79 -230.5zM581 341q0 123 -61.5 190t-170.5 67q-107 0 -168 -68t-61 -189q0 -127 65 -210t164 -83q101 0 166.5 82t65.5 211z" />
    <glyph glyph-name="P" unicode="P" horiz-adv-x="542" 
d="M494 445q0 -108 -79.5 -166t-205.5 -58h-65v-221h-59v612q0 23 10 27.5t49 4.5h80q270 0 270 -199zM433 445q0 144 -209 144h-80v-313h66q99 0 161 43t62 126z" />
    <glyph glyph-name="Q" unicode="Q" horiz-adv-x="701" 
d="M643 341q0 -121 -56.5 -213t-149.5 -124q-42 -19 -42 -47q0 -65 230 -67q0 -59 -30 -59q-49 0 -91.5 4.5t-81.5 15.5t-61.5 32t-22.5 51q0 33 34 57q-4 0 -11.5 -0.5t-11.5 -0.5q-125 0 -208 101t-83 250q0 148 78.5 230.5t212.5 82.5q136 0 215 -82.5t79 -230.5z
M581 341q0 123 -61.5 190t-170.5 67q-107 0 -168 -68t-61 -189q0 -127 65 -210t164 -83q101 0 166.5 82t65.5 211z" />
    <glyph glyph-name="R" unicode="R" horiz-adv-x="588" 
d="M507 454q0 -81 -47 -132t-124 -69l130 -159q35 -46 90 -46h13v-13q0 -21 -15.5 -31.5t-35.5 -10.5q-31 0 -53 12.5t-49 50.5l-138 179h-134v-235h-59v612q0 23 10 27.5t49 4.5h137q95 0 160.5 -48.5t65.5 -141.5zM445 445q0 74 -50.5 109t-124.5 35h-126v-298h126
q71 0 123 40.5t52 113.5z" />
    <glyph glyph-name="S" unicode="S" horiz-adv-x="503" 
d="M430 167q0 -85 -59 -131t-143 -46q-63 0 -107 19t-44 54v25q74 -38 150 -38q59 0 100.5 28t41.5 82q0 42 -32.5 68.5t-78.5 42t-92.5 33.5t-79 58t-32.5 102q0 83 58 136.5t153 53.5q80 0 131.5 -40.5t51.5 -99.5q0 -49 -38 -49h-16v18q0 48 -35.5 80.5t-97.5 32.5
q-66 0 -105.5 -35.5t-39.5 -86.5q0 -50 32.5 -81t78.5 -47.5t92 -33.5t78.5 -53t32.5 -92z" />
    <glyph glyph-name="T" unicode="T" horiz-adv-x="565" 
d="M310 0h-58v586h-217v58h472q16 0 19.5 -12t3.5 -46h-220v-586z" />
    <glyph glyph-name="U" unicode="U" horiz-adv-x="660" 
d="M577 264q0 -133 -69 -203.5t-181 -70.5q-109 0 -176.5 72.5t-67.5 201.5v351q0 22 10 27t48 5v-375q0 -113 48.5 -169t137.5 -56q91 0 141.5 56t50.5 169v372h58v-380z" />
    <glyph glyph-name="V" unicode="V" horiz-adv-x="628" 
d="M595 644q-99 -343 -255 -638q-24 -11 -55 -13l-245 642v9h69l205 -562q132 263 214 562h67z" />
    <glyph glyph-name="W" unicode="W" horiz-adv-x="925" 
d="M888 644q-76 -356 -209 -638q-24 -11 -54 -13l-145 535q-68 -261 -187 -522q-24 -11 -54 -13l-194 642v9h68l156 -554q116 278 167 476q11 47 5 64q26 16 69 20l147 -553q109 265 166 547h65z" />
    <glyph glyph-name="X" unicode="X" horiz-adv-x="607" 
d="M569 0h-68l-200 280q-108 -115 -189 -280h-70q99 197 226 329l-216 306v9h67l198 -277q109 130 176 277h68q-79 -176 -211 -326l219 -309v-9z" />
    <glyph glyph-name="Y" unicode="Y" horiz-adv-x="590" 
d="M324 0h-58v213l-232 422v9h64l200 -365q122 178 196 365h70q-96 -225 -240 -429v-215z" />
    <glyph glyph-name="Z" unicode="Z" horiz-adv-x="563" 
d="M509 0h-467q-4 35 8 58l379 528h-373q0 24 1 33.5t6 17t16 7.5h431q4 -35 -8 -58l-379 -528h386v-58z" />
    <glyph glyph-name="bracketleft" unicode="[" horiz-adv-x="317" 
d="M269 -54v-46h-175v823h175v-46h-126v-731h126z" />
    <glyph glyph-name="backslash" unicode="\" horiz-adv-x="341" 
d="M352 -100h-52l-310 823h52z" />
    <glyph glyph-name="bracketright" unicode="]" horiz-adv-x="317" 
d="M48 -100v46h125v731h-125v46h175v-823h-175z" />
    <glyph glyph-name="asciicircum" unicode="^" 
d="M449 208h-53l-147 316l-145 -316h-53l171 374h55z" />
    <glyph glyph-name="underscore" unicode="_" horiz-adv-x="446" 
d="M446 -96v-50h-446v50h446z" />
    <glyph glyph-name="grave" unicode="`" horiz-adv-x="493" 
d="M141 660q6 37 37 68l174 -129l-16 -31h-8z" />
    <glyph glyph-name="grave" unicode="&#x300;" horiz-adv-x="493" 
d="M141 660q6 37 37 68l174 -129l-16 -31h-8z" />
    <glyph glyph-name="grave" unicode="&#x2cb;" horiz-adv-x="493" 
d="M141 660q6 37 37 68l174 -129l-16 -31h-8z" />
    <glyph glyph-name="a" unicode="a" horiz-adv-x="495" 
d="M43 130q0 116 167 135l146 18l-1 23q-8 128 -143 128q-60 0 -127 -31v20q0 26 47.5 45t100.5 19q166 0 178 -174l20 -285q1 -21 -9 -26t-48 -5l-8 134q-56 -141 -184 -141q-67 0 -103 41.5t-36 98.5zM108 131q0 -42 24 -68.5t68 -26.5q64 0 107.5 59t48.5 144l-141 -18
q-107 -12 -107 -90z" />
    <glyph glyph-name="b" unicode="b" horiz-adv-x="558" 
d="M130 647v-303q27 67 77.5 105t116.5 38q87 0 135.5 -62.5t48.5 -162.5q0 -111 -62 -191.5t-161 -80.5q-109 0 -155 93v-83h-55v616q0 22 9 26.5t46 4.5zM450 262q0 75 -35.5 124.5t-104.5 49.5q-77 0 -125 -66.5t-48 -167.5q0 -63 38 -111t101 -48q81 0 127.5 65.5
t46.5 153.5z" />
    <glyph glyph-name="c" unicode="c" horiz-adv-x="479" 
d="M418 70v-20q0 -28 -43.5 -44t-97.5 -16q-106 0 -166.5 70t-60.5 193q0 101 66 167.5t164 66.5q65 0 109.5 -32t44.5 -92q0 -20 -8.5 -31.5t-22.5 -11.5h-19v17q0 50 -30 74.5t-78 24.5q-74 0 -121 -54t-47 -129q0 -96 46.5 -152.5t142.5 -56.5q66 0 121 26z" />
    <glyph glyph-name="d" unicode="d" horiz-adv-x="557" 
d="M50 215q0 111 61.5 191.5t159.5 80.5q108 0 156 -92v249h54v-616q0 -22 -8.5 -26.5t-45.5 -4.5v138q-28 -67 -79.5 -106t-116.5 -39q-84 0 -132.5 63t-48.5 162zM108 215q0 -74 35.5 -123t99.5 -49q76 0 126.5 66.5t50.5 165.5q0 65 -36 113t-103 48q-81 0 -127 -66
t-46 -155z" />
    <glyph glyph-name="e" unicode="e" horiz-adv-x="499" 
d="M423 70v-22q0 -26 -44 -42t-102 -16q-105 0 -166 68t-61 194q0 101 59 168t152 67q92 0 142.5 -59.5t50.5 -154.5q0 -59 -66 -59h-278q17 -170 191 -170q62 0 122 26zM260 436q-72 0 -111 -50t-41 -126h256q31 0 31 34q0 64 -36 103t-99 39z" />
    <glyph glyph-name="f" unicode="f" horiz-adv-x="338" 
d="M155 0h-54v379l-71 18q2 21 12 31h59v41q0 84 41 134.5t116 50.5q24 0 44.5 -9.5t20.5 -30.5v-21q-22 8 -46 8q-64 0 -93 -35t-29 -107v-31h125q15 0 18 -10t3 -41h-146v-377z" />
    <glyph glyph-name="g" unicode="g" horiz-adv-x="478" 
d="M463 541q-50 3 -90 -15.5t-40 -47.5q0 -12 6 -19q72 -43 72 -130q0 -71 -51.5 -113.5t-127.5 -42.5q-112 -2 -112 -47q0 -21 21 -33.5t60 -12.5h75q169 0 169 -106q0 -51 -35.5 -86t-84.5 -49t-107 -14q-85 0 -138.5 30t-53.5 89q0 76 86 103q-42 23 -42 67q0 58 71 78
q-87 40 -87 137q0 73 50 115.5t128 42.5q33 0 66 -10q-1 5 -1 14q0 54 43 81.5t97 27.5q17 0 21.5 -12t4.5 -47zM357 326q0 49 -34.5 79.5t-90.5 30.5q-57 0 -90.5 -29.5t-33.5 -80.5q0 -50 35.5 -79.5t88.5 -29.5t89 31t36 78zM264 32h-60q-57 0 -89.5 -22t-32.5 -57
q0 -42 38.5 -63.5t101.5 -21.5q69 0 117 25t48 72q0 67 -123 67z" />
    <glyph glyph-name="h" unicode="h" horiz-adv-x="546" 
d="M477 28q0 -22 -8.5 -26.5t-45.5 -4.5v294q0 70 -35 107t-93 37q-65 0 -115 -47t-50 -131v-257h-55v616q0 22 9 26.5t46 4.5v-273q27 55 78 84t108 29q73 0 117 -44t44 -126v-289z" />
    <glyph glyph-name="i" unicode="i" horiz-adv-x="205" 
d="M130 0h-55v448q0 22 8.5 26.5t46.5 4.5v-479zM147 644q0 -44 -42 -44t-42 44t42 44t42 -44z" />
    <glyph glyph-name="j" unicode="j" horiz-adv-x="216" 
d="M140 479v-557q0 -44 -25 -70.5t-65 -26.5q-55 0 -55 35v25q14 -5 35 -5q25 0 40.5 16.5t15.5 42.5v509q0 22 8.5 26.5t45.5 4.5zM158 644q0 -44 -43 -44q-42 0 -42 44t42 44q43 0 43 -44z" />
    <glyph glyph-name="k" unicode="k" horiz-adv-x="484" 
d="M469 36v-16q0 -13 -14.5 -20t-32.5 -7q-30 0 -48 11t-42 44l-126 159h-76v-207h-55v616q0 22 9 26.5t46 4.5v-392h74q94 83 181 222h62v-9q-93 -140 -194 -233l134 -158q33 -41 73 -41h9z" />
    <glyph glyph-name="l" unicode="l" horiz-adv-x="205" 
d="M130 0h-55v649q0 22 8.5 26.5t46.5 4.5v-680z" />
    <glyph glyph-name="m" unicode="m" horiz-adv-x="812" 
d="M744 28q0 -22 -9 -26.5t-46 -4.5v298q0 140 -107 140q-56 0 -100.5 -47.5t-44.5 -130.5v-257h-55v295q0 70 -28.5 105t-80.5 35q-56 0 -99.5 -47t-43.5 -131v-257h-55v448q0 22 8.5 26.5t46.5 4.5v-101q27 54 71 81.5t94 27.5q54 0 90 -29t46 -85q58 114 173 114
q66 0 103 -42.5t37 -122.5v-294z" />
    <glyph glyph-name="n" unicode="n" horiz-adv-x="546" 
d="M477 28q0 -22 -8.5 -26.5t-45.5 -4.5v294q0 70 -35 107t-93 37q-65 0 -115 -47t-50 -131v-257h-55v448q0 22 8.5 26.5t46.5 4.5v-105q27 55 78 84t108 29q73 0 117 -44t44 -126v-289z" />
    <glyph glyph-name="o" unicode="o" horiz-adv-x="540" 
d="M490 249q0 -114 -61.5 -186.5t-158.5 -72.5t-158.5 72.5t-61.5 186.5t58 176t162 62t162 -62t58 -176zM432 249q0 88 -41.5 137.5t-120.5 49.5t-120.5 -49.5t-41.5 -137.5q0 -87 44.5 -146.5t117.5 -59.5t117.5 59.5t44.5 146.5z" />
    <glyph glyph-name="p" unicode="p" horiz-adv-x="558" 
d="M130 -165h-55v613q0 22 8.5 26.5t46.5 4.5v-135q27 67 77.5 105t116.5 38q87 0 135.5 -62.5t48.5 -162.5q0 -111 -62 -191.5t-161 -80.5q-109 0 -155 93v-248zM450 262q0 75 -35.5 124.5t-104.5 49.5q-77 0 -125 -66.5t-48 -167.5q0 -63 38 -111t101 -48q81 0 127.5 65.5
t46.5 153.5z" />
    <glyph glyph-name="q" unicode="q" horiz-adv-x="557" 
d="M50 215q0 111 61.5 191.5t159.5 80.5q108 0 156 -93v83h54v-614q0 -22 -8.5 -26.5t-45.5 -4.5v302q-28 -67 -79.5 -105.5t-116.5 -38.5q-85 0 -133 62.5t-48 162.5zM108 215q0 -74 35 -123t100 -49q76 0 126.5 66.5t50.5 165.5q0 65 -36.5 113t-102.5 48q-81 0 -127 -66
t-46 -155z" />
    <glyph glyph-name="r" unicode="r" horiz-adv-x="335" 
d="M130 0h-55v448q0 22 8.5 26.5t46.5 4.5v-115q24 61 65 92t89 31q18 0 23 -13t3 -47q-82 4 -130.5 -47.5t-49.5 -138.5v-241z" />
    <glyph glyph-name="s" unicode="s" horiz-adv-x="408" 
d="M351 127q0 -66 -47.5 -101.5t-115.5 -35.5q-46 0 -80 16t-34 42v24q52 -27 113 -27q46 0 77 19.5t31 55.5q0 26 -18.5 44t-46.5 26.5t-60 19.5t-60 23.5t-46.5 40t-18.5 67.5q0 62 45.5 104t123.5 42q65 0 106.5 -32t41.5 -76q0 -39 -30 -39h-15v14q0 34 -28.5 57
t-76.5 23q-52 0 -81.5 -25t-29.5 -58q0 -31 18.5 -52t46.5 -30.5t60 -20.5t60 -22t46.5 -36.5t18.5 -62.5z" />
    <glyph glyph-name="t" unicode="t" horiz-adv-x="399" 
d="M359 425h-204v-228q0 -78 23.5 -115.5t85.5 -37.5q53 0 94 23v-22q0 -27 -35.5 -41t-77.5 -14q-73 0 -108.5 45t-35.5 149v243l-70 19q0 18 11 31h59v83q0 22 8.5 26.5t45.5 4.5v-114h183q15 0 18 -10.5t3 -41.5z" />
    <glyph glyph-name="u" unicode="u" horiz-adv-x="540" 
d="M466 196q0 -100 -54.5 -153t-144.5 -53q-88 0 -141 53t-53 153v252q0 22 8.5 26.5t46.5 4.5v-272q0 -79 35.5 -120.5t103.5 -41.5q70 0 107.5 42t37.5 120v270h54v-281z" />
    <glyph glyph-name="v" unicode="v" horiz-adv-x="502" 
d="M276 7q-33 -13 -61 -14l-185 477v7h64l154 -414q99 193 162 414h63q-78 -252 -197 -470z" />
    <glyph glyph-name="w" unicode="w" horiz-adv-x="755" 
d="M562 7q-30 -13 -58 -14l-119 403q-52 -185 -145 -389q-33 -13 -61 -14l-149 477v7h64l118 -407q84 184 131 348q9 35 4 49q27 14 68 14l120 -411q84 192 131 407h61q-61 -246 -165 -470z" />
    <glyph glyph-name="x" unicode="x" horiz-adv-x="497" 
d="M465 0h-64l-155 201q-83 -86 -144 -201h-64q70 133 179 242l-172 226v9h64l153 -200q82 92 136 200h61q-68 -134 -167 -243l173 -225v-9z" />
    <glyph glyph-name="y" unicode="y" 
d="M476 477v-9l-175 -462q-7 -93 -44 -137t-95 -44q-28 0 -47.5 10.5t-19.5 30.5v21q28 -7 47 -7q89 0 101 119q-140 242 -217 478h66q57 -189 177 -406l147 406h60z" />
    <glyph glyph-name="z" unicode="z" horiz-adv-x="455" 
d="M415 0h-382q-2 27 6 45l294 380h-278q0 31 3 41.5t18 10.5h335q2 -29 -6 -46l-295 -379h305v-52z" />
    <glyph glyph-name="braceleft" unicode="{" horiz-adv-x="317" 
d="M222 -103l-33 -29q-63 65 -63 139q0 41 24.5 110t24.5 100q0 30 -19.5 47t-50.5 17h-47v42h47q32 0 51 16t19 45q0 34 -24.5 110t-24.5 128q0 53 47 102q14 14 21 14q9 0 34 -18q-49 -47 -49 -92q0 -46 24 -123t24 -113q0 -33 -19 -57t-50 -34q31 -11 50 -35t19 -56
q0 -41 -24 -108.5t-24 -100.5q0 -61 43 -104z" />
    <glyph glyph-name="bar" unicode="|" horiz-adv-x="239" 
d="M144 -100h-49v823h49v-823z" />
    <glyph glyph-name="braceright" unicode="}" horiz-adv-x="317" 
d="M143 -117q-12 -13 -24 -13q-14 0 -31 17q50 52 50 114q0 33 -24 100.5t-24 108.5q0 33 19 56.5t50 34.5q-31 10 -50 34t-19 57q0 36 24 113t24 123q0 48 -48 87l32 29q69 -54 69 -122q0 -52 -24.5 -128t-24.5 -110q0 -29 19 -45t51 -16h47v-42h-47q-31 0 -50.5 -17
t-19.5 -47q0 -31 24.5 -100t24.5 -110q0 -67 -48 -124z" />
    <glyph glyph-name="asciitilde" unicode="~" 
d="M417 313q39 0 39 -32q0 -46 -32 -78.5t-79 -32.5q-32 0 -59.5 14t-43.5 31t-39.5 31t-47.5 14q-33 0 -52 -24.5t-19 -66.5q-40 0 -40 32q0 46 32 78t79 32q32 0 59.5 -14t44 -31t40 -31t47.5 -14q33 0 52 25t19 67z" />
    <glyph glyph-name="exclamdown" unicode="&#xa1;" horiz-adv-x="292" 
d="M176 278l16 -412q1 -12 -3.5 -18.5t-16.5 -9.5t-22.5 -3.5t-33.5 -0.5l16 444h44zM204 436q0 -51 -49 -51q-48 0 -48 51t48 51q49 0 49 -51z" />
    <glyph glyph-name="cent" unicode="&#xa2;" 
d="M286 -117h-47v109q-83 10 -128 69t-45 159q0 79 47.5 135t125.5 67v119h47v-118q56 -3 92.5 -33.5t36.5 -80.5q0 -18 -8 -28t-20 -10h-21v15q0 44 -26.5 65.5t-69.5 21.5q-64 0 -105 -45t-41 -108q0 -83 40 -129.5t124 -46.5q63 0 109 23v-24q0 -24 -34 -37t-77 -15v-108
z" />
    <glyph glyph-name="sterling" unicode="&#xa3;" 
d="M374 213h-152q33 -80 35 -159h196v-54h-390v54h135q-2 70 -40 159h-85v45h64q-39 87 -39 154q0 76 52 123t135 47q65 0 107.5 -30t42.5 -80q0 -22 -9.5 -34.5t-24.5 -12.5h-20v18q0 40 -28 63t-74 23q-53 0 -87 -32.5t-34 -84.5q0 -60 44 -154h153q13 0 16 -9t3 -36z" />
    <glyph glyph-name="currency" unicode="&#xa4;" 
d="M392 242q0 -47 -25 -83l64 -64l-35 -37l-64 64q-33 -24 -82 -24q-47 0 -81 25l-65 -66l-35 37l64 65q-25 36 -25 83t25 81l-63 65l35 37l64 -66q36 23 81 23q46 0 81 -22l66 66l35 -37l-65 -66q25 -34 25 -81zM342 242q0 41 -25.5 66t-66.5 25q-40 0 -65.5 -25.5
t-25.5 -65.5q0 -41 25.5 -68t65.5 -27t66 27t26 68z" />
    <glyph glyph-name="yen" unicode="&#xa5;" 
d="M281 0h-58v123h-153v45h153v76h-153v45h128l-169 276v7h66l162 -264q93 130 160 264h68q-85 -157 -176 -283h104q13 0 16 -9t3 -36h-151v-76h132q13 0 16 -9.5t3 -35.5h-151v-123z" />
    <glyph glyph-name="brokenbar" unicode="&#xa6;" horiz-adv-x="239" 
d="M144 439h-49v284h49v-284zM144 -100h-49v302h49v-302z" />
    <glyph glyph-name="section" unicode="&#xa7;" horiz-adv-x="504" 
d="M453 124q0 -101 -67 -163t-166 -62q-53 0 -92.5 17t-39.5 45v20q64 -32 117 -32q38 0 63 23t25 63q0 34 -25 69.5t-61 69.5t-72.5 72t-61.5 92t-25 115q0 85 61 143t161 58q77 0 124.5 -34.5t47.5 -89.5q0 -46 -32 -46h-15v16q0 45 -30.5 77.5t-85.5 32.5
q-42 0 -65.5 -23.5t-23.5 -58.5q0 -39 19.5 -75t48.5 -61.5t63.5 -55.5t63.5 -58t48.5 -68t19.5 -86zM411 113q0 47 -27.5 90.5t-66.5 77.5l-78 68t-66.5 76t-27.5 87q0 53 32 86q-85 -42 -85 -138q0 -55 25 -104.5t61 -86.5t72 -71t61 -73t25 -78q0 -60 -36 -93
q50 18 80.5 58.5t30.5 100.5z" />
    <glyph glyph-name="dieresis" unicode="&#xa8;" horiz-adv-x="493" 
d="M200 644q0 -44 -42 -44t-42 44q0 43 42 43t42 -43zM377 644q0 -44 -42 -44t-42 44q0 43 42 43t42 -43z" />
    <glyph glyph-name="dieresis" unicode="&#x308;" horiz-adv-x="493" 
d="M200 644q0 -44 -42 -44t-42 44q0 43 42 43t42 -43zM377 644q0 -44 -42 -44t-42 44q0 43 42 43t42 -43z" />
    <glyph glyph-name="copyright" unicode="&#xa9;" horiz-adv-x="635" 
d="M591 278q0 -116 -75.5 -195t-197.5 -79t-198 79t-76 195t76 195t198 79t197.5 -79t75.5 -195zM551 278q0 100 -64 167.5t-169 67.5q-106 0 -170.5 -67.5t-64.5 -167.5t64.5 -167.5t170.5 -67.5q105 0 169 67.5t64 167.5zM411 202v-16q0 -19 -25 -31t-61 -12
q-61 0 -94.5 38t-33.5 102q0 55 37 90.5t93 35.5q40 0 66.5 -18.5t26.5 -49.5q0 -30 -32 -30h-10v10q0 21 -15 33.5t-40 12.5q-34 0 -55.5 -23t-21.5 -61q0 -45 23.5 -70.5t68.5 -25.5q42 0 73 15z" />
    <glyph glyph-name="ordfeminine" unicode="&#xaa;" horiz-adv-x="349" 
d="M28 469q0 83 119 96l99 12l-1 16q-5 85 -97 85q-43 0 -90 -22v16q0 21 34.5 34.5t73.5 13.5q119 0 127 -123l14 -196q1 -17 -8 -21t-40 -4l-6 88q-40 -93 -128 -93q-46 0 -71.5 29t-25.5 69zM81 472q0 -28 16.5 -46t45.5 -18q42 0 70.5 39t32.5 96l-93 -12
q-72 -10 -72 -59z" />
    <glyph glyph-name="guillemotleft" unicode="&#xab;" horiz-adv-x="489" 
d="M221 127h-44q-41 27 -73 72.5t-32 94.5q0 88 105 156h44v-9q-83 -72 -83 -147q0 -42 23.5 -84t59.5 -74v-9zM412 127h-45q-41 27 -73 72.5t-32 94.5q0 86 105 156h45v-9q-83 -72 -83 -147q0 -42 23.5 -84t59.5 -74v-9z" />
    <glyph glyph-name="logicalnot" unicode="&#xac;" 
d="M438 88h-49v232h-341v50h390v-282z" />
    <glyph glyph-name="registered" unicode="&#xae;" horiz-adv-x="635" 
d="M591 569q0 -116 -75.5 -195t-197.5 -79t-198 79t-76 195t76 195t198 79t197.5 -79t75.5 -195zM551 569q0 100 -64 167.5t-169 67.5q-106 0 -170.5 -67.5t-64.5 -167.5t64.5 -167.5t170.5 -67.5q105 0 169 67.5t64 167.5zM420 617q0 -59 -59 -79l43 -50q18 -21 35 -21h6
v-7q0 -12 -9.5 -18.5t-23.5 -6.5q-30 0 -49 26l-47 57h-43v-80h-47v237q0 14 10.5 17.5t36.5 3.5h48q43 0 71 -20.5t28 -58.5zM372 611q0 45 -60 45h-39v-97h37q26 0 44 13.5t18 38.5z" />
    <glyph glyph-name="macron" unicode="&#xaf;" horiz-adv-x="493" 
d="M386 670v-53h-278v53h278z" />
    <glyph glyph-name="macron" unicode="&#x304;" horiz-adv-x="493" 
d="M386 670v-53h-278v53h278z" />
    <glyph glyph-name="macron" unicode="&#x2c9;" horiz-adv-x="493" 
d="M386 670v-53h-278v53h278z" />
    <glyph glyph-name="degree" unicode="&#xb0;" horiz-adv-x="327" 
d="M164 400q-62 0 -102 42t-40 102q0 59 39.5 99.5t102.5 40.5q64 0 103 -39.5t39 -100.5q0 -62 -39.5 -103t-102.5 -41zM164 449q40 0 66 27t26 68q0 40 -25.5 65t-66.5 25t-66.5 -25t-25.5 -65q0 -41 26 -68t66 -27z" />
    <glyph glyph-name="plusminus" unicode="&#xb1;" 
d="M275 142h-49v154h-182v50h182v154h49v-154h182v-50h-182v-154zM457 50v-50h-413v50h413z" />
    <glyph glyph-name="twosuperior" unicode="&#xb2;" horiz-adv-x="352" 
d="M307 378h-273q-2 25 6 47q46 24 78 44.5t68.5 49.5t55.5 63t19 70q0 40 -24.5 62t-65.5 22t-65.5 -22.5t-24.5 -53.5v-13h-19q-10 0 -17 8t-7 20q0 46 38.5 77t98.5 31q61 0 100 -33.5t39 -91.5q0 -116 -190 -234h183v-46z" />
    <glyph glyph-name="threesuperior" unicode="&#xb3;" horiz-adv-x="352" 
d="M297 487q0 -56 -43 -87t-105 -31q-48 0 -75.5 14.5t-27.5 37.5v17q43 -22 97 -22q45 0 73.5 19t28.5 55q0 60 -110 60h-29v44h19q58 0 89 21t31 57q0 31 -23 48t-57 17q-37 0 -58.5 -18.5t-21.5 -43.5v-13h-16q-26 0 -26 29q0 40 37 66t90 26q56 0 91.5 -27t35.5 -74
q0 -75 -82 -104q82 -20 82 -91z" />
    <glyph glyph-name="acute" unicode="&#xb4;" horiz-adv-x="493" 
d="M352 660l-188 -92h-7l-16 31l174 129q29 -29 37 -68z" />
    <glyph glyph-name="acute" unicode="&#x301;" horiz-adv-x="493" 
d="M352 660l-188 -92h-7l-16 31l174 129q29 -29 37 -68z" />
    <glyph glyph-name="acute" unicode="&#x2ca;" horiz-adv-x="493" 
d="M352 660l-188 -92h-7l-16 31l174 129q29 -29 37 -68z" />
    <glyph glyph-name="mu" unicode="&#xb5;" horiz-adv-x="568" 
d="M480 -10q-65 0 -65 79v34q-27 -55 -76.5 -84t-104.5 -29q-73 0 -104 45v-200h-55v613q0 22 8.5 26.5t46.5 4.5v-293q0 -71 33.5 -107.5t90.5 -36.5q63 0 112 47.5t49 130.5v257h54v-398q0 -38 34 -38q15 0 28 5v-20q0 -36 -51 -36z" />
    <glyph glyph-name="mu" unicode="&#x3bc;" horiz-adv-x="568" 
d="M480 -10q-65 0 -65 79v34q-27 -55 -76.5 -84t-104.5 -29q-73 0 -104 45v-200h-55v613q0 22 8.5 26.5t46.5 4.5v-293q0 -71 33.5 -107.5t90.5 -36.5q63 0 112 47.5t49 130.5v257h54v-398q0 -38 34 -38q15 0 28 5v-20q0 -36 -51 -36z" />
    <glyph glyph-name="paragraph" unicode="&#xb6;" horiz-adv-x="485" 
d="M338 -140q0 -20 -8 -24t-41 -4v390q-106 9 -170.5 67t-64.5 155q0 94 60.5 147t148.5 53h156q14 0 17.5 -10.5t3.5 -40.5h-102v-733z" />
    <glyph glyph-name="periodcentered" unicode="&#xb7;" horiz-adv-x="245" 
d="M122 214q-49 0 -49 51q0 50 49 50t49 -50q0 -51 -49 -51z" />
    <glyph glyph-name="cedilla" unicode="&#xb8;" horiz-adv-x="493" 
d="M311 -135q0 -27 -16 -47.5t-33 -20.5q-6 0 -12 4l-10 6q20 22 20 42q0 47 -79 60q11 72 36 101q5 7 15 3l14 -6q-13 -28 -20 -57q85 -21 85 -85z" />
    <glyph glyph-name="cedilla" unicode="&#x327;" horiz-adv-x="493" 
d="M311 -135q0 -27 -16 -47.5t-33 -20.5q-6 0 -12 4l-10 6q20 22 20 42q0 47 -79 60q11 72 36 101q5 7 15 3l14 -6q-13 -28 -20 -57q85 -21 85 -85z" />
    <glyph glyph-name="onesuperior" unicode="&#xb9;" horiz-adv-x="352" 
d="M79 616l-14 45q44 13 84.5 34.5t39.5 41.5v19q0 19 8.5 23t41.5 4v-405h-50v289q-40 -30 -110 -51z" />
    <glyph glyph-name="ordmasculine" unicode="&#xba;" horiz-adv-x="379" 
d="M347 554q0 -80 -44 -131.5t-113 -51.5q-70 0 -114 51.5t-44 131.5t41.5 123t116.5 43q74 0 115.5 -43t41.5 -123zM297 554q0 58 -27.5 91t-79.5 33q-53 0 -80.5 -33t-27.5 -91q0 -59 29.5 -99t78.5 -40q48 0 77.5 40t29.5 99z" />
    <glyph glyph-name="guillemotright" unicode="&#xbb;" horiz-adv-x="489" 
d="M312 127h-44v9q36 32 59.5 74t23.5 84q0 75 -83 147v9h44q105 -68 105 -156q0 -49 -32 -94.5t-73 -72.5zM122 127h-45v9q36 32 59.5 74t23.5 84q0 75 -83 147v9h45q105 -70 105 -156q0 -49 -32 -94.5t-73 -72.5z" />
    <glyph glyph-name="onequarter" unicode="&#xbc;" horiz-adv-x="804" 
d="M276 -40h-54l343 684h55zM780 87h-64v-87h-48v87h-197q-2 25 7 43q87 115 169 270h52v-5q-70 -132 -168 -264h137v74q0 11 6 15.5t14 5.5t28 1v-96h64v-44zM79 415l-14 45q44 13 84.5 34.5t39.5 41.5v19q0 19 8.5 23t41.5 4v-405h-50v289q-40 -30 -110 -51z" />
    <glyph glyph-name="onehalf" unicode="&#xbd;" horiz-adv-x="848" 
d="M802 0h-273q-2 25 6 47q46 24 78 44.5t68.5 49.5t55.5 63t19 70q0 40 -24.5 62t-65.5 22t-65.5 -22.5t-24.5 -53.5v-13h-19q-10 0 -17 8t-7 20q0 46 38.5 77t98.5 31q61 0 100 -33.5t39 -91.5q0 -116 -190 -234h183v-46zM276 -40h-54l343 684h55zM79 415l-14 45
q44 13 84.5 34.5t39.5 41.5v19q0 19 8.5 23t41.5 4v-405h-50v289q-40 -30 -110 -51z" />
    <glyph glyph-name="threequarters" unicode="&#xbe;" horiz-adv-x="809" 
d="M297 286q0 -56 -43 -87t-105 -31q-48 0 -75.5 14.5t-27.5 37.5v17q43 -22 97 -22q45 0 73.5 19t28.5 55q0 60 -110 60h-29v44h19q58 0 89 20.5t31 57.5q0 31 -23 48t-57 17q-37 0 -58.5 -18.5t-21.5 -43.5v-13h-16q-26 0 -26 29q0 40 37 66t90 26q56 0 91.5 -27t35.5 -74
q0 -75 -82 -104q82 -20 82 -91zM281 -40h-54l343 684h55zM785 87h-64v-87h-48v87h-197q-2 25 7 43q87 115 169 270h52v-5q-70 -132 -168 -264h137v74q0 11 6 15.5t14 5.5t28 1v-96h64v-44z" />
    <glyph glyph-name="questiondown" unicode="&#xbf;" horiz-adv-x="391" 
d="M305 205q0 -32 -28 -63.5t-61.5 -54.5t-61.5 -57.5t-28 -72.5t28 -58t69 -20q51 0 98 29l7 -19q7 -22 -34 -42.5t-87 -20.5q-63 0 -104.5 33t-41.5 96q0 39 19.5 72.5t46.5 56.5t54.5 43t47 40.5t19.5 39.5t-13 29.5t-33 10.5v12q0 24 33 24q31 0 50.5 -22t19.5 -56z
M303 436q0 -51 -49 -51t-49 51t49 51t49 -51z" />
    <glyph glyph-name="Agrave" unicode="&#xc0;" horiz-adv-x="654" 
d="M618 0h-68l-61 159h-329q-27 -78 -51 -159h-67q94 301 239 578q17 35 10 53q32 19 71 21l256 -643v-9zM470 216l-135 348q-89 -167 -156 -348h291zM206 792q6 36 37 67l174 -128l-16 -31h-8z" />
    <glyph glyph-name="Aacute" unicode="&#xc1;" horiz-adv-x="654" 
d="M618 0h-68l-61 159h-329q-27 -78 -51 -159h-67q94 301 239 578q17 35 10 53q32 19 71 21l256 -643v-9zM470 216l-135 348q-89 -167 -156 -348h291zM464 792l-188 -92h-7l-16 31l174 128q29 -29 37 -67z" />
    <glyph glyph-name="Acircumflex" unicode="&#xc2;" horiz-adv-x="654" 
d="M618 0h-68l-61 159h-329q-27 -78 -51 -159h-67q94 301 239 578q17 35 10 53q32 19 71 21l256 -643v-9zM470 216l-135 348q-89 -167 -156 -348h291zM490 736l-23 -25h-7l-127 93l-127 -93h-7l-23 25l101 106q56 12 112 0z" />
    <glyph glyph-name="Atilde" unicode="&#xc3;" horiz-adv-x="654" 
d="M618 0h-68l-61 159h-329q-27 -78 -51 -159h-67q94 301 239 578q17 35 10 53q32 19 71 21l256 -643v-9zM470 216l-135 348q-89 -167 -156 -348h291zM489 805q0 -37 -25 -63.5t-63 -26.5q-32 0 -74.5 32.5t-66.5 32.5q-22 0 -36.5 -18.5t-14.5 -47.5q-38 0 -38 33
q0 37 24.5 62.5t62.5 25.5q32 0 75 -32.5t66 -32.5q22 0 36.5 18.5t14.5 46.5q21 0 30 -6t9 -24z" />
    <glyph glyph-name="Adieresis" unicode="&#xc4;" horiz-adv-x="654" 
d="M618 0h-68l-61 159h-329q-27 -78 -51 -159h-67q94 301 239 578q17 35 10 53q32 19 71 21l256 -643v-9zM470 216l-135 348q-89 -167 -156 -348h291zM289 775q0 -43 -42 -43t-42 43t42 43t42 -43zM466 775q0 -43 -42 -43t-42 43t42 43t42 -43z" />
    <glyph glyph-name="Aring" unicode="&#xc5;" horiz-adv-x="654" 
d="M618 0h-68l-61 159h-329q-27 -78 -51 -159h-67q94 301 239 578q17 35 10 53q32 19 71 21l256 -643v-9zM470 216l-135 348q-89 -167 -156 -348h291zM429 774q0 -42 -26.5 -68t-68.5 -26q-41 0 -67.5 26t-26.5 68t26 68t68 26t68.5 -26t26.5 -68zM389 774q0 25 -15 39.5
t-40 14.5q-24 0 -39.5 -14.5t-15.5 -39.5q0 -24 15.5 -39.5t39.5 -15.5t39.5 15t15.5 40z" />
    <glyph glyph-name="Aring" unicode="&#x212b;" horiz-adv-x="654" 
d="M618 0h-68l-61 159h-329q-27 -78 -51 -159h-67q94 301 239 578q17 35 10 53q32 19 71 21l256 -643v-9zM470 216l-135 348q-89 -167 -156 -348h291zM429 774q0 -42 -26.5 -68t-68.5 -26q-41 0 -67.5 26t-26.5 68t26 68t68 26t68.5 -26t26.5 -68zM389 774q0 25 -15 39.5
t-40 14.5q-24 0 -39.5 -14.5t-15.5 -39.5q0 -24 15.5 -39.5t39.5 -15.5t39.5 15t15.5 40z" />
    <glyph glyph-name="AE" unicode="&#xc6;" horiz-adv-x="874" 
d="M761 284h-253v-149q0 -41 18.5 -59t60.5 -18h236v-58h-245q-71 0 -100 28.5t-29 99.5v31h-288q-46 -80 -85 -159h-68q87 173 174.5 306.5t202.5 277.5q22 28 17 44q33 16 80 16h312q8 0 12.5 -3t6.5 -12t2.5 -17t0.5 -26h-308v-246h253v-56zM449 579q-143 -177 -255 -363
h255v363z" />
    <glyph glyph-name="Ccedilla" unicode="&#xc7;" horiz-adv-x="618" 
d="M403 -135q0 -27 -16.5 -47.5t-33.5 -20.5q-5 0 -11 4l-10 6q19 21 19 42q0 47 -78 60q8 52 26 87q-115 20 -178 109t-63 234q0 136 84 225.5t217 89.5q90 0 149 -43t59 -114q0 -22 -11 -35t-27 -13h-20v18q0 61 -42 95t-111 34q-103 0 -169.5 -74.5t-66.5 -182.5
q0 -131 66 -210t193 -79q90 0 170 40v-21q0 -38 -55.5 -58.5t-130.5 -20.5q-11 0 -33 2q-8 -20 -12 -42q85 -22 85 -85z" />
    <glyph glyph-name="Egrave" unicode="&#xc8;" horiz-adv-x="510" 
d="M459 58v-58h-245q-71 0 -100 28.5t-29 99.5v484q0 23 9.5 27.5t49.5 4.5h286q8 0 12.5 -3t6.5 -12t2.5 -17t0.5 -26h-308v-246h253v-56h-253v-149q0 -41 18.5 -59t60.5 -18h236zM148 792q6 36 37 67l174 -128l-16 -31h-8z" />
    <glyph glyph-name="Eacute" unicode="&#xc9;" horiz-adv-x="510" 
d="M459 58v-58h-245q-71 0 -100 28.5t-29 99.5v484q0 23 9.5 27.5t49.5 4.5h286q8 0 12.5 -3t6.5 -12t2.5 -17t0.5 -26h-308v-246h253v-56h-253v-149q0 -41 18.5 -59t60.5 -18h236zM401 792l-188 -92h-7l-16 31l174 128q29 -29 37 -67z" />
    <glyph glyph-name="Ecircumflex" unicode="&#xca;" horiz-adv-x="510" 
d="M459 58v-58h-245q-71 0 -100 28.5t-29 99.5v484q0 23 9.5 27.5t49.5 4.5h286q8 0 12.5 -3t6.5 -12t2.5 -17t0.5 -26h-308v-246h253v-56h-253v-149q0 -41 18.5 -59t60.5 -18h236zM434 736l-23 -25h-7l-127 93l-127 -93h-7l-23 25l101 106q56 12 112 0z" />
    <glyph glyph-name="Edieresis" unicode="&#xcb;" horiz-adv-x="510" 
d="M459 58v-58h-245q-71 0 -100 28.5t-29 99.5v484q0 23 9.5 27.5t49.5 4.5h286q8 0 12.5 -3t6.5 -12t2.5 -17t0.5 -26h-308v-246h253v-56h-253v-149q0 -41 18.5 -59t60.5 -18h236zM406 775q0 -43 -42 -43t-42 43t42 43t42 -43zM229 775q0 -43 -42 -43t-42 43t42 43t42 -43z
" />
    <glyph glyph-name="Igrave" unicode="&#xcc;" horiz-adv-x="229" 
d="M144 0h-59v615q0 22 10 27t49 5v-647zM-13 792q6 36 37 67l174 -128l-16 -31h-8z" />
    <glyph glyph-name="Iacute" unicode="&#xcd;" horiz-adv-x="229" 
d="M144 0h-59v615q0 22 10 27t49 5v-647zM241 792l-188 -92h-7l-16 31l174 128q29 -29 37 -67z" />
    <glyph glyph-name="Icircumflex" unicode="&#xce;" horiz-adv-x="229" 
d="M144 0h-59v615q0 22 10 27t49 5v-647zM275 736l-23 -25h-7l-127 93l-127 -93h-7l-23 25l101 106q56 12 112 0z" />
    <glyph glyph-name="Idieresis" unicode="&#xcf;" horiz-adv-x="229" 
d="M144 0h-59v615q0 22 10 27t49 5v-647zM71 775q0 -43 -42 -43t-42 43t42 43t42 -43zM248 775q0 -43 -42 -43t-42 43t42 43t42 -43z" />
    <glyph glyph-name="Eth" unicode="&#xd0;" horiz-adv-x="697" 
d="M640 345q0 -156 -93.5 -250.5t-228.5 -94.5h-58q-72 0 -104.5 32.5t-32.5 107.5v152h-102v54h102v240h-56q0 23 1 33.5t6 17.5t16 7h236q138 0 226 -75.5t88 -223.5zM352 292h-171v-146q0 -45 20 -66.5t64 -21.5h51q111 0 186.5 76t75.5 211q0 124 -72.5 182.5
t-189.5 58.5h-135v-240h171v-54z" />
    <glyph glyph-name="Ntilde" unicode="&#xd1;" horiz-adv-x="681" 
d="M515 805q0 -37 -25 -63.5t-63 -26.5q-32 0 -74.5 32.5t-66.5 32.5q-22 0 -36.5 -18.5t-14.5 -47.5q-38 0 -38 33q0 37 24.5 62.5t62.5 25.5q32 0 75 -32.5t66 -32.5q22 0 36.5 18.5t14.5 46.5q21 0 30 -6t9 -24zM596 14q-25 -17 -57 -20l-395 547v-541h-59v629
q25 17 57 20l396 -545v540h58v-630z" />
    <glyph glyph-name="Ograve" unicode="&#xd2;" horiz-adv-x="701" 
d="M220 792q6 36 37 67l174 -128l-16 -31h-8zM643 341q0 -149 -83.5 -250t-210.5 -101q-125 0 -208 101t-83 250q0 148 78.5 230.5t212.5 82.5q136 0 215 -82.5t79 -230.5zM581 341q0 123 -61.5 190t-170.5 67q-107 0 -168 -68t-61 -189q0 -127 65 -210t164 -83
q101 0 166.5 82t65.5 211z" />
    <glyph glyph-name="Oacute" unicode="&#xd3;" horiz-adv-x="701" 
d="M484 792l-188 -92h-7l-16 31l174 128q29 -29 37 -67zM643 341q0 -149 -83.5 -250t-210.5 -101q-125 0 -208 101t-83 250q0 148 78.5 230.5t212.5 82.5q136 0 215 -82.5t79 -230.5zM581 341q0 123 -61.5 190t-170.5 67q-107 0 -168 -68t-61 -189q0 -127 65 -210t164 -83
q101 0 166.5 82t65.5 211z" />
    <glyph glyph-name="Ocircumflex" unicode="&#xd4;" horiz-adv-x="701" 
d="M643 341q0 -149 -83.5 -250t-210.5 -101q-125 0 -208 101t-83 250q0 148 78.5 230.5t212.5 82.5q136 0 215 -82.5t79 -230.5zM581 341q0 123 -61.5 190t-170.5 67q-107 0 -168 -68t-61 -189q0 -127 65 -210t164 -83q101 0 166.5 82t65.5 211zM508 736l-23 -25h-7l-127 93
l-127 -93h-7l-23 25l101 106q56 12 112 0z" />
    <glyph glyph-name="Otilde" unicode="&#xd5;" horiz-adv-x="701" 
d="M512 805q0 -37 -25 -63.5t-63 -26.5q-32 0 -74.5 32.5t-66.5 32.5q-22 0 -36.5 -18.5t-14.5 -47.5q-38 0 -38 33q0 37 24.5 62.5t62.5 25.5q32 0 74.5 -32.5t66.5 -32.5q22 0 36.5 18.5t14.5 46.5q21 0 30 -6t9 -24zM643 341q0 -149 -83.5 -250t-210.5 -101
q-125 0 -208 101t-83 250q0 148 78.5 230.5t212.5 82.5q136 0 215 -82.5t79 -230.5zM581 341q0 123 -61.5 190t-170.5 67q-107 0 -168 -68t-61 -189q0 -127 65 -210t164 -83q101 0 166.5 82t65.5 211z" />
    <glyph glyph-name="Odieresis" unicode="&#xd6;" horiz-adv-x="701" 
d="M304 775q0 -43 -42 -43t-42 43t42 43t42 -43zM481 775q0 -43 -42 -43t-42 43t42 43t42 -43zM643 341q0 -149 -83.5 -250t-210.5 -101q-125 0 -208 101t-83 250q0 148 78.5 230.5t212.5 82.5q136 0 215 -82.5t79 -230.5zM581 341q0 123 -61.5 190t-170.5 67
q-107 0 -168 -68t-61 -189q0 -127 65 -210t164 -83q101 0 166.5 82t65.5 211z" />
    <glyph glyph-name="multiply" unicode="&#xd7;" 
d="M397 426l35 -37l-146 -148l145 -146l-35 -37l-146 147l-146 -148l-35 37l145 147l-144 147l35 37l145 -147z" />
    <glyph glyph-name="Oslash" unicode="&#xd8;" horiz-adv-x="701" 
d="M643 341q0 -149 -83.5 -250t-210.5 -101q-52 0 -104 21l-53 -119l-44 22l54 121q-67 45 -105.5 126t-38.5 180q0 148 78.5 230.5t212.5 82.5q68 0 120 -21l58 130l44 -22l-58 -129q130 -79 130 -271zM120 341q0 -82 28.5 -148t77.5 -104l220 492q-45 17 -97 17
q-107 0 -168 -68t-61 -189zM581 341q0 152 -92 217l-220 -494q35 -16 80 -16q101 0 166.5 82t65.5 211z" />
    <glyph glyph-name="Ugrave" unicode="&#xd9;" horiz-adv-x="660" 
d="M200 792q6 36 37 67l174 -128l-16 -31h-8zM577 264q0 -133 -69 -203.5t-181 -70.5q-109 0 -176.5 72.5t-67.5 201.5v351q0 22 10 27t48 5v-375q0 -113 48.5 -169t137.5 -56q91 0 141.5 56t50.5 169v372h58v-380z" />
    <glyph glyph-name="Uacute" unicode="&#xda;" horiz-adv-x="660" 
d="M474 792l-188 -92h-7l-16 31l174 128q29 -29 37 -67zM577 264q0 -133 -69 -203.5t-181 -70.5q-109 0 -176.5 72.5t-67.5 201.5v351q0 22 10 27t48 5v-375q0 -113 48.5 -169t137.5 -56q91 0 141.5 56t50.5 169v372h58v-380z" />
    <glyph glyph-name="Ucircumflex" unicode="&#xdb;" horiz-adv-x="660" 
d="M577 264q0 -133 -69 -203.5t-181 -70.5q-109 0 -176.5 72.5t-67.5 201.5v351q0 22 10 27t48 5v-375q0 -113 48.5 -169t137.5 -56q91 0 141.5 56t50.5 169v372h58v-380zM490 736l-23 -25h-7l-127 93l-127 -93h-7l-23 25l101 106q56 12 112 0z" />
    <glyph glyph-name="Udieresis" unicode="&#xdc;" horiz-adv-x="660" 
d="M290 775q0 -43 -42 -43t-42 43t42 43t42 -43zM467 775q0 -43 -42 -43t-42 43t42 43t42 -43zM577 264q0 -133 -69 -203.5t-181 -70.5q-109 0 -176.5 72.5t-67.5 201.5v351q0 22 10 27t48 5v-375q0 -113 48.5 -169t137.5 -56q91 0 141.5 56t50.5 169v372h58v-380z" />
    <glyph glyph-name="Yacute" unicode="&#xdd;" horiz-adv-x="590" 
d="M324 0h-58v213l-232 422v9h64l200 -365q122 178 196 365h70q-96 -225 -240 -429v-215zM442 792l-188 -92h-7l-16 31l174 128q29 -29 37 -67z" />
    <glyph glyph-name="Thorn" unicode="&#xde;" horiz-adv-x="542" 
d="M494 350q0 -106 -80 -161.5t-205 -55.5h-65v-133h-59v615q0 22 10 27t49 5v-102h80q270 0 270 -195zM433 350q0 140 -209 140h-80v-302h66q98 0 160.5 40.5t62.5 121.5z" />
    <glyph glyph-name="germandbls" unicode="&#xdf;" horiz-adv-x="506" 
d="M451 133q0 -66 -41.5 -104.5t-99.5 -38.5q-38 0 -64 12.5t-26 38.5v23q32 -19 78 -19q40 0 68.5 23.5t28.5 66.5q0 95 -144 130q-11 23 -11 55q74 19 113 61t39 100q0 53 -33.5 87.5t-92.5 34.5q-67 0 -103 -44.5t-36 -119.5v-439h-54v450q0 89 51.5 146.5t143.5 57.5
q83 0 132 -47t49 -121q0 -67 -42 -115.5t-111 -71.5q155 -47 155 -166z" />
    <glyph glyph-name="agrave" unicode="&#xe0;" horiz-adv-x="495" 
d="M43 130q0 116 167 135l146 18l-1 23q-8 128 -143 128q-60 0 -127 -31v20q0 26 47.5 45t100.5 19q166 0 178 -174l20 -285q1 -21 -9 -26t-48 -5l-8 134q-56 -141 -184 -141q-67 0 -103 41.5t-36 98.5zM108 131q0 -42 24 -68.5t68 -26.5q64 0 107.5 59t48.5 144l-141 -18
q-107 -12 -107 -90zM102 660q6 37 37 68l174 -129l-16 -31h-8z" />
    <glyph glyph-name="aacute" unicode="&#xe1;" horiz-adv-x="495" 
d="M43 130q0 116 167 135l146 18l-1 23q-8 128 -143 128q-60 0 -127 -31v20q0 26 47.5 45t100.5 19q166 0 178 -174l20 -285q1 -21 -9 -26t-48 -5l-8 134q-56 -141 -184 -141q-67 0 -103 41.5t-36 98.5zM108 131q0 -42 24 -68.5t68 -26.5q64 0 107.5 59t48.5 144l-141 -18
q-107 -12 -107 -90zM373 660l-188 -92h-7l-16 31l174 129q29 -29 37 -68z" />
    <glyph glyph-name="acircumflex" unicode="&#xe2;" horiz-adv-x="495" 
d="M43 130q0 116 167 135l146 18l-1 23q-8 128 -143 128q-60 0 -127 -31v20q0 26 47.5 45t100.5 19q166 0 178 -174l20 -285q1 -21 -9 -26t-48 -5l-8 134q-56 -141 -184 -141q-67 0 -103 41.5t-36 98.5zM108 131q0 -42 24 -68.5t68 -26.5q64 0 107.5 59t48.5 144l-141 -18
q-107 -12 -107 -90zM408 604l-23 -25h-7l-127 93l-127 -93h-7l-23 25l101 106q56 12 112 0z" />
    <glyph glyph-name="atilde" unicode="&#xe3;" horiz-adv-x="495" 
d="M43 130q0 116 167 135l146 18l-1 23q-8 128 -143 128q-60 0 -127 -31v20q0 26 47.5 45t100.5 19q166 0 178 -174l20 -285q1 -21 -9 -26t-48 -5l-8 134q-56 -141 -184 -141q-67 0 -103 41.5t-36 98.5zM108 131q0 -42 24 -68.5t68 -26.5q64 0 107.5 59t48.5 144l-141 -18
q-107 -12 -107 -90zM410 674q0 -37 -25 -63.5t-63 -26.5q-32 0 -74.5 32.5t-66.5 32.5q-22 0 -36.5 -18.5t-14.5 -47.5q-20 0 -29 7.5t-9 25.5q0 37 24.5 62t62.5 25q33 0 75 -32t66 -32q22 0 36.5 18t14.5 47q21 0 30 -6.5t9 -23.5z" />
    <glyph glyph-name="adieresis" unicode="&#xe4;" horiz-adv-x="495" 
d="M43 130q0 116 167 135l146 18l-1 23q-8 128 -143 128q-60 0 -127 -31v20q0 26 47.5 45t100.5 19q166 0 178 -174l20 -285q1 -21 -9 -26t-48 -5l-8 134q-56 -141 -184 -141q-67 0 -103 41.5t-36 98.5zM108 131q0 -42 24 -68.5t68 -26.5q64 0 107.5 59t48.5 144l-141 -18
q-107 -12 -107 -90zM207 644q0 -44 -42 -44t-42 44q0 43 42 43t42 -43zM384 644q0 -44 -42 -44t-42 44q0 43 42 43t42 -43z" />
    <glyph glyph-name="aring" unicode="&#xe5;" horiz-adv-x="495" 
d="M43 130q0 116 167 135l146 18l-1 23q-8 128 -143 128q-60 0 -127 -31v20q0 26 47.5 45t100.5 19q166 0 178 -174l20 -285q1 -21 -9 -26t-48 -5l-8 134q-56 -141 -184 -141q-67 0 -103 41.5t-36 98.5zM108 131q0 -42 24 -68.5t68 -26.5q64 0 107.5 59t48.5 144l-141 -18
q-107 -12 -107 -90zM340 643q0 -42 -26.5 -68t-68.5 -26q-41 0 -67.5 26t-26.5 68t26 68t68 26t68.5 -26t26.5 -68zM300 643q0 25 -15 39.5t-40 14.5q-24 0 -39.5 -14.5t-15.5 -39.5t15.5 -40t39.5 -15t39.5 15t15.5 40z" />
    <glyph glyph-name="ae" unicode="&#xe6;" horiz-adv-x="816" 
d="M232 487q129 0 165 -109q28 51 75.5 80t108.5 29q92 0 142.5 -59.5t50.5 -154.5q0 -59 -67 -59h-284q17 -170 195 -170q64 0 122 26v-22q0 -27 -42 -42.5t-101 -15.5q-85 0 -142 43t-78 125q-25 -80 -74.5 -124t-121.5 -44q-66 0 -102.5 41.5t-36.5 98.5q0 55 43 90
t126 45l148 18l-2 23q-8 128 -145 128q-58 0 -125 -30v20q0 26 46 44.5t99 18.5zM577 436q-73 0 -113.5 -50t-42.5 -126h262q32 0 32 34q0 64 -37 103t-101 39zM107 131q0 -42 24.5 -68.5t69.5 -26.5q65 0 108.5 59t49.5 144l-142 -18q-52 -6 -81 -29.5t-29 -60.5z" />
    <glyph glyph-name="ccedilla" unicode="&#xe7;" horiz-adv-x="479" 
d="M326 -135q0 -27 -16 -47.5t-33 -20.5q-4 0 -12 4l-10 6q20 22 20 42q0 47 -78 60q6 50 25 87q-82 17 -127 83.5t-45 173.5q0 101 66 167.5t164 66.5q65 0 109.5 -32t44.5 -92q0 -20 -8.5 -31.5t-22.5 -11.5h-19v17q0 50 -30 74.5t-78 24.5q-74 0 -121 -54t-47 -129
q0 -96 46.5 -152.5t142.5 -56.5q66 0 121 26v-20q0 -28 -43.5 -44t-97.5 -16q-16 0 -23 1q-10 -25 -13 -41q85 -21 85 -85z" />
    <glyph glyph-name="egrave" unicode="&#xe8;" horiz-adv-x="499" 
d="M423 70v-22q0 -26 -44 -42t-102 -16q-105 0 -166 68t-61 194q0 101 59 168t152 67q92 0 142.5 -59.5t50.5 -154.5q0 -59 -66 -59h-278q17 -170 191 -170q62 0 122 26zM260 436q-72 0 -111 -50t-41 -126h256q31 0 31 34q0 64 -36 103t-99 39zM126 660q6 37 37 68l174 -129
l-16 -31h-8z" />
    <glyph glyph-name="eacute" unicode="&#xe9;" horiz-adv-x="499" 
d="M423 70v-22q0 -26 -44 -42t-102 -16q-105 0 -166 68t-61 194q0 101 59 168t152 67q92 0 142.5 -59.5t50.5 -154.5q0 -59 -66 -59h-278q17 -170 191 -170q62 0 122 26zM260 436q-72 0 -111 -50t-41 -126h256q31 0 31 34q0 64 -36 103t-99 39zM405 660l-188 -92h-7l-16 31
l174 129q29 -29 37 -68z" />
    <glyph glyph-name="ecircumflex" unicode="&#xea;" horiz-adv-x="499" 
d="M423 70v-22q0 -26 -44 -42t-102 -16q-105 0 -166 68t-61 194q0 101 59 168t152 67q92 0 142.5 -59.5t50.5 -154.5q0 -59 -66 -59h-278q17 -170 191 -170q62 0 122 26zM260 436q-72 0 -111 -50t-41 -126h256q31 0 31 34q0 64 -36 103t-99 39zM421 604l-23 -25h-7l-127 93
l-127 -93h-7l-23 25l101 106q56 12 112 0z" />
    <glyph glyph-name="edieresis" unicode="&#xeb;" horiz-adv-x="499" 
d="M423 70v-22q0 -26 -44 -42t-102 -16q-105 0 -166 68t-61 194q0 101 59 168t152 67q92 0 142.5 -59.5t50.5 -154.5q0 -59 -66 -59h-278q17 -170 191 -170q62 0 122 26zM260 436q-72 0 -111 -50t-41 -126h256q31 0 31 34q0 64 -36 103t-99 39zM398 644q0 -44 -42 -44
t-42 44q0 43 42 43t42 -43zM221 644q0 -44 -42 -44t-42 44q0 43 42 43t42 -43z" />
    <glyph glyph-name="igrave" unicode="&#xec;" horiz-adv-x="205" 
d="M130 0h-55v448q0 22 8.5 26.5t46.5 4.5v-479zM-31 660q6 37 37 68l174 -129l-16 -31h-8z" />
    <glyph glyph-name="iacute" unicode="&#xed;" horiz-adv-x="205" 
d="M247 660l-188 -92h-7l-16 31l174 129q29 -29 37 -68zM130 0h-55v448q0 22 8.5 26.5t46.5 4.5v-479z" />
    <glyph glyph-name="icircumflex" unicode="&#xee;" horiz-adv-x="205" 
d="M130 0h-55v448q0 22 8.5 26.5t46.5 4.5v-479zM263 604l-23 -25h-7l-127 93l-127 -93h-7l-23 25l101 106q56 12 112 0z" />
    <glyph glyph-name="idieresis" unicode="&#xef;" horiz-adv-x="205" 
d="M60 644q0 -44 -42 -44t-42 44q0 43 42 43t42 -43zM237 644q0 -44 -42 -44t-42 44q0 43 42 43t42 -43zM130 0h-55v448q0 22 8.5 26.5t46.5 4.5v-479z" />
    <glyph glyph-name="eth" unicode="&#xf0;" horiz-adv-x="516" 
d="M153 459l-20 42l125 63q-61 32 -142 41q4 30 9.5 39.5t21.5 7.5q97 -11 169 -59l101 51l20 -42l-80 -41q108 -102 108 -289q0 -128 -59 -205t-160 -77q-87 0 -142.5 58.5t-55.5 159.5q0 92 53.5 144.5t132.5 52.5q56 0 102.5 -28t66.5 -79q-5 154 -102 235zM400 202
q0 67 -44.5 109.5t-111.5 42.5q-63 0 -100 -39t-37 -107q0 -77 39 -121t103 -44q69 0 110 47t41 112z" />
    <glyph glyph-name="ntilde" unicode="&#xf1;" horiz-adv-x="546" 
d="M477 28q0 -22 -8.5 -26.5t-45.5 -4.5v294q0 70 -35 107t-93 37q-65 0 -115 -47t-50 -131v-257h-55v448q0 22 8.5 26.5t46.5 4.5v-105q27 55 78 84t108 29q73 0 117 -44t44 -126v-289zM442 674q0 -37 -25 -63.5t-63 -26.5q-32 0 -74.5 32.5t-66.5 32.5q-22 0 -36.5 -18.5
t-14.5 -47.5q-20 0 -29 7.5t-9 25.5q0 37 24.5 62t62.5 25q33 0 75 -32t66 -32q22 0 36.5 18t14.5 47q21 0 30 -6.5t9 -23.5z" />
    <glyph glyph-name="ograve" unicode="&#xf2;" horiz-adv-x="540" 
d="M490 249q0 -114 -61.5 -186.5t-158.5 -72.5t-158.5 72.5t-61.5 186.5t58 176t162 62t162 -62t58 -176zM432 249q0 88 -41.5 137.5t-120.5 49.5t-120.5 -49.5t-41.5 -137.5q0 -87 44.5 -146.5t117.5 -59.5t117.5 59.5t44.5 146.5zM141 660q6 37 37 68l174 -129l-16 -31h-8
z" />
    <glyph glyph-name="oacute" unicode="&#xf3;" horiz-adv-x="540" 
d="M406 660l-188 -92h-7l-16 31l174 129q29 -29 37 -68zM490 249q0 -114 -61.5 -186.5t-158.5 -72.5t-158.5 72.5t-61.5 186.5t58 176t162 62t162 -62t58 -176zM432 249q0 88 -41.5 137.5t-120.5 49.5t-120.5 -49.5t-41.5 -137.5q0 -87 44.5 -146.5t117.5 -59.5t117.5 59.5
t44.5 146.5z" />
    <glyph glyph-name="ocircumflex" unicode="&#xf4;" horiz-adv-x="540" 
d="M490 249q0 -114 -61.5 -186.5t-158.5 -72.5t-158.5 72.5t-61.5 186.5t58 176t162 62t162 -62t58 -176zM432 249q0 88 -41.5 137.5t-120.5 49.5t-120.5 -49.5t-41.5 -137.5q0 -87 44.5 -146.5t117.5 -59.5t117.5 59.5t44.5 146.5zM430 604l-23 -25h-7l-127 93l-127 -93h-7
l-23 25l101 106q56 12 112 0z" />
    <glyph glyph-name="otilde" unicode="&#xf5;" horiz-adv-x="540" 
d="M490 249q0 -114 -61.5 -186.5t-158.5 -72.5t-158.5 72.5t-61.5 186.5t58 176t162 62t162 -62t58 -176zM432 249q0 88 -41.5 137.5t-120.5 49.5t-120.5 -49.5t-41.5 -137.5q0 -87 44.5 -146.5t117.5 -59.5t117.5 59.5t44.5 146.5zM435 674q0 -37 -25 -63.5t-63 -26.5
q-32 0 -74.5 32.5t-66.5 32.5q-22 0 -36.5 -18.5t-14.5 -47.5q-20 0 -29 7.5t-9 25.5q0 37 24.5 62t62.5 25q32 0 75 -32t66 -32q22 0 36.5 18t14.5 47q21 0 30 -6.5t9 -23.5z" />
    <glyph glyph-name="odieresis" unicode="&#xf6;" horiz-adv-x="540" 
d="M229 644q0 -44 -42 -44t-42 44q0 43 42 43t42 -43zM406 644q0 -44 -42 -44t-42 44q0 43 42 43t42 -43zM490 249q0 -114 -61.5 -186.5t-158.5 -72.5t-158.5 72.5t-61.5 186.5t58 176t162 62t162 -62t58 -176zM432 249q0 88 -41.5 137.5t-120.5 49.5t-120.5 -49.5
t-41.5 -137.5q0 -87 44.5 -146.5t117.5 -59.5t117.5 59.5t44.5 146.5z" />
    <glyph glyph-name="divide" unicode="&#xf7;" 
d="M457 266v-50h-413v50h413zM252 352q-44 0 -44 45t44 45q42 0 42 -45t-42 -45zM252 40q-44 0 -44 45t44 45q42 0 42 -45t-42 -45z" />
    <glyph glyph-name="oslash" unicode="&#xf8;" horiz-adv-x="540" 
d="M460 572l-59 -121q89 -61 89 -202q0 -114 -61.5 -186.5t-158.5 -72.5q-45 0 -84 17l-56 -115l-44 22l57 118q-93 72 -93 217q0 114 58 176t162 62q47 0 87 -14l59 121zM108 249q0 -106 61 -165l165 341q-30 11 -64 11q-79 0 -120.5 -49.5t-41.5 -137.5zM432 249
q0 102 -55 151l-168 -344q26 -13 61 -13q73 0 117.5 59.5t44.5 146.5z" />
    <glyph glyph-name="ugrave" unicode="&#xf9;" horiz-adv-x="540" 
d="M466 196q0 -100 -54.5 -153t-144.5 -53q-88 0 -141 53t-53 153v252q0 22 8.5 26.5t46.5 4.5v-272q0 -79 35.5 -120.5t103.5 -41.5q70 0 107.5 42t37.5 120v270h54v-281zM133 660q6 37 37 68l174 -129l-16 -31h-8z" />
    <glyph glyph-name="uacute" unicode="&#xfa;" horiz-adv-x="540" 
d="M418 660l-188 -92h-7l-16 31l174 129q29 -29 37 -68zM466 196q0 -100 -54.5 -153t-144.5 -53q-88 0 -141 53t-53 153v252q0 22 8.5 26.5t46.5 4.5v-272q0 -79 35.5 -120.5t103.5 -41.5q70 0 107.5 42t37.5 120v270h54v-281z" />
    <glyph glyph-name="ucircumflex" unicode="&#xfb;" horiz-adv-x="540" 
d="M466 196q0 -100 -54.5 -153t-144.5 -53q-88 0 -141 53t-53 153v252q0 22 8.5 26.5t46.5 4.5v-272q0 -79 35.5 -120.5t103.5 -41.5q70 0 107.5 42t37.5 120v270h54v-281zM436 604l-23 -25h-7l-127 93l-127 -93h-7l-23 25l101 106q56 12 112 0z" />
    <glyph glyph-name="udieresis" unicode="&#xfc;" horiz-adv-x="540" 
d="M229 644q0 -44 -42 -44t-42 44q0 43 42 43t42 -43zM406 644q0 -44 -42 -44t-42 44q0 43 42 43t42 -43zM466 196q0 -100 -54.5 -153t-144.5 -53q-88 0 -141 53t-53 153v252q0 22 8.5 26.5t46.5 4.5v-272q0 -79 35.5 -120.5t103.5 -41.5q70 0 107.5 42t37.5 120v270h54
v-281z" />
    <glyph glyph-name="yacute" unicode="&#xfd;" 
d="M476 477v-9l-175 -462q-7 -93 -44 -137t-95 -44q-28 0 -47.5 10.5t-19.5 30.5v21q28 -7 47 -7q89 0 101 119q-140 242 -217 478h66q57 -189 177 -406l147 406h60zM403 660l-188 -92h-7l-16 31l174 129q29 -29 37 -68z" />
    <glyph glyph-name="thorn" unicode="&#xfe;" horiz-adv-x="558" 
d="M508 262q0 -111 -62 -191.5t-161 -80.5q-109 0 -155 93v-248h-55v782q0 22 8.5 26.5t46.5 4.5v-304q27 67 77.5 105t116.5 38q87 0 135.5 -62.5t48.5 -162.5zM450 262q0 75 -35.5 124.5t-104.5 49.5q-77 0 -125 -66.5t-48 -167.5q0 -63 38 -111t101 -48q81 0 127.5 65.5
t46.5 153.5z" />
    <glyph glyph-name="ydieresis" unicode="&#xff;" 
d="M476 477v-9l-175 -462q-7 -93 -44 -137t-95 -44q-28 0 -47.5 10.5t-19.5 30.5v21q28 -7 47 -7q89 0 101 119q-140 242 -217 478h66q57 -189 177 -406l147 406h60zM210 644q0 -44 -42 -44t-42 44q0 43 42 43t42 -43zM387 644q0 -44 -42 -44t-42 44q0 43 42 43t42 -43z" />
    <glyph glyph-name="Amacron" unicode="&#x100;" horiz-adv-x="654" 
d="M618 0h-68l-61 159h-329q-27 -78 -51 -159h-67q94 301 239 578q17 35 10 53q32 19 71 21l256 -643v-9zM470 216l-135 348q-89 -167 -156 -348h291zM472 802v-54h-278v54h278z" />
    <glyph glyph-name="amacron" unicode="&#x101;" horiz-adv-x="495" 
d="M43 130q0 116 167 135l146 18l-1 23q-8 128 -143 128q-60 0 -127 -31v20q0 26 47.5 45t100.5 19q166 0 178 -174l20 -285q1 -21 -9 -26t-48 -5l-8 134q-56 -141 -184 -141q-67 0 -103 41.5t-36 98.5zM108 131q0 -42 24 -68.5t68 -26.5q64 0 107.5 59t48.5 144l-141 -18
q-107 -12 -107 -90zM389 670v-53h-278v53h278z" />
    <glyph glyph-name="Abreve" unicode="&#x102;" horiz-adv-x="654" 
d="M618 0h-68l-61 159h-329q-27 -78 -51 -159h-67q94 301 239 578q17 35 10 53q32 19 71 21l256 -643v-9zM470 216l-135 348q-89 -167 -156 -348h291zM333 707q-66 0 -105 36t-39 87q0 27 35 27q0 -46 32 -70.5t77 -24.5q44 0 76 24.5t32 70.5q36 0 36 -27q0 -51 -39.5 -87
t-104.5 -36z" />
    <glyph glyph-name="abreve" unicode="&#x103;" horiz-adv-x="495" 
d="M43 130q0 116 167 135l146 18l-1 23q-8 128 -143 128q-60 0 -127 -31v20q0 26 47.5 45t100.5 19q166 0 178 -174l20 -285q1 -21 -9 -26t-48 -5l-8 134q-56 -141 -184 -141q-67 0 -103 41.5t-36 98.5zM108 131q0 -42 24 -68.5t68 -26.5q64 0 107.5 59t48.5 144l-141 -18
q-107 -12 -107 -90zM252 575q-66 0 -105 36.5t-39 87.5q0 27 35 27q0 -46 32 -70.5t77 -24.5q44 0 76 24.5t32 70.5q36 0 36 -27q0 -51 -39.5 -87.5t-104.5 -36.5z" />
    <glyph glyph-name="Aogonek" unicode="&#x104;" horiz-adv-x="654" 
d="M608 -151v-13q0 -17 -22 -27t-52 -10q-36 0 -58 19.5t-22 54.5q0 41 29.5 78.5t63.5 56.5l-58 151h-329q-27 -78 -51 -159h-67q94 301 239 578q17 35 10 53q32 19 71 21l256 -643v-9h-27q-44 -30 -65.5 -55.5t-21.5 -57.5q0 -49 53 -49q24 0 51 11zM470 216l-135 348
q-89 -167 -156 -348h291z" />
    <glyph glyph-name="aogonek" unicode="&#x105;" horiz-adv-x="495" 
d="M43 130q0 116 167 135l146 18l-1 23q-8 128 -143 128q-60 0 -127 -31v20q0 26 47.5 45t100.5 19q166 0 178 -174l20 -285q1 -16 -4 -22.5t-19 -7.5q-42 -28 -63 -54t-21 -57q0 -49 53 -49q25 0 50 11v-13q0 -17 -21.5 -27t-51.5 -10q-36 0 -58 19.5t-22 54.5
q0 43 32.5 83t66.5 56l-7 119q-56 -141 -184 -141q-67 0 -103 41.5t-36 98.5zM108 131q0 -42 24 -68.5t68 -26.5q64 0 107.5 59t48.5 144l-141 -18q-107 -12 -107 -90z" />
    <glyph glyph-name="Cacute" unicode="&#x106;" horiz-adv-x="618" 
d="M549 90v-21q0 -38 -55.5 -58.5t-130.5 -20.5q-143 0 -224 92t-81 257q0 136 84 225.5t217 89.5q90 0 149 -43t59 -114q0 -22 -11 -35t-27 -13h-20v18q0 61 -42 95t-111 34q-103 0 -169.5 -74.5t-66.5 -182.5q0 -131 66 -210t193 -79q90 0 170 40zM494 792l-188 -92h-7
l-16 31l174 128q29 -29 37 -67z" />
    <glyph glyph-name="cacute" unicode="&#x107;" horiz-adv-x="479" 
d="M414 660l-188 -92h-7l-16 31l174 129q29 -29 37 -68zM418 70v-20q0 -28 -43.5 -44t-97.5 -16q-106 0 -166.5 70t-60.5 193q0 101 66 167.5t164 66.5q65 0 109.5 -32t44.5 -92q0 -20 -8.5 -31.5t-22.5 -11.5h-19v17q0 50 -30 74.5t-78 24.5q-74 0 -121 -54t-47 -129
q0 -96 46.5 -152.5t142.5 -56.5q66 0 121 26z" />
    <glyph glyph-name="Ccircumflex" unicode="&#x108;" horiz-adv-x="618" 
d="M549 90v-21q0 -38 -55.5 -58.5t-130.5 -20.5q-143 0 -224 92t-81 257q0 136 84 225.5t217 89.5q90 0 149 -43t59 -114q0 -22 -11 -35t-27 -13h-20v18q0 61 -42 95t-111 34q-103 0 -169.5 -74.5t-66.5 -182.5q0 -131 66 -210t193 -79q90 0 170 40zM515 736l-23 -25h-7
l-127 93l-127 -93h-7l-23 25l101 106q56 12 112 0z" />
    <glyph glyph-name="ccircumflex" unicode="&#x109;" horiz-adv-x="479" 
d="M418 70v-20q0 -28 -43.5 -44t-97.5 -16q-106 0 -166.5 70t-60.5 193q0 101 66 167.5t164 66.5q65 0 109.5 -32t44.5 -92q0 -20 -8.5 -31.5t-22.5 -11.5h-19v17q0 50 -30 74.5t-78 24.5q-74 0 -121 -54t-47 -129q0 -96 46.5 -152.5t142.5 -56.5q66 0 121 26zM427 604
l-23 -25h-7l-127 93l-127 -93h-7l-23 25l101 106q56 12 112 0z" />
    <glyph glyph-name="Cdotaccent" unicode="&#x10a;" horiz-adv-x="618" 
d="M390 775q0 -41 -39 -41q-40 0 -40 41t40 41q39 0 39 -41zM549 90v-21q0 -38 -55.5 -58.5t-130.5 -20.5q-143 0 -224 92t-81 257q0 136 84 225.5t217 89.5q90 0 149 -43t59 -114q0 -22 -11 -35t-27 -13h-20v18q0 61 -42 95t-111 34q-103 0 -169.5 -74.5t-66.5 -182.5
q0 -131 66 -210t193 -79q90 0 170 40z" />
    <glyph glyph-name="cdotaccent" unicode="&#x10b;" horiz-adv-x="479" 
d="M418 70v-20q0 -28 -43.5 -44t-97.5 -16q-106 0 -166.5 70t-60.5 193q0 101 66 167.5t164 66.5q65 0 109.5 -32t44.5 -92q0 -20 -8.5 -31.5t-22.5 -11.5h-19v17q0 50 -30 74.5t-78 24.5q-74 0 -121 -54t-47 -129q0 -96 46.5 -152.5t142.5 -56.5q66 0 121 26zM307 644
q0 -42 -39 -42q-40 0 -40 42q0 41 40 41q39 0 39 -41z" />
    <glyph glyph-name="Ccaron" unicode="&#x10c;" horiz-adv-x="618" 
d="M549 90v-21q0 -38 -55.5 -58.5t-130.5 -20.5q-143 0 -224 92t-81 257q0 136 84 225.5t217 89.5q90 0 149 -43t59 -114q0 -22 -11 -35t-27 -13h-20v18q0 61 -42 95t-111 34q-103 0 -169.5 -74.5t-66.5 -182.5q0 -131 66 -210t193 -79q90 0 170 40zM515 824l-101 -107
q-56 -10 -112 0l-101 107l23 25h7l127 -94l127 94h7z" />
    <glyph glyph-name="ccaron" unicode="&#x10d;" horiz-adv-x="479" 
d="M418 70v-20q0 -28 -43.5 -44t-97.5 -16q-106 0 -166.5 70t-60.5 193q0 101 66 167.5t164 66.5q65 0 109.5 -32t44.5 -92q0 -20 -8.5 -31.5t-22.5 -11.5h-19v17q0 50 -30 74.5t-78 24.5q-74 0 -121 -54t-47 -129q0 -96 46.5 -152.5t142.5 -56.5q66 0 121 26zM425 692
l-101 -107q-56 -10 -112 0l-101 107l23 25h7l127 -94l127 94h7z" />
    <glyph glyph-name="Dcaron" unicode="&#x10e;" horiz-adv-x="671" 
d="M613 345q0 -156 -93 -250.5t-228 -94.5h-59q-71 0 -103.5 32t-32.5 108v446h-56q0 18 0.5 26t2.5 17t6.5 12t12.5 3h236q138 0 226 -75.5t88 -223.5zM290 586h-135v-440q0 -45 19.5 -66.5t63.5 -21.5h52q110 0 185.5 76t75.5 211q0 124 -72.5 182.5t-188.5 58.5zM469 824
l-101 -107q-56 -10 -112 0l-101 107l23 25h7l127 -94l127 94h7z" />
    <glyph glyph-name="dcaron" unicode="&#x10f;" horiz-adv-x="557" 
d="M50 215q0 111 61.5 191.5t159.5 80.5q108 0 156 -92v249h54v-616q0 -22 -8.5 -26.5t-45.5 -4.5v138q-28 -67 -79.5 -106t-116.5 -39q-84 0 -132.5 63t-48.5 162zM108 215q0 -74 35.5 -123t99.5 -49q76 0 126.5 66.5t50.5 165.5q0 65 -36 113t-103 48q-81 0 -127 -66
t-46 -155zM643 721l-64 -188h-32l-3 9l25 197q37 3 74 -18z" />
    <glyph glyph-name="Dcroat" unicode="&#x110;" horiz-adv-x="697" 
d="M640 345q0 -156 -93.5 -250.5t-228.5 -94.5h-58q-72 0 -104.5 32.5t-32.5 107.5v152h-102v54h102v240h-56q0 23 1 33.5t6 17.5t16 7h236q138 0 226 -75.5t88 -223.5zM352 292h-171v-146q0 -45 20 -66.5t64 -21.5h51q111 0 186.5 76t75.5 211q0 124 -72.5 182.5
t-189.5 58.5h-135v-240h171v-54z" />
    <glyph glyph-name="dcroat" unicode="&#x111;" horiz-adv-x="563" 
d="M50 198q0 102 62 177t160 75q108 0 155 -87v160h-170v45h170v76h54v-76h79v-45h-79v-495q0 -22 -8.5 -26.5t-45.5 -4.5v130q-29 -63 -82 -100t-117 -37q-82 0 -130 58.5t-48 149.5zM108 199q0 -67 34.5 -111.5t96.5 -44.5q76 0 128.5 61t52.5 147q0 61 -36 104.5
t-103 43.5q-81 0 -127 -60t-46 -140z" />
    <glyph glyph-name="Emacron" unicode="&#x112;" horiz-adv-x="510" 
d="M459 58v-58h-245q-71 0 -100 28.5t-29 99.5v484q0 23 9.5 27.5t49.5 4.5h286q8 0 12.5 -3t6.5 -12t2.5 -17t0.5 -26h-308v-246h253v-56h-253v-149q0 -41 18.5 -59t60.5 -18h236zM410 802v-54h-278v54h278z" />
    <glyph glyph-name="emacron" unicode="&#x113;" horiz-adv-x="499" 
d="M423 70v-22q0 -26 -44 -42t-102 -16q-105 0 -166 68t-61 194q0 101 59 168t152 67q92 0 142.5 -59.5t50.5 -154.5q0 -59 -66 -59h-278q17 -170 191 -170q62 0 122 26zM260 436q-72 0 -111 -50t-41 -126h256q31 0 31 34q0 64 -36 103t-99 39zM401 670v-53h-278v53h278z
" />
    <glyph glyph-name="Ebreve" unicode="&#x114;" horiz-adv-x="510" 
d="M459 58v-58h-245q-71 0 -100 28.5t-29 99.5v484q0 23 9.5 27.5t49.5 4.5h286q8 0 12.5 -3t6.5 -12t2.5 -17t0.5 -26h-308v-246h253v-56h-253v-149q0 -41 18.5 -59t60.5 -18h236zM274 707q-66 0 -105 36t-39 87q0 27 35 27q0 -46 32 -70.5t77 -24.5q44 0 76 24.5t32 70.5
q36 0 36 -27q0 -51 -39.5 -87t-104.5 -36z" />
    <glyph glyph-name="ebreve" unicode="&#x115;" horiz-adv-x="499" 
d="M423 70v-22q0 -26 -44 -42t-102 -16q-105 0 -166 68t-61 194q0 101 59 168t152 67q92 0 142.5 -59.5t50.5 -154.5q0 -59 -66 -59h-278q17 -170 191 -170q62 0 122 26zM260 436q-72 0 -111 -50t-41 -126h256q31 0 31 34q0 64 -36 103t-99 39zM263 575q-66 0 -105 36.5
t-39 87.5q0 27 35 27q0 -46 32 -70.5t77 -24.5q44 0 76 24.5t32 70.5q36 0 36 -27q0 -51 -39.5 -87.5t-104.5 -36.5z" />
    <glyph glyph-name="Edotaccent" unicode="&#x116;" horiz-adv-x="510" 
d="M459 58v-58h-245q-71 0 -100 28.5t-29 99.5v484q0 23 9.5 27.5t49.5 4.5h286q8 0 12.5 -3t6.5 -12t2.5 -17t0.5 -26h-308v-246h253v-56h-253v-149q0 -41 18.5 -59t60.5 -18h236zM313 775q0 -41 -39 -41q-40 0 -40 41t40 41q39 0 39 -41z" />
    <glyph glyph-name="edotaccent" unicode="&#x117;" horiz-adv-x="499" 
d="M423 70v-22q0 -26 -44 -42t-102 -16q-105 0 -166 68t-61 194q0 101 59 168t152 67q92 0 142.5 -59.5t50.5 -154.5q0 -59 -66 -59h-278q17 -170 191 -170q62 0 122 26zM260 436q-72 0 -111 -50t-41 -126h256q31 0 31 34q0 64 -36 103t-99 39zM300 644q0 -42 -39 -42
q-40 0 -40 42q0 41 40 41q39 0 39 -41z" />
    <glyph glyph-name="Eogonek" unicode="&#x118;" horiz-adv-x="510" 
d="M453 -151v-13q0 -17 -22 -27t-52 -10q-36 0 -57.5 19.5t-21.5 54.5q0 36 24 70.5t55 56.5h-165q-71 0 -100 28.5t-29 99.5v484q0 23 9.5 27.5t49.5 4.5h286q8 0 12.5 -3t6.5 -12t2.5 -17t0.5 -26h-308v-246h253v-56h-253v-149q0 -41 18.5 -59t60.5 -18h236v-58h-23
q-44 -30 -65.5 -55.5t-21.5 -57.5q0 -49 54 -49q23 0 50 11z" />
    <glyph glyph-name="eogonek" unicode="&#x119;" horiz-adv-x="499" 
d="M404 -151v-13q0 -17 -22 -27t-52 -10q-36 0 -58 21t-22 57q0 63 55 114q-5 0 -14 -0.5t-14 -0.5q-105 0 -166 68t-61 194q0 101 59 168t152 67q92 0 142.5 -59.5t50.5 -154.5q0 -59 -66 -59h-278q17 -170 191 -170q62 0 122 26v-22q0 -25 -43 -42q-80 -56 -80 -115
q0 -26 14.5 -39.5t38.5 -13.5t51 11zM260 436q-72 0 -111 -50t-41 -126h256q31 0 31 34q0 64 -36 103t-99 39z" />
    <glyph glyph-name="Ecaron" unicode="&#x11a;" horiz-adv-x="510" 
d="M459 58v-58h-245q-71 0 -100 28.5t-29 99.5v484q0 23 9.5 27.5t49.5 4.5h286q8 0 12.5 -3t6.5 -12t2.5 -17t0.5 -26h-308v-246h253v-56h-253v-149q0 -41 18.5 -59t60.5 -18h236zM432 824l-101 -107q-56 -10 -112 0l-101 107l23 25h7l127 -94l127 94h7z" />
    <glyph glyph-name="ecaron" unicode="&#x11b;" horiz-adv-x="499" 
d="M423 70v-22q0 -26 -44 -42t-102 -16q-105 0 -166 68t-61 194q0 101 59 168t152 67q92 0 142.5 -59.5t50.5 -154.5q0 -59 -66 -59h-278q17 -170 191 -170q62 0 122 26zM260 436q-72 0 -111 -50t-41 -126h256q31 0 31 34q0 64 -36 103t-99 39zM420 692l-101 -107
q-56 -10 -112 0l-101 107l23 25h7l127 -94l127 94h7z" />
    <glyph glyph-name="Gcircumflex" unicode="&#x11c;" horiz-adv-x="678" 
d="M644 212h-101v-148q0 -35 -57.5 -54.5t-127.5 -19.5q-141 0 -220.5 93.5t-79.5 255.5q0 136 83.5 225.5t218.5 89.5q93 0 151 -41t58 -111q0 -23 -11 -38t-27 -15h-20v18q0 61 -41.5 95t-111.5 34q-108 0 -173 -73.5t-65 -183.5q0 -133 65 -212.5t192 -79.5q58 0 108 19
v171q0 22 9.5 26.5t49.5 4.5h100v-56zM512 736l-23 -25h-7l-127 93l-127 -93h-7l-23 25l101 106q56 12 112 0z" />
    <glyph glyph-name="gcircumflex" unicode="&#x11d;" horiz-adv-x="478" 
d="M445 -26q0 -51 -35.5 -86t-84.5 -49t-107 -14q-85 0 -138.5 30t-53.5 89q0 76 86 103q-42 23 -42 67q0 58 71 78q-87 40 -87 137q0 73 50 115.5t128 42.5q33 0 66 -10q-1 5 -1 14q0 60 58 90l-123 91l-127 -93h-7l-23 25l101 106q56 12 112 0l101 -106l-13 -14
q29 10 61 10q17 0 21.5 -12t4.5 -47q-50 3 -90 -15.5t-40 -47.5q0 -12 6 -19q72 -43 72 -130q0 -71 -51.5 -113.5t-127.5 -42.5q-112 -2 -112 -47q0 -21 21 -33.5t60 -12.5h75q169 0 169 -106zM357 326q0 49 -34.5 79.5t-90.5 30.5q-57 0 -90.5 -29.5t-33.5 -80.5
q0 -50 35.5 -79.5t88.5 -29.5t89 31t36 78zM264 32h-60q-57 0 -89.5 -22t-32.5 -57q0 -42 38.5 -63.5t101.5 -21.5q69 0 117 25t48 72q0 67 -123 67z" />
    <glyph glyph-name="Gbreve" unicode="&#x11e;" horiz-adv-x="678" 
d="M354 707q-66 0 -105 36t-39 87q0 27 35 27q0 -46 32 -70.5t77 -24.5q44 0 76 24.5t32 70.5q36 0 36 -27q0 -51 -39.5 -87t-104.5 -36zM644 212h-101v-148q0 -35 -57.5 -54.5t-127.5 -19.5q-141 0 -220.5 93.5t-79.5 255.5q0 136 83.5 225.5t218.5 89.5q93 0 151 -41
t58 -111q0 -23 -11 -38t-27 -15h-20v18q0 61 -41.5 95t-111.5 34q-108 0 -173 -73.5t-65 -183.5q0 -133 65 -212.5t192 -79.5q58 0 108 19v171q0 22 9.5 26.5t49.5 4.5h100v-56z" />
    <glyph glyph-name="gbreve" unicode="&#x11f;" horiz-adv-x="478" 
d="M463 541q-50 3 -90 -15.5t-40 -47.5q0 -12 6 -19q72 -43 72 -130q0 -71 -51.5 -113.5t-127.5 -42.5q-112 -2 -112 -47q0 -21 21 -33.5t60 -12.5h75q169 0 169 -106q0 -51 -35.5 -86t-84.5 -49t-107 -14q-85 0 -138.5 30t-53.5 89q0 76 86 103q-42 23 -42 67q0 58 71 78
q-87 40 -87 137q0 73 50 115.5t128 42.5q33 0 66 -10q-1 5 -1 14q0 54 43 81.5t97 27.5q17 0 21.5 -12t4.5 -47zM357 326q0 49 -34.5 79.5t-90.5 30.5q-57 0 -90.5 -29.5t-33.5 -80.5q0 -50 35.5 -79.5t88.5 -29.5t89 31t36 78zM264 32h-66q-55 -1 -85.5 -23t-30.5 -56
q0 -42 38.5 -63.5t101.5 -21.5q69 0 117 25t48 72q0 67 -123 67zM234 575q-66 0 -105 36.5t-39 87.5q0 27 35 27q0 -46 32 -70.5t77 -24.5q44 0 76 24.5t32 70.5q36 0 36 -27q0 -51 -39.5 -87.5t-104.5 -36.5z" />
    <glyph glyph-name="Gdotaccent" unicode="&#x120;" horiz-adv-x="678" 
d="M389 775q0 -41 -39 -41q-40 0 -40 41t40 41q39 0 39 -41zM644 212h-101v-148q0 -35 -57.5 -54.5t-127.5 -19.5q-141 0 -220.5 93.5t-79.5 255.5q0 136 83.5 225.5t218.5 89.5q93 0 151 -41t58 -111q0 -23 -11 -38t-27 -15h-20v18q0 61 -41.5 95t-111.5 34
q-108 0 -173 -73.5t-65 -183.5q0 -133 65 -212.5t192 -79.5q58 0 108 19v171q0 22 9.5 26.5t49.5 4.5h100v-56z" />
    <glyph glyph-name="gdotaccent" unicode="&#x121;" horiz-adv-x="478" 
d="M463 541q-50 3 -90 -15.5t-40 -47.5q0 -12 6 -19q72 -43 72 -130q0 -71 -51.5 -113.5t-127.5 -42.5q-112 -2 -112 -47q0 -21 21 -33.5t60 -12.5h75q169 0 169 -106q0 -51 -35.5 -86t-84.5 -49t-107 -14q-85 0 -138.5 30t-53.5 89q0 76 86 103q-42 23 -42 67q0 58 71 78
q-87 40 -87 137q0 73 50 115.5t128 42.5q33 0 66 -10q-1 5 -1 14q0 54 43 81.5t97 27.5q17 0 21.5 -12t4.5 -47zM357 326q0 49 -34.5 79.5t-90.5 30.5q-57 0 -90.5 -29.5t-33.5 -80.5q0 -50 35.5 -79.5t88.5 -29.5t89 31t36 78zM264 32h-66q-55 -1 -85.5 -23t-30.5 -56
q0 -42 38.5 -63.5t101.5 -21.5q69 0 117 25t48 72q0 67 -123 67zM274 644q0 -42 -39 -42q-40 0 -40 42q0 41 40 41q39 0 39 -41z" />
    <glyph glyph-name="Gcommaaccent" unicode="&#x122;" horiz-adv-x="678" 
d="M396 -124q0 -33 -22 -54.5t-56 -21.5q-22 0 -38.5 8t-16.5 24v15q20 -10 39 -10q21 0 34 13t13 35q0 24 -23 47l11 9q14 11 36.5 -11t22.5 -54zM644 212h-101v-148q0 -35 -57.5 -54.5t-127.5 -19.5q-141 0 -220.5 93.5t-79.5 255.5q0 136 83.5 225.5t218.5 89.5
q93 0 151 -41t58 -111q0 -23 -11 -38t-27 -15h-20v18q0 61 -41.5 95t-111.5 34q-108 0 -173 -73.5t-65 -183.5q0 -133 65 -212.5t192 -79.5q58 0 108 19v171q0 22 9.5 26.5t49.5 4.5h100v-56z" />
    <glyph glyph-name="gcommaaccent" unicode="&#x123;" horiz-adv-x="478" 
d="M463 541q-50 3 -90 -15.5t-40 -47.5q0 -12 6 -19q72 -43 72 -130q0 -71 -51.5 -113.5t-127.5 -42.5q-112 -2 -112 -47q0 -21 21 -33.5t60 -12.5h75q169 0 169 -106q0 -51 -35.5 -86t-84.5 -49t-107 -14q-85 0 -138.5 30t-53.5 89q0 76 86 103q-42 23 -42 67q0 58 71 78
q-87 40 -87 137q0 73 50 115.5t128 42.5q33 0 66 -10q-1 5 -1 14q0 54 43 81.5t97 27.5q17 0 21.5 -12t4.5 -47zM357 326q0 49 -34.5 79.5t-90.5 30.5q-57 0 -90.5 -29.5t-33.5 -80.5q0 -50 35.5 -79.5t88.5 -29.5t89 31t36 78zM264 32h-66q-55 -1 -85.5 -23t-30.5 -56
q0 -42 38.5 -63.5t101.5 -21.5q69 0 117 25t48 72q0 67 -123 67zM237 544l-11 -9q-8 -7 -22.5 0.5t-25.5 25.5t-11 39q0 33 22 54.5t56 21.5q22 0 38.5 -8t16.5 -24v-15q-22 9 -39 9q-21 0 -34 -12.5t-13 -34.5q0 -24 23 -47z" />
    <glyph glyph-name="Hcircumflex" unicode="&#x124;" horiz-adv-x="667" 
d="M582 644v-615q0 -22 -10 -27t-48 -5v287h-380v-284h-59v615q0 22 10 27t49 5v-307h380v304h58zM496 736l-23 -25h-7l-127 93l-127 -93h-7l-23 25l101 106q56 12 112 0z" />
    <glyph glyph-name="hcircumflex" unicode="&#x125;" horiz-adv-x="546" 
d="M477 28q0 -22 -8.5 -26.5t-45.5 -4.5v294q0 70 -35 107t-93 37q-65 0 -115 -47t-50 -131v-257h-55v616q0 22 9 26.5t46 4.5v-273q27 55 78 84t108 29q73 0 117 -44t44 -126v-289zM265 703l-23 -25h-7l-127 93l-127 -93h-7l-23 25l101 106q56 12 112 0z" />
    <glyph glyph-name="Hbar" unicode="&#x126;" horiz-adv-x="704" 
d="M598 644v-126h103v-54h-103v-435q0 -22 -10 -27t-48 -5v287h-380v-284h-58v464h-99v54h99v97q0 22 10 27t48 5v-129h380v126h58zM160 464v-124h380v124h-380z" />
    <glyph glyph-name="hbar" unicode="&#x127;" horiz-adv-x="551" 
d="M306 523h-171v-200q27 55 78 84t108 29q73 0 117 -44t44 -126v-238q0 -22 -8.5 -26.5t-45.5 -4.5v243q0 70 -35 107t-93 37q-64 0 -114.5 -47t-50.5 -129v-208h-55v523h-78v45h78v48q0 22 9 26.5t46 4.5v-79h171v-45z" />
    <glyph glyph-name="Itilde" unicode="&#x128;" horiz-adv-x="229" 
d="M144 0h-59v615q0 22 10 27t49 5v-647zM276 805q0 -37 -25 -63.5t-63 -26.5q-32 0 -74.5 32.5t-66.5 32.5q-22 0 -36.5 -18.5t-14.5 -47.5q-38 0 -38 33q0 37 24.5 62.5t62.5 25.5q32 0 74.5 -32.5t66.5 -32.5q22 0 36.5 18.5t14.5 46.5q21 0 30 -6t9 -24z" />
    <glyph glyph-name="itilde" unicode="&#x129;" horiz-adv-x="205" 
d="M130 0h-55v448q0 22 8.5 26.5t46.5 4.5v-479zM264 674q0 -37 -25 -63.5t-63 -26.5q-32 0 -74.5 32.5t-66.5 32.5q-22 0 -36.5 -18.5t-14.5 -47.5q-20 0 -29 7.5t-9 25.5q0 37 24.5 62t62.5 25q33 0 75 -32t66 -32q22 0 36.5 18t14.5 47q21 0 30 -6.5t9 -23.5z" />
    <glyph glyph-name="Imacron" unicode="&#x12a;" horiz-adv-x="229" 
d="M144 0h-59v615q0 22 10 27t49 5v-647zM254 802v-54h-278v54h278z" />
    <glyph glyph-name="imacron" unicode="&#x12b;" horiz-adv-x="205" 
d="M130 0h-55v448q0 22 8.5 26.5t46.5 4.5v-479zM243 670v-53h-278v53h278z" />
    <glyph glyph-name="Ibreve" unicode="&#x12c;" horiz-adv-x="229" 
d="M144 0h-59v615q0 22 10 27t49 5v-647zM115 707q-66 0 -105 36t-39 87q0 27 35 27q0 -46 32 -70.5t77 -24.5q44 0 76 24.5t32 70.5q36 0 36 -27q0 -51 -39.5 -87t-104.5 -36z" />
    <glyph glyph-name="ibreve" unicode="&#x12d;" horiz-adv-x="205" 
d="M130 0h-55v448q0 22 8.5 26.5t46.5 4.5v-479zM104 575q-66 0 -105 36.5t-39 87.5q0 27 35 27q0 -46 32 -70.5t77 -24.5q44 0 76 24.5t32 70.5q36 0 36 -27q0 -51 -39.5 -87.5t-104.5 -36.5z" />
    <glyph glyph-name="Iogonek" unicode="&#x12e;" horiz-adv-x="229" 
d="M184 -151v-13q0 -17 -21.5 -27t-51.5 -10q-36 0 -58 19.5t-22 54.5q0 71 67 127h-13v615q0 22 10 27t49 5v-647h-4q-59 -57 -59 -112q0 -50 53 -50q25 0 50 11z" />
    <glyph glyph-name="iogonek" unicode="&#x12f;" horiz-adv-x="205" 
d="M171 -151v-13q0 -17 -22 -27t-52 -10q-35 0 -57 19.5t-22 54.5q0 71 67 127h-10v448q0 22 8.5 26.5t46.5 4.5v-479h-3q-59 -57 -59 -112q0 -50 53 -50q25 0 50 11zM147 644q0 -44 -42 -44t-42 44t42 44t42 -44z" />
    <glyph glyph-name="Idotaccent" unicode="&#x130;" horiz-adv-x="229" 
d="M144 0h-59v615q0 22 10 27t49 5v-647zM156 775q0 -41 -39 -41q-40 0 -40 41t40 41q39 0 39 -41z" />
    <glyph glyph-name="dotlessi" unicode="&#x131;" horiz-adv-x="205" 
d="M130 0h-55v448q0 22 8.5 26.5t46.5 4.5v-479z" />
    <glyph glyph-name="IJ" unicode="&#x132;" horiz-adv-x="521" 
d="M144 0h-59v615q0 22 10 27t49 5v-647zM436 35q0 -70 -40 -108t-95 -38q-34 0 -56 12t-22 34v21q27 -10 61 -10q41 0 67.5 26t26.5 73v570q0 22 10 27t48 5v-612z" />
    <glyph glyph-name="ij" unicode="&#x133;" horiz-adv-x="421" 
d="M130 0h-55v448q0 22 8.5 26.5t46.5 4.5v-479zM147 644q0 -44 -42 -44t-42 44t42 44t42 -44zM345 479v-557q0 -44 -25 -70.5t-65 -26.5q-55 0 -55 35v25q14 -5 35 -5q25 0 40.5 16.5t15.5 42.5v509q0 22 8.5 26.5t45.5 4.5zM363 644q0 -44 -43 -44q-42 0 -42 44t42 44
q43 0 43 -44z" />
    <glyph glyph-name="Jcircumflex" unicode="&#x134;" horiz-adv-x="292" 
d="M208 35q0 -70 -40 -108t-95 -38q-34 0 -56 12t-22 34v21q27 -10 61 -10q41 0 67.5 26t26.5 73v570q0 22 10 27t48 5v-612zM341 736l-23 -25h-7l-127 93l-127 -93h-7l-23 25l101 106q56 12 112 0z" />
    <glyph glyph-name="jcircumflex" unicode="&#x135;" horiz-adv-x="216" 
d="M140 479v-557q0 -44 -25 -70.5t-65 -26.5q-55 0 -55 35v25q14 -5 35 -5q25 0 40.5 16.5t15.5 42.5v509q0 22 8.5 26.5t45.5 4.5zM273 604l-23 -25h-7l-127 93l-127 -93h-7l-23 25l101 106q56 12 112 0z" />
    <glyph glyph-name="Kcommaaccent" unicode="&#x136;" horiz-adv-x="598" 
d="M567 48v-13q0 -21 -15 -31.5t-36 -10.5q-34 0 -57.5 14t-52.5 54l-172 222h-90v-283h-59v615q0 22 10 27t49 5v-308h84q124 113 245 305h67v-9q-119 -184 -260 -318l176 -218q39 -51 99 -51h12zM333 -124q0 -33 -22 -54.5t-56 -21.5q-22 0 -38.5 8t-16.5 24v15
q20 -10 39 -10q21 0 34 13t13 35q0 24 -23 47l11 9q14 11 36.5 -11t22.5 -54z" />
    <glyph glyph-name="kcommaaccent" unicode="&#x137;" horiz-adv-x="484" 
d="M469 36v-16q0 -13 -14.5 -20t-32.5 -7q-30 0 -48 11t-42 44l-126 159h-76v-207h-55v616q0 22 9 26.5t46 4.5v-392h74q94 83 181 222h62v-9q-93 -140 -194 -233l134 -158q33 -41 73 -41h9zM285 -124q0 -33 -22 -54.5t-56 -21.5q-22 0 -38.5 8t-16.5 24v15q20 -10 39 -10
q21 0 34 13t13 35q0 24 -23 47l11 9q14 11 36.5 -11t22.5 -54z" />
    <glyph glyph-name="Lacute" unicode="&#x139;" horiz-adv-x="477" 
d="M247 792l-188 -92h-7l-16 31l174 128q29 -29 37 -67zM437 0h-223q-71 0 -100 28.5t-29 99.5v487q0 22 10 27t49 5v-512q0 -41 18.5 -59t60.5 -18h214v-58z" />
    <glyph glyph-name="lacute" unicode="&#x13a;" horiz-adv-x="205" 
d="M240 810l-188 -92h-7l-16 31l174 128q29 -29 37 -67zM130 0h-55v649q0 22 8.5 26.5t46.5 4.5v-680z" />
    <glyph glyph-name="Lcommaaccent" unicode="&#x13b;" horiz-adv-x="477" 
d="M310 -124q0 -33 -22 -54.5t-56 -21.5q-22 0 -38.5 8t-16.5 24v15q20 -10 39 -10q21 0 34 13t13 35q0 24 -23 47l11 9q14 11 36.5 -11t22.5 -54zM437 0h-223q-71 0 -100 28.5t-29 99.5v487q0 22 10 27t49 5v-512q0 -41 18.5 -59t60.5 -18h214v-58z" />
    <glyph glyph-name="lcommaaccent" unicode="&#x13c;" horiz-adv-x="205" 
d="M150 -124q0 -33 -22 -54.5t-56 -21.5q-22 0 -38.5 8t-16.5 24v15q20 -10 39 -10q21 0 34 13t13 35q0 24 -23 47l11 9q14 11 36.5 -11t22.5 -54zM130 0h-55v649q0 22 8.5 26.5t46.5 4.5v-680z" />
    <glyph glyph-name="Lcaron" unicode="&#x13d;" horiz-adv-x="477" 
d="M339 721l-64 -188h-32l-3 9l25 197q37 3 74 -18zM437 0h-223q-71 0 -100 28.5t-29 99.5v487q0 22 10 27t49 5v-512q0 -41 18.5 -59t60.5 -18h214v-58z" />
    <glyph glyph-name="lcaron" unicode="&#x13e;" horiz-adv-x="205" 
d="M292 721l-64 -188h-32l-3 9l25 197q37 3 74 -18zM130 0h-55v649q0 22 8.5 26.5t46.5 4.5v-680z" />
    <glyph glyph-name="Ldot" unicode="&#x13f;" horiz-adv-x="477" 
d="M437 0h-223q-71 0 -100 28.5t-29 99.5v487q0 22 10 27t49 5v-512q0 -41 18.5 -59t60.5 -18h214v-58zM395 363q0 -42 -39 -42q-40 0 -40 42q0 41 40 41q39 0 39 -41z" />
    <glyph glyph-name="ldot" unicode="&#x140;" horiz-adv-x="328" 
d="M130 0h-55v649q0 22 8.5 26.5t46.5 4.5v-680zM309 265q0 -42 -39 -42q-40 0 -40 42q0 41 40 41q39 0 39 -41z" />
    <glyph glyph-name="Lslash" unicode="&#x141;" horiz-adv-x="495" 
d="M455 0h-223q-71 0 -100 28.5t-29 99.5v147l-69 -32l-21 49l90 41v282q0 22 10 27t49 5v-287l202 94l21 -49l-223 -103v-167q0 -41 18.5 -59t60.5 -18h214v-58z" />
    <glyph glyph-name="lslash" unicode="&#x142;" horiz-adv-x="292" 
d="M172 0h-55v209l-85 -57l-25 38l110 74v385q0 22 8.5 26.5t46.5 4.5v-378l90 61l25 -39l-115 -78v-246z" />
    <glyph glyph-name="Nacute" unicode="&#x143;" horiz-adv-x="681" 
d="M490 792l-188 -92h-7l-16 31l174 128q29 -29 37 -67zM596 14q-25 -17 -57 -20l-395 547v-541h-59v629q25 17 57 20l396 -545v540h58v-630z" />
    <glyph glyph-name="nacute" unicode="&#x144;" horiz-adv-x="546" 
d="M427 660l-188 -92h-7l-16 31l174 129q29 -29 37 -68zM477 28q0 -22 -8.5 -26.5t-45.5 -4.5v294q0 70 -35 107t-93 37q-65 0 -115 -47t-50 -131v-257h-55v448q0 22 8.5 26.5t46.5 4.5v-105q27 55 78 84t108 29q73 0 117 -44t44 -126v-289z" />
    <glyph glyph-name="Ncommaaccent" unicode="&#x145;" horiz-adv-x="681" 
d="M391 -124q0 -33 -22 -54.5t-56 -21.5q-22 0 -38.5 8t-16.5 24v15q20 -10 39 -10q21 0 34 13t13 35q0 24 -23 47l11 9q14 11 36.5 -11t22.5 -54zM596 14q-25 -17 -57 -20l-395 547v-541h-59v629q25 17 57 20l396 -545v540h58v-630z" />
    <glyph glyph-name="ncommaaccent" unicode="&#x146;" horiz-adv-x="546" 
d="M319 -124q0 -33 -22 -54.5t-56 -21.5q-22 0 -38.5 8t-16.5 24v15q20 -10 39 -10q21 0 34 13t13 35q0 24 -23 47l11 9q14 11 36.5 -11t22.5 -54zM477 28q0 -22 -8.5 -26.5t-45.5 -4.5v294q0 70 -35 107t-93 37q-65 0 -115 -47t-50 -131v-257h-55v448q0 22 8.5 26.5
t46.5 4.5v-105q27 55 78 84t108 29q73 0 117 -44t44 -126v-289z" />
    <glyph glyph-name="Ncaron" unicode="&#x147;" horiz-adv-x="681" 
d="M596 14q-25 -17 -57 -20l-395 547v-541h-59v629q25 17 57 20l396 -545v540h58v-630zM506 824l-101 -107q-56 -10 -112 0l-101 107l23 25h7l127 -94l127 94h7z" />
    <glyph glyph-name="ncaron" unicode="&#x148;" horiz-adv-x="546" 
d="M477 28q0 -22 -8.5 -26.5t-45.5 -4.5v294q0 70 -35 107t-93 37q-65 0 -115 -47t-50 -131v-257h-55v448q0 22 8.5 26.5t46.5 4.5v-105q27 55 78 84t108 29q73 0 117 -44t44 -126v-289zM438 692l-101 -107q-56 -10 -112 0l-101 107l23 25h7l127 -94l127 94h7z" />
    <glyph glyph-name="Eng" unicode="&#x14a;" horiz-adv-x="683" 
d="M620 289q0 -208 -73.5 -336t-190.5 -128q-76 0 -76 45v23q26 -10 61 -10q100 0 158 114t58 292q0 307 -200 307q-88 0 -150.5 -67.5t-62.5 -167.5v-361h-59v615q0 22 10 27t49 5v-143q30 68 89.5 109t138.5 41q248 0 248 -365z" />
    <glyph glyph-name="eng" unicode="&#x14b;" horiz-adv-x="564" 
d="M503 202q0 -162 -54.5 -269.5t-150.5 -107.5q-61 0 -61 36v21q19 -6 42 -6q55 0 93 46.5t54.5 118t16.5 161.5q0 231 -153 231q-62 0 -111 -47t-49 -131v-255h-55v448q0 22 8.5 26.5t46.5 4.5v-106q27 55 75 83.5t101 28.5q197 0 197 -283z" />
    <glyph glyph-name="Omacron" unicode="&#x14c;" horiz-adv-x="701" 
d="M492 802v-54h-278v54h278zM643 341q0 -149 -83.5 -250t-210.5 -101q-125 0 -208 101t-83 250q0 148 78.5 230.5t212.5 82.5q136 0 215 -82.5t79 -230.5zM581 341q0 123 -61.5 190t-170.5 67q-107 0 -168 -68t-61 -189q0 -127 65 -210t164 -83q101 0 166.5 82t65.5 211z
" />
    <glyph glyph-name="omacron" unicode="&#x14d;" horiz-adv-x="540" 
d="M415 670v-53h-278v53h278zM490 249q0 -114 -61.5 -186.5t-158.5 -72.5t-158.5 72.5t-61.5 186.5t58 176t162 62t162 -62t58 -176zM432 249q0 88 -41.5 137.5t-120.5 49.5t-120.5 -49.5t-41.5 -137.5q0 -87 44.5 -146.5t117.5 -59.5t117.5 59.5t44.5 146.5z" />
    <glyph glyph-name="Obreve" unicode="&#x14e;" horiz-adv-x="701" 
d="M353 707q-66 0 -105 36t-39 87q0 27 35 27q0 -46 32 -70.5t77 -24.5q44 0 76 24.5t32 70.5q36 0 36 -27q0 -51 -39.5 -87t-104.5 -36zM643 341q0 -149 -83.5 -250t-210.5 -101q-125 0 -208 101t-83 250q0 148 78.5 230.5t212.5 82.5q136 0 215 -82.5t79 -230.5zM581 341
q0 123 -61.5 190t-170.5 67q-107 0 -168 -68t-61 -189q0 -127 65 -210t164 -83q101 0 166.5 82t65.5 211z" />
    <glyph glyph-name="obreve" unicode="&#x14f;" horiz-adv-x="540" 
d="M490 249q0 -114 -61.5 -186.5t-158.5 -72.5t-158.5 72.5t-61.5 186.5t58 176t162 62t162 -62t58 -176zM432 249q0 88 -41.5 137.5t-120.5 49.5t-120.5 -49.5t-41.5 -137.5q0 -87 44.5 -146.5t117.5 -59.5t117.5 59.5t44.5 146.5zM270 575q-66 0 -105 36.5t-39 87.5
q0 27 35 27q0 -46 32 -70.5t77 -24.5q44 0 76 24.5t32 70.5q36 0 36 -27q0 -51 -39.5 -87.5t-104.5 -36.5z" />
    <glyph glyph-name="Ohungarumlaut" unicode="&#x150;" horiz-adv-x="701" 
d="M643 341q0 -149 -83.5 -250t-210.5 -101q-125 0 -208 101t-83 250q0 148 78.5 230.5t212.5 82.5q136 0 215 -82.5t79 -230.5zM581 341q0 123 -61.5 190t-170.5 67q-107 0 -168 -68t-61 -189q0 -127 65 -210t164 -83q101 0 166.5 82t65.5 211zM376 885l-94 -185h-33l-3 9
l61 206q37 -3 69 -30zM547 885l-93 -185h-34l-3 9l61 206q37 -3 69 -30z" />
    <glyph glyph-name="ohungarumlaut" unicode="&#x151;" horiz-adv-x="540" 
d="M300 754l-94 -186h-33l-3 9l61 207q37 -5 69 -30zM471 754l-93 -186h-34l-3 9l61 207q37 -4 69 -30zM490 249q0 -114 -61.5 -186.5t-158.5 -72.5t-158.5 72.5t-61.5 186.5t58 176t162 62t162 -62t58 -176zM432 249q0 88 -41.5 137.5t-120.5 49.5t-120.5 -49.5
t-41.5 -137.5q0 -87 44.5 -146.5t117.5 -59.5t117.5 59.5t44.5 146.5z" />
    <glyph glyph-name="OE" unicode="&#x152;" horiz-adv-x="1016" 
d="M908 284h-260v-149q0 -41 18.5 -59t60.5 -18h241v-58h-250q-71 0 -99.5 28.5t-28.5 99.5v18q-37 -74 -101.5 -115t-145.5 -41q-121 0 -202.5 98.5t-81.5 245.5q0 151 79.5 235.5t208.5 84.5q172 0 243 -132v90q0 23 9 27.5t49 4.5h293q8 0 12.5 -3t6.5 -12t2.5 -17
t0.5 -26h-315v-246h260v-56zM588 334q0 128 -61.5 196t-172.5 68q-110 0 -172 -68.5t-62 -195.5q0 -126 66 -206t168 -80q103 0 168.5 80t65.5 206z" />
    <glyph glyph-name="oe" unicode="&#x153;" horiz-adv-x="900" 
d="M825 70v-22q0 -27 -42.5 -42.5t-101.5 -15.5q-77 0 -131.5 36t-79.5 105q-27 -65 -79.5 -103t-120.5 -38q-97 0 -159.5 72t-62.5 185q0 112 60.5 176t161.5 64q72 0 124.5 -33.5t76.5 -95.5q25 60 76 94.5t118 34.5q92 0 142.5 -59.5t50.5 -154.5q0 -59 -66 -59h-285
q17 -170 195 -170q63 0 123 26zM275 435q-80 0 -124 -50.5t-44 -137.5t46 -145.5t122 -58.5t122.5 58.5t46.5 145.5t-44 137.5t-125 50.5zM661 436q-73 0 -113.5 -50t-42.5 -126h262q32 0 32 34q0 64 -37 103t-101 39z" />
    <glyph glyph-name="Racute" unicode="&#x154;" horiz-adv-x="588" 
d="M507 454q0 -81 -47 -132t-124 -69l130 -159q35 -46 90 -46h13v-13q0 -21 -15.5 -31.5t-35.5 -10.5q-31 0 -53 12.5t-49 50.5l-138 179h-134v-235h-59v612q0 23 10 27.5t49 4.5h137q95 0 160.5 -48.5t65.5 -141.5zM445 445q0 74 -50.5 109t-124.5 35h-126v-298h126
q71 0 123 40.5t52 113.5zM398 792l-188 -92h-7l-16 31l174 128q29 -29 37 -67z" />
    <glyph glyph-name="racute" unicode="&#x155;" horiz-adv-x="335" 
d="M336 660l-188 -92h-7l-16 31l174 129q29 -29 37 -68zM130 0h-55v448q0 22 8.5 26.5t46.5 4.5v-115q24 61 65 92t89 31q18 0 23 -13t3 -47q-82 4 -130.5 -47.5t-49.5 -138.5v-241z" />
    <glyph glyph-name="Rcommaaccent" unicode="&#x156;" horiz-adv-x="588" 
d="M344 -124q0 -33 -22 -54.5t-56 -21.5q-22 0 -38.5 8t-16.5 24v15q20 -10 39 -10q21 0 34 13t13 35q0 24 -23 47l11 9q14 11 36.5 -11t22.5 -54zM507 454q0 -81 -47 -132t-124 -69l130 -159q35 -46 90 -46h13v-13q0 -21 -15.5 -31.5t-35.5 -10.5q-31 0 -53 12.5t-49 50.5
l-138 179h-134v-235h-59v612q0 23 10 27.5t49 4.5h137q95 0 160.5 -48.5t65.5 -141.5zM445 445q0 74 -50.5 109t-124.5 35h-126v-298h126q71 0 123 40.5t52 113.5z" />
    <glyph glyph-name="rcommaaccent" unicode="&#x157;" horiz-adv-x="335" 
d="M151 -124q0 -33 -22 -54.5t-56 -21.5q-22 0 -38.5 8t-16.5 24v15q20 -10 39 -10q21 0 34 13t13 35q0 24 -23 47l11 9q14 11 36.5 -11t22.5 -54zM130 0h-55v448q0 22 8.5 26.5t46.5 4.5v-115q24 61 65 92t89 31q18 0 23 -13t3 -47q-82 4 -130.5 -47.5t-49.5 -138.5v-241z
" />
    <glyph glyph-name="Rcaron" unicode="&#x158;" horiz-adv-x="588" 
d="M507 454q0 -81 -47 -132t-124 -69l130 -159q35 -46 90 -46h13v-13q0 -21 -15.5 -31.5t-35.5 -10.5q-31 0 -53 12.5t-49 50.5l-138 179h-134v-235h-59v612q0 23 10 27.5t49 4.5h137q95 0 160.5 -48.5t65.5 -141.5zM445 445q0 74 -50.5 109t-124.5 35h-126v-298h126
q71 0 123 40.5t52 113.5zM429 824l-101 -107q-56 -10 -112 0l-101 107l23 25h7l127 -94l127 94h7z" />
    <glyph glyph-name="rcaron" unicode="&#x159;" horiz-adv-x="335" 
d="M130 0h-55v448q0 22 8.5 26.5t46.5 4.5v-115q24 61 65 92t89 31q18 0 23 -13t3 -47q-82 4 -130.5 -47.5t-49.5 -138.5v-241zM347 692l-101 -107q-56 -10 -112 0l-101 107l23 25h7l127 -94l127 94h7z" />
    <glyph glyph-name="Sacute" unicode="&#x15a;" horiz-adv-x="503" 
d="M430 167q0 -85 -59 -131t-143 -46q-63 0 -107 19t-44 54v25q74 -38 150 -38q59 0 100.5 28t41.5 82q0 42 -32.5 68.5t-78.5 42t-92.5 33.5t-79 58t-32.5 102q0 83 58 136.5t153 53.5q80 0 131.5 -40.5t51.5 -99.5q0 -49 -38 -49h-16v18q0 48 -35.5 80.5t-97.5 32.5
q-66 0 -105.5 -35.5t-39.5 -86.5q0 -50 32.5 -81t78.5 -47.5t92 -33.5t78.5 -53t32.5 -92zM399 792l-188 -92h-7l-16 31l174 128q29 -29 37 -67z" />
    <glyph glyph-name="sacute" unicode="&#x15b;" horiz-adv-x="408" 
d="M348 660l-188 -92h-7l-16 31l174 129q29 -29 37 -68zM351 127q0 -66 -47.5 -101.5t-115.5 -35.5q-46 0 -80 16t-34 42v24q52 -27 113 -27q46 0 77 19.5t31 55.5q0 26 -18.5 44t-46.5 26.5t-60 19.5t-60 23.5t-46.5 40t-18.5 67.5q0 62 45.5 104t123.5 42q65 0 106.5 -32
t41.5 -76q0 -39 -30 -39h-15v14q0 34 -28.5 57t-76.5 23q-52 0 -81.5 -25t-29.5 -58q0 -31 18.5 -52t46.5 -30.5t60 -20.5t60 -22t46.5 -36.5t18.5 -62.5z" />
    <glyph glyph-name="Scircumflex" unicode="&#x15c;" horiz-adv-x="503" 
d="M430 167q0 -85 -59 -131t-143 -46q-63 0 -107 19t-44 54v25q74 -38 150 -38q59 0 100.5 28t41.5 82q0 42 -32.5 68.5t-78.5 42t-92.5 33.5t-79 58t-32.5 102q0 83 58 136.5t153 53.5q80 0 131.5 -40.5t51.5 -99.5q0 -49 -38 -49h-16v18q0 48 -35.5 80.5t-97.5 32.5
q-66 0 -105.5 -35.5t-39.5 -86.5q0 -50 32.5 -81t78.5 -47.5t92 -33.5t78.5 -53t32.5 -92zM417 736l-23 -25h-7l-127 93l-127 -93h-7l-23 25l101 106q56 12 112 0z" />
    <glyph glyph-name="scircumflex" unicode="&#x15d;" horiz-adv-x="408" 
d="M351 127q0 -66 -47.5 -101.5t-115.5 -35.5q-46 0 -80 16t-34 42v24q52 -27 113 -27q46 0 77 19.5t31 55.5q0 26 -18.5 44t-46.5 26.5t-60 19.5t-60 23.5t-46.5 40t-18.5 67.5q0 62 45.5 104t123.5 42q65 0 106.5 -32t41.5 -76q0 -39 -30 -39h-15v14q0 34 -28.5 57
t-76.5 23q-52 0 -81.5 -25t-29.5 -58q0 -31 18.5 -52t46.5 -30.5t60 -20.5t60 -22t46.5 -36.5t18.5 -62.5zM373 604l-23 -25h-7l-127 93l-127 -93h-7l-23 25l101 106q56 12 112 0z" />
    <glyph glyph-name="Scedilla" unicode="&#x15e;" horiz-adv-x="503" 
d="M309 -135q0 -27 -16 -47.5t-33 -20.5q-4 0 -12 4l-10 6q20 22 20 42q0 47 -79 60q5 42 24 82q-54 3 -90 22t-36 50v25q74 -38 150 -38q59 0 100.5 28t41.5 82q0 42 -32.5 68.5t-78.5 42t-92.5 33.5t-79 58t-32.5 102q0 83 58 136.5t153 53.5q80 0 131.5 -40.5t51.5 -99.5
q0 -49 -38 -49h-16v18q0 48 -35.5 80.5t-97.5 32.5q-66 0 -105.5 -35.5t-39.5 -86.5q0 -50 32.5 -81t78.5 -47.5t92 -33.5t78.5 -53t32.5 -92q0 -82 -56 -128.5t-138 -48.5q-10 -29 -12 -40q85 -21 85 -85z" />
    <glyph glyph-name="scedilla" unicode="&#x15f;" horiz-adv-x="408" 
d="M268 -135q0 -27 -16.5 -47.5t-33.5 -20.5q-5 0 -11 4l-10 6q19 21 19 42q0 47 -78 60q7 47 23 83q-38 4 -62.5 18.5t-24.5 37.5v24q52 -27 113 -27q46 0 77 19.5t31 55.5q0 26 -18.5 44t-46.5 26.5t-60 19.5t-60 23.5t-46.5 40t-18.5 67.5q0 62 45.5 104t123.5 42
q65 0 106.5 -32t41.5 -76q0 -39 -30 -39h-15v14q0 34 -28.5 57t-76.5 23q-52 0 -81.5 -25t-29.5 -58q0 -31 18.5 -52t46.5 -30.5t60 -20.5t60 -22t46.5 -36.5t18.5 -62.5q0 -64 -45 -99.5t-111 -37.5q-10 -24 -12 -40q85 -21 85 -85z" />
    <glyph glyph-name="Scaron" unicode="&#x160;" horiz-adv-x="503" 
d="M430 167q0 -85 -59 -131t-143 -46q-63 0 -107 19t-44 54v25q74 -38 150 -38q59 0 100.5 28t41.5 82q0 42 -32.5 68.5t-78.5 42t-92.5 33.5t-79 58t-32.5 102q0 83 58 136.5t153 53.5q80 0 131.5 -40.5t51.5 -99.5q0 -49 -38 -49h-16v18q0 48 -35.5 80.5t-97.5 32.5
q-66 0 -105.5 -35.5t-39.5 -86.5q0 -50 32.5 -81t78.5 -47.5t92 -33.5t78.5 -53t32.5 -92zM415 824l-101 -107q-56 -10 -112 0l-101 107l23 25h7l127 -94l127 94h7z" />
    <glyph glyph-name="scaron" unicode="&#x161;" horiz-adv-x="408" 
d="M351 127q0 -66 -47.5 -101.5t-115.5 -35.5q-46 0 -80 16t-34 42v24q52 -27 113 -27q46 0 77 19.5t31 55.5q0 26 -18.5 44t-46.5 26.5t-60 19.5t-60 23.5t-46.5 40t-18.5 67.5q0 62 45.5 104t123.5 42q65 0 106.5 -32t41.5 -76q0 -39 -30 -39h-15v14q0 34 -28.5 57
t-76.5 23q-52 0 -81.5 -25t-29.5 -58q0 -31 18.5 -52t46.5 -30.5t60 -20.5t60 -22t46.5 -36.5t18.5 -62.5zM371 692l-101 -107q-56 -10 -112 0l-101 107l23 25h7l127 -94l127 94h7z" />
    <glyph glyph-name="Tcommaaccent" unicode="&#x162;" horiz-adv-x="565" 
d="M310 0h-58v586h-217v58h472q16 0 19.5 -12t3.5 -46h-220v-586zM322 -124q0 -33 -22 -54.5t-56 -21.5q-22 0 -38.5 8t-16.5 24v15q20 -10 39 -10q21 0 34 13t13 35q0 24 -23 47l11 9q14 11 36.5 -11t22.5 -54z" />
    <glyph glyph-name="Tcommaaccent" unicode="&#x21a;" horiz-adv-x="565" 
d="M310 0h-58v586h-217v58h472q16 0 19.5 -12t3.5 -46h-220v-586zM322 -124q0 -33 -22 -54.5t-56 -21.5q-22 0 -38.5 8t-16.5 24v15q20 -10 39 -10q21 0 34 13t13 35q0 24 -23 47l11 9q14 11 36.5 -11t22.5 -54z" />
    <glyph glyph-name="tcommaaccent" unicode="&#x163;" horiz-adv-x="399" 
d="M359 425h-204v-228q0 -78 23.5 -115.5t85.5 -37.5q53 0 94 23v-22q0 -27 -35.5 -41t-77.5 -14q-73 0 -108.5 45t-35.5 149v243l-70 19q0 18 11 31h59v83q0 22 8.5 26.5t45.5 4.5v-114h183q15 0 18 -10.5t3 -41.5zM267 -124q0 -33 -22 -54.5t-56 -21.5q-22 0 -38.5 8
t-16.5 24v15q20 -10 39 -10q21 0 34 13t13 35q0 24 -23 47l11 9q14 11 36.5 -11t22.5 -54z" />
    <glyph glyph-name="tcommaaccent" unicode="&#x21b;" horiz-adv-x="399" 
d="M359 425h-204v-228q0 -78 23.5 -115.5t85.5 -37.5q53 0 94 23v-22q0 -27 -35.5 -41t-77.5 -14q-73 0 -108.5 45t-35.5 149v243l-70 19q0 18 11 31h59v83q0 22 8.5 26.5t45.5 4.5v-114h183q15 0 18 -10.5t3 -41.5zM267 -124q0 -33 -22 -54.5t-56 -21.5q-22 0 -38.5 8
t-16.5 24v15q20 -10 39 -10q21 0 34 13t13 35q0 24 -23 47l11 9q14 11 36.5 -11t22.5 -54z" />
    <glyph glyph-name="Tcaron" unicode="&#x164;" horiz-adv-x="565" 
d="M310 0h-58v586h-217v58h472q16 0 19.5 -12t3.5 -46h-220v-586zM440 824l-101 -107q-56 -10 -112 0l-101 107l23 25h7l127 -94l127 94h7z" />
    <glyph glyph-name="tcaron" unicode="&#x165;" horiz-adv-x="399" 
d="M359 425h-204v-228q0 -78 23.5 -115.5t85.5 -37.5q53 0 94 23v-22q0 -27 -35.5 -41t-77.5 -14q-73 0 -108.5 45t-35.5 149v243l-70 19q0 18 11 31h59v83q0 22 8.5 26.5t45.5 4.5v-114h183q15 0 18 -10.5t3 -41.5zM308 721l-64 -188h-32l-3 9l25 197q37 3 74 -18z" />
    <glyph glyph-name="Tbar" unicode="&#x166;" horiz-adv-x="565" 
d="M530 586h-220v-234h135v-54h-135v-298h-58v298h-134v54h134v234h-217v58h472q16 0 19.5 -12t3.5 -46z" />
    <glyph glyph-name="tbar" unicode="&#x167;" horiz-adv-x="399" 
d="M359 425h-204v-140h154v-46h-154v-42q0 -78 23.5 -115.5t85.5 -37.5q53 0 94 23v-22q0 -27 -35.5 -41t-77.5 -14q-73 0 -108.5 45t-35.5 149v55h-61v46h61v142l-70 19q0 18 11 31h59v83q0 22 8.5 26.5t45.5 4.5v-114h183q15 0 18 -10.5t3 -41.5z" />
    <glyph glyph-name="Utilde" unicode="&#x168;" horiz-adv-x="660" 
d="M498 805q0 -37 -25 -63.5t-63 -26.5q-32 0 -74.5 32.5t-66.5 32.5q-22 0 -36.5 -18.5t-14.5 -47.5q-38 0 -38 33q0 37 24.5 62.5t62.5 25.5q33 0 75 -32.5t66 -32.5q22 0 36.5 18.5t14.5 46.5q21 0 30 -6t9 -24zM577 264q0 -133 -69 -203.5t-181 -70.5
q-109 0 -176.5 72.5t-67.5 201.5v351q0 22 10 27t48 5v-375q0 -113 48.5 -169t137.5 -56q91 0 141.5 56t50.5 169v372h58v-380z" />
    <glyph glyph-name="utilde" unicode="&#x169;" horiz-adv-x="540" 
d="M466 196q0 -100 -54.5 -153t-144.5 -53q-88 0 -141 53t-53 153v252q0 22 8.5 26.5t46.5 4.5v-272q0 -79 35.5 -120.5t103.5 -41.5q70 0 107.5 42t37.5 120v270h54v-281zM439 674q0 -37 -25 -63.5t-63 -26.5q-32 0 -74.5 32.5t-66.5 32.5q-22 0 -36.5 -18.5t-14.5 -47.5
q-20 0 -29 7.5t-9 25.5q0 37 24.5 62t62.5 25q33 0 75.5 -32t65.5 -32q22 0 36.5 18t14.5 47q21 0 30 -6.5t9 -23.5z" />
    <glyph glyph-name="Umacron" unicode="&#x16a;" horiz-adv-x="660" 
d="M474 802v-54h-278v54h278zM577 264q0 -133 -69 -203.5t-181 -70.5q-109 0 -176.5 72.5t-67.5 201.5v351q0 22 10 27t48 5v-375q0 -113 48.5 -169t137.5 -56q91 0 141.5 56t50.5 169v372h58v-380z" />
    <glyph glyph-name="umacron" unicode="&#x16b;" horiz-adv-x="540" 
d="M466 196q0 -100 -54.5 -153t-144.5 -53q-88 0 -141 53t-53 153v252q0 22 8.5 26.5t46.5 4.5v-272q0 -79 35.5 -120.5t103.5 -41.5q70 0 107.5 42t37.5 120v270h54v-281zM412 670v-53h-278v53h278z" />
    <glyph glyph-name="Ubreve" unicode="&#x16c;" horiz-adv-x="660" 
d="M335 707q-66 0 -105 36t-39 87q0 27 35 27q0 -46 32 -70.5t77 -24.5q44 0 76 24.5t32 70.5q36 0 36 -27q0 -51 -39.5 -87t-104.5 -36zM577 264q0 -133 -69 -203.5t-181 -70.5q-109 0 -176.5 72.5t-67.5 201.5v351q0 22 10 27t48 5v-375q0 -113 48.5 -169t137.5 -56
q91 0 141.5 56t50.5 169v372h58v-380z" />
    <glyph glyph-name="ubreve" unicode="&#x16d;" horiz-adv-x="540" 
d="M466 196q0 -100 -54.5 -153t-144.5 -53q-88 0 -141 53t-53 153v252q0 22 8.5 26.5t46.5 4.5v-272q0 -79 35.5 -120.5t103.5 -41.5q70 0 107.5 42t37.5 120v270h54v-281zM274 575q-66 0 -105 36.5t-39 87.5q0 27 35 27q0 -46 32 -70.5t77 -24.5q44 0 76 24.5t32 70.5
q36 0 36 -27q0 -51 -39.5 -87.5t-104.5 -36.5z" />
    <glyph glyph-name="Uring" unicode="&#x16e;" horiz-adv-x="660" 
d="M577 264q0 -133 -69 -203.5t-181 -70.5q-109 0 -176.5 72.5t-67.5 201.5v351q0 22 10 27t48 5v-375q0 -113 48.5 -169t137.5 -56q91 0 141.5 56t50.5 169v372h58v-380zM427 774q0 -42 -26.5 -68t-68.5 -26q-41 0 -67.5 26t-26.5 68t26 68t68 26t68.5 -26t26.5 -68z
M387 774q0 25 -15 39.5t-40 14.5q-24 0 -39.5 -14.5t-15.5 -39.5q0 -24 15.5 -39.5t39.5 -15.5t39.5 15t15.5 40z" />
    <glyph glyph-name="uring" unicode="&#x16f;" horiz-adv-x="540" 
d="M367 643q0 -42 -26.5 -68t-68.5 -26q-41 0 -67.5 26t-26.5 68t26 68t68 26t68.5 -26t26.5 -68zM327 643q0 25 -15 39.5t-40 14.5q-24 0 -39.5 -14.5t-15.5 -39.5t15.5 -40t39.5 -15t39.5 15t15.5 40zM466 196q0 -100 -54.5 -153t-144.5 -53q-88 0 -141 53t-53 153v252
q0 22 8.5 26.5t46.5 4.5v-272q0 -79 35.5 -120.5t103.5 -41.5q70 0 107.5 42t37.5 120v270h54v-281z" />
    <glyph glyph-name="Uhungarumlaut" unicode="&#x170;" horiz-adv-x="660" 
d="M577 264q0 -133 -69 -203.5t-181 -70.5q-109 0 -176.5 72.5t-67.5 201.5v351q0 22 10 27t48 5v-375q0 -113 48.5 -169t137.5 -56q91 0 141.5 56t50.5 169v372h58v-380zM356 885l-94 -185h-33l-3 9l61 206q37 -3 69 -30zM527 885l-93 -185h-34l-3 9l61 206q37 -3 69 -30z
" />
    <glyph glyph-name="uhungarumlaut" unicode="&#x171;" horiz-adv-x="540" 
d="M466 196q0 -100 -54.5 -153t-144.5 -53q-88 0 -141 53t-53 153v252q0 22 8.5 26.5t46.5 4.5v-272q0 -79 35.5 -120.5t103.5 -41.5q70 0 107.5 42t37.5 120v270h54v-281zM297 754l-94 -186h-33l-3 9l61 207q37 -5 69 -30zM468 754l-93 -186h-34l-3 9l61 207q37 -4 69 -30z
" />
    <glyph glyph-name="Uogonek" unicode="&#x172;" horiz-adv-x="660" 
d="M442 -151v-13q0 -17 -21.5 -27t-51.5 -10q-36 0 -58 20t-22 57q0 60 61 115q-8 -1 -23 -1q-109 0 -176.5 72.5t-67.5 201.5v351q0 22 10 27t48 5v-375q0 -113 48.5 -169t137.5 -56q91 0 141.5 56t50.5 169v372h58v-380q0 -102 -41 -167.5t-113 -91.5q-84 -60 -84 -115
q0 -52 53 -52q25 0 50 11z" />
    <glyph glyph-name="uogonek" unicode="&#x173;" horiz-adv-x="540" 
d="M374 -151v-13q0 -17 -22 -27t-52 -10q-36 0 -57.5 20t-21.5 56q0 62 57 115h-11q-88 0 -141 53t-53 153v252q0 22 8.5 26.5t46.5 4.5v-272q0 -79 35.5 -120.5t103.5 -41.5q70 0 107.5 42t37.5 120v270h54v-281q0 -75 -31.5 -124t-86.5 -69q-78 -53 -78 -113q0 -52 54 -52
q25 0 50 11z" />
    <glyph glyph-name="Wcircumflex" unicode="&#x174;" horiz-adv-x="925" 
d="M888 644q-76 -356 -209 -638q-24 -11 -54 -13l-145 535q-68 -261 -187 -522q-24 -11 -54 -13l-194 642v9h68l156 -554q116 278 167 476q11 47 5 64q26 16 69 20l147 -553q109 265 166 547h65zM641 736l-23 -25h-7l-127 93l-127 -93h-7l-23 25l101 106q56 12 112 0z" />
    <glyph glyph-name="wcircumflex" unicode="&#x175;" horiz-adv-x="755" 
d="M562 7q-30 -13 -58 -14l-119 403q-52 -185 -145 -389q-33 -13 -61 -14l-149 477v7h64l118 -407q84 184 131 348q9 35 4 49q27 14 68 14l120 -411q84 192 131 407h61q-61 -246 -165 -470zM545 604l-23 -25h-7l-127 93l-127 -93h-7l-23 25l101 106q56 12 112 0z" />
    <glyph glyph-name="Ycircumflex" unicode="&#x176;" horiz-adv-x="590" 
d="M324 0h-58v213l-232 422v9h64l200 -365q122 178 196 365h70q-96 -225 -240 -429v-215zM460 736l-23 -25h-7l-127 93l-127 -93h-7l-23 25l101 106q56 12 112 0z" />
    <glyph glyph-name="ycircumflex" unicode="&#x177;" 
d="M476 477v-9l-175 -462q-7 -93 -44 -137t-95 -44q-28 0 -47.5 10.5t-19.5 30.5v21q28 -7 47 -7q89 0 101 119q-140 242 -217 478h66q57 -189 177 -406l147 406h60zM418 604l-23 -25h-7l-127 93l-127 -93h-7l-23 25l101 106q56 12 112 0z" />
    <glyph glyph-name="Ydieresis" unicode="&#x178;" horiz-adv-x="590" 
d="M324 0h-58v213l-232 422v9h64l200 -365q122 178 196 365h70q-96 -225 -240 -429v-215zM436 775q0 -43 -42 -43t-42 43t42 43t42 -43zM259 775q0 -43 -42 -43t-42 43t42 43t42 -43z" />
    <glyph glyph-name="Zacute" unicode="&#x179;" horiz-adv-x="563" 
d="M509 0h-467q-4 35 8 58l379 528h-373q0 24 1 33.5t6 17t16 7.5h431q4 -35 -8 -58l-379 -528h386v-58zM435 792l-188 -92h-7l-16 31l174 128q29 -29 37 -67z" />
    <glyph glyph-name="zacute" unicode="&#x17a;" horiz-adv-x="455" 
d="M383 660l-188 -92h-7l-16 31l174 129q29 -29 37 -68zM415 0h-382q-2 27 6 45l294 380h-278q0 31 3 41.5t18 10.5h335q2 -29 -6 -46l-295 -379h305v-52z" />
    <glyph glyph-name="Zdotaccent" unicode="&#x17b;" horiz-adv-x="563" 
d="M324 775q0 -41 -39 -41q-40 0 -40 41t40 41q39 0 39 -41zM509 0h-467q-4 35 8 58l379 528h-373q0 24 1 33.5t6 17t16 7.5h431q4 -35 -8 -58l-379 -528h386v-58z" />
    <glyph glyph-name="zdotaccent" unicode="&#x17c;" horiz-adv-x="455" 
d="M415 0h-382q-2 27 6 45l294 380h-278q0 31 3 41.5t18 10.5h335q2 -29 -6 -46l-295 -379h305v-52zM277 644q0 -42 -39 -42q-40 0 -40 42q0 41 40 41q39 0 39 -41z" />
    <glyph glyph-name="Zcaron" unicode="&#x17d;" horiz-adv-x="563" 
d="M509 0h-467q-4 35 8 58l379 528h-373q0 24 1 33.5t6 17t16 7.5h431q4 -35 -8 -58l-379 -528h386v-58zM451 824l-101 -107q-56 -10 -112 0l-101 107l23 25h7l127 -94l127 94h7z" />
    <glyph glyph-name="zcaron" unicode="&#x17e;" horiz-adv-x="455" 
d="M415 0h-382q-2 27 6 45l294 380h-278q0 31 3 41.5t18 10.5h335q2 -29 -6 -46l-295 -379h305v-52zM398 692l-101 -107q-56 -10 -112 0l-101 107l23 25h7l127 -94l127 94h7z" />
    <glyph glyph-name="uni018F" unicode="&#x18f;" horiz-adv-x="651" 
d="M108 552v17q0 34 58.5 59.5t135.5 25.5q133 0 212 -81.5t79 -237.5q0 -145 -80.5 -245t-213.5 -100q-114 0 -176.5 78t-62.5 197q0 43 24 63t63 20h384q-4 124 -71 185t-176 61q-92 0 -176 -42zM301 46q98 0 157.5 70.5t69.5 175.5h-359q-45 0 -45 -50q0 -84 47.5 -140
t129.5 -56z" />
    <glyph glyph-name="florin" unicode="&#x192;" 
d="M237 -165h-54v446l-105 18q0 22 11 33h94v65q0 84 41 134.5t116 50.5q24 0 44.5 -9.5t20.5 -30.5v-21q-22 8 -46 8q-64 0 -93 -35t-29 -107v-55h156q15 0 18 -10t3 -41h-177v-446z" />
    <glyph glyph-name="uni019F" unicode="&#x19f;" horiz-adv-x="701" 
d="M643 341q0 -149 -83.5 -250t-210.5 -101q-125 0 -208 101t-83 250q0 148 78.5 230.5t212.5 82.5q136 0 215 -82.5t79 -230.5zM349 598q-106 0 -167 -67t-62 -186h461q-1 121 -62.5 187t-169.5 66zM349 48q90 0 152.5 66.5t75.5 174.5h-454q14 -107 76 -174t150 -67z" />
    <glyph glyph-name="Scommaaccent" unicode="&#x218;" horiz-adv-x="503" 
d="M430 167q0 -85 -59 -131t-143 -46q-63 0 -107 19t-44 54v25q74 -38 150 -38q59 0 100.5 28t41.5 82q0 42 -32.5 68.5t-78.5 42t-92.5 33.5t-79 58t-32.5 102q0 83 58 136.5t153 53.5q80 0 131.5 -40.5t51.5 -99.5q0 -49 -38 -49h-16v18q0 48 -35.5 80.5t-97.5 32.5
q-66 0 -105.5 -35.5t-39.5 -86.5q0 -50 32.5 -81t78.5 -47.5t92 -33.5t78.5 -53t32.5 -92zM286 -124q0 -33 -22 -54.5t-56 -21.5q-22 0 -38.5 8t-16.5 24v15q20 -10 39 -10q21 0 34 13t13 35q0 24 -23 47l11 9q14 11 36.5 -11t22.5 -54z" />
    <glyph glyph-name="scommaaccent" unicode="&#x219;" horiz-adv-x="408" 
d="M351 127q0 -66 -47.5 -101.5t-115.5 -35.5q-46 0 -80 16t-34 42v24q52 -27 113 -27q46 0 77 19.5t31 55.5q0 26 -18.5 44t-46.5 26.5t-60 19.5t-60 23.5t-46.5 40t-18.5 67.5q0 62 45.5 104t123.5 42q65 0 106.5 -32t41.5 -76q0 -39 -30 -39h-15v14q0 34 -28.5 57
t-76.5 23q-52 0 -81.5 -25t-29.5 -58q0 -31 18.5 -52t46.5 -30.5t60 -20.5t60 -22t46.5 -36.5t18.5 -62.5zM249 -124q0 -33 -22 -54.5t-56 -21.5q-22 0 -38.5 8t-16.5 24v15q20 -10 39 -10q21 0 34 13t13 35q0 24 -23 47l11 9q14 11 36.5 -11t22.5 -54z" />
    <glyph glyph-name="uni0259" unicode="&#x259;" horiz-adv-x="499" 
d="M77 405v22q0 24 45.5 42t103.5 18q100 0 161.5 -59.5t61.5 -179.5q0 -108 -59.5 -183t-160.5 -75q-88 0 -136 59t-48 151q0 60 66 60h280q-4 87 -53.5 130.5t-133.5 43.5q-66 0 -127 -29zM230 40q70 0 110.5 49t48.5 124h-254q-16 0 -24 -9.5t-8 -23.5q0 -61 34 -100.5
t93 -39.5z" />
    <glyph glyph-name="uni0275" unicode="&#x275;" horiz-adv-x="540" 
d="M490 249q0 -114 -61.5 -186.5t-158.5 -72.5t-158.5 72.5t-61.5 186.5t58 176t162 62t162 -62t58 -176zM270 436q-77 0 -118.5 -47.5t-43.5 -130.5h324q-2 84 -43.5 131t-118.5 47zM270 43q65 0 107.5 47.5t51.5 122.5h-319q9 -74 52 -122t108 -48z" />
    <glyph glyph-name="circumflex" unicode="&#x2c6;" horiz-adv-x="493" 
d="M403 604l-23 -25h-7l-127 93l-127 -93h-7l-23 25l101 106q56 12 112 0z" />
    <glyph glyph-name="circumflex" unicode="&#x302;" horiz-adv-x="493" 
d="M403 604l-23 -25h-7l-127 93l-127 -93h-7l-23 25l101 106q56 12 112 0z" />
    <glyph glyph-name="caron" unicode="&#x2c7;" horiz-adv-x="493" 
d="M403 692l-101 -107q-56 -10 -112 0l-101 107l23 25h7l127 -94l127 94h7z" />
    <glyph glyph-name="caron" unicode="&#x30c;" horiz-adv-x="493" 
d="M403 692l-101 -107q-56 -10 -112 0l-101 107l23 25h7l127 -94l127 94h7z" />
    <glyph glyph-name="uni02C8" unicode="&#x2c8;" horiz-adv-x="245" 
d="M143 452h-42l-13 232h68z" />
    <glyph glyph-name="breve" unicode="&#x2d8;" horiz-adv-x="493" 
d="M247 575q-66 0 -105 36.5t-39 87.5q0 27 35 27q0 -46 32 -70.5t77 -24.5q44 0 76 24.5t32 70.5q36 0 36 -27q0 -51 -39.5 -87.5t-104.5 -36.5z" />
    <glyph glyph-name="breve" unicode="&#x306;" horiz-adv-x="493" 
d="M247 575q-66 0 -105 36.5t-39 87.5q0 27 35 27q0 -46 32 -70.5t77 -24.5q44 0 76 24.5t32 70.5q36 0 36 -27q0 -51 -39.5 -87.5t-104.5 -36.5z" />
    <glyph glyph-name="dotaccent" unicode="&#x2d9;" horiz-adv-x="493" 
d="M286 644q0 -42 -39 -42q-40 0 -40 42q0 41 40 41q39 0 39 -41z" />
    <glyph glyph-name="dotaccent" unicode="&#x307;" horiz-adv-x="493" 
d="M286 644q0 -42 -39 -42q-40 0 -40 42q0 41 40 41q39 0 39 -41z" />
    <glyph glyph-name="ring" unicode="&#x2da;" horiz-adv-x="493" 
d="M341 643q0 -42 -26.5 -68t-68.5 -26q-41 0 -67.5 26t-26.5 68t26 68t68 26t68.5 -26t26.5 -68zM301 643q0 25 -15 39.5t-40 14.5q-24 0 -39.5 -14.5t-15.5 -39.5t15.5 -40t39.5 -15t39.5 15t15.5 40z" />
    <glyph glyph-name="ring" unicode="&#x30a;" horiz-adv-x="493" 
d="M341 643q0 -42 -26.5 -68t-68.5 -26q-41 0 -67.5 26t-26.5 68t26 68t68 26t68.5 -26t26.5 -68zM301 643q0 25 -15 39.5t-40 14.5q-24 0 -39.5 -14.5t-15.5 -39.5t15.5 -40t39.5 -15t39.5 15t15.5 40z" />
    <glyph glyph-name="ogonek" unicode="&#x2db;" horiz-adv-x="493" 
d="M323 -151v-13q0 -17 -22 -27t-52 -10q-36 0 -57.5 19.5t-21.5 54.5q0 50 43 95t73 50q8 1 13 -7l7 -11q-44 -30 -65.5 -55.5t-21.5 -57.5q0 -49 54 -49q23 0 50 11z" />
    <glyph glyph-name="ogonek" unicode="&#x328;" horiz-adv-x="493" 
d="M323 -151v-13q0 -17 -22 -27t-52 -10q-36 0 -57.5 19.5t-21.5 54.5q0 50 43 95t73 50q8 1 13 -7l7 -11q-44 -30 -65.5 -55.5t-21.5 -57.5q0 -49 54 -49q23 0 50 11z" />
    <glyph glyph-name="tilde" unicode="&#x2dc;" horiz-adv-x="493" 
d="M406 674q0 -37 -25 -63.5t-63 -26.5q-32 0 -74.5 32.5t-66.5 32.5q-22 0 -36.5 -18.5t-14.5 -47.5q-20 0 -29 7.5t-9 25.5q0 37 24.5 62t62.5 25q32 0 74.5 -32t66.5 -32q22 0 36.5 18t14.5 47q21 0 30 -6.5t9 -23.5z" />
    <glyph glyph-name="tilde" unicode="&#x303;" horiz-adv-x="493" 
d="M406 674q0 -37 -25 -63.5t-63 -26.5q-32 0 -74.5 32.5t-66.5 32.5q-22 0 -36.5 -18.5t-14.5 -47.5q-20 0 -29 7.5t-9 25.5q0 37 24.5 62t62.5 25q32 0 74.5 -32t66.5 -32q22 0 36.5 18t14.5 47q21 0 30 -6.5t9 -23.5z" />
    <glyph glyph-name="hungarumlaut" unicode="&#x2dd;" horiz-adv-x="493" 
d="M226 754l-94 -186h-33l-3 9l61 207q37 -5 69 -30zM397 754l-93 -186h-34l-3 9l61 207q37 -4 69 -30z" />
    <glyph glyph-name="hungarumlaut" unicode="&#x30b;" horiz-adv-x="493" 
d="M226 754l-94 -186h-33l-3 9l61 207q37 -5 69 -30zM397 754l-93 -186h-34l-3 9l61 207q37 -4 69 -30z" />
    <glyph glyph-name="uni0314" unicode="&#x314;" horiz-adv-x="493" 
d="M250 544l-11 -9q-8 -7 -22.5 0.5t-25.5 25.5t-11 39q0 33 22 54.5t56 21.5q22 0 38.5 -8t16.5 -24v-15q-22 9 -39 9q-21 0 -34 -12.5t-13 -34.5q0 -24 23 -47z" />
    <glyph glyph-name="uni0315" unicode="&#x315;" horiz-adv-x="493" 
d="M296 721l-64 -188h-32l-3 9l25 197q37 3 74 -18z" />
    <glyph glyph-name="uni0326" unicode="&#x326;" horiz-adv-x="493" 
d="M313 -124q0 -33 -22 -54.5t-56 -21.5q-22 0 -38.5 8t-16.5 24v15q20 -10 39 -10q21 0 34 13t13 35q0 24 -23 47l11 9q14 11 36.5 -11t22.5 -54z" />
    <glyph glyph-name="Delta" unicode="&#x394;" horiz-adv-x="663" 
d="M595 0h-548q0 34 7 55q86 257 232 523q16 34 10 52q32 20 73 22l259 -597q-10 -32 -33 -55zM552 60l-212 505q-134 -244 -221 -505h433z" />
    <glyph glyph-name="Delta" unicode="&#x2206;" horiz-adv-x="663" 
d="M595 0h-548q0 34 7 55q86 257 232 523q16 34 10 52q32 20 73 22l259 -597q-10 -32 -33 -55zM552 60l-212 505q-134 -244 -221 -505h433z" />
    <glyph glyph-name="Omega" unicode="&#x3a9;" horiz-adv-x="726" 
d="M654 0h-243q-4 39 8 60q79 62 126 141t47 164q0 108 -60.5 169.5t-164.5 61.5q-103 0 -166.5 -64t-63.5 -167q0 -88 47.5 -168.5t125.5 -134.5q-2 -35 -16 -62h-220v60h150q-152 138 -152 310q0 126 81 205t214 79t211 -77.5t78 -206.5q0 -167 -158 -310h156v-60z" />
    <glyph glyph-name="Omega" unicode="&#x2126;" horiz-adv-x="726" 
d="M654 0h-243q-4 39 8 60q79 62 126 141t47 164q0 108 -60.5 169.5t-164.5 61.5q-103 0 -166.5 -64t-63.5 -167q0 -88 47.5 -168.5t125.5 -134.5q-2 -35 -16 -62h-220v60h150q-152 138 -152 310q0 126 81 205t214 79t211 -77.5t78 -206.5q0 -167 -158 -310h156v-60z" />
    <glyph glyph-name="pi" unicode="&#x3c0;" horiz-adv-x="600" 
d="M174 0h-53v416h-93v61h520q16 0 20 -11t4 -50h-123v-329q0 -46 45 -46q23 0 42 7v-22q0 -19 -20 -27.5t-45 -8.5q-74 0 -74 92v334h-223v-416z" />
    <glyph glyph-name="uni0400" unicode="&#x400;" horiz-adv-x="510" 
d="M459 58v-58h-245q-71 0 -100 28.5t-29 99.5v484q0 23 9.5 27.5t49.5 4.5h286q8 0 12.5 -3t6.5 -12t2.5 -17t0.5 -26h-308v-246h253v-56h-253v-149q0 -41 18.5 -59t60.5 -18h236zM148 792q6 36 37 67l174 -128l-16 -31h-8z" />
    <glyph glyph-name="afii10023" unicode="&#x401;" horiz-adv-x="510" 
d="M459 58v-58h-245q-71 0 -100 28.5t-29 99.5v484q0 23 9.5 27.5t49.5 4.5h286q8 0 12.5 -3t6.5 -12t2.5 -17t0.5 -26h-308v-246h253v-56h-253v-149q0 -41 18.5 -59t60.5 -18h236zM406 775q0 -43 -42 -43t-42 43t42 43t42 -43zM229 775q0 -43 -42 -43t-42 43t42 43t42 -43z
" />
    <glyph glyph-name="afii10051" unicode="&#x402;" horiz-adv-x="773" 
d="M711 226q0 -103 -57 -169.5t-146 -66.5q-35 0 -59 11t-24 33v24q32 -9 62 -9q74 0 117.5 48.5t43.5 128.5q0 70 -42.5 109t-113.5 39q-81 0 -141.5 -59.5t-60.5 -150.5v-164h-58v586h-197v58h471q8 0 12.5 -3t6.5 -12t2.5 -17t0.5 -26h-238v-286q33 62 91.5 98t128.5 36
q89 0 145 -54.5t56 -153.5z" />
    <glyph glyph-name="afii10052" unicode="&#x403;" horiz-adv-x="515" 
d="M436 792l-188 -92h-7l-16 31l174 128q29 -29 37 -67zM480 585h-336v-585h-58v612q0 23 10 27.5t48 4.5h313q16 0 19.5 -12.5t3.5 -46.5z" />
    <glyph glyph-name="afii10053" unicode="&#x404;" horiz-adv-x="618" 
d="M414 279h-290q14 -106 78.5 -167.5t176.5 -61.5q90 0 170 40v-21q0 -38 -55.5 -58.5t-130.5 -20.5q-144 0 -224.5 92t-80.5 257q0 136 84 225.5t217 89.5q90 0 149 -43t59 -114q0 -22 -11 -35t-27 -13h-20v18q0 60 -42 94.5t-112 34.5q-103 0 -169 -74.5t-66 -182.5v-4
h294v-56z" />
    <glyph glyph-name="afii10054" unicode="&#x405;" horiz-adv-x="503" 
d="M430 167q0 -85 -59 -131t-143 -46q-63 0 -107 19t-44 54v25q74 -38 150 -38q59 0 100.5 28t41.5 82q0 42 -32.5 68.5t-78.5 42t-92.5 33.5t-79 58t-32.5 102q0 83 58 136.5t153 53.5q80 0 131.5 -40.5t51.5 -99.5q0 -49 -38 -49h-16v18q0 48 -35.5 80.5t-97.5 32.5
q-66 0 -105.5 -35.5t-39.5 -86.5q0 -50 32.5 -81t78.5 -47.5t92 -33.5t78.5 -53t32.5 -92z" />
    <glyph glyph-name="afii10055" unicode="&#x406;" horiz-adv-x="229" 
d="M144 0h-59v615q0 22 10 27t49 5v-647z" />
    <glyph glyph-name="afii10056" unicode="&#x407;" horiz-adv-x="229" 
d="M144 0h-59v615q0 22 10 27t49 5v-647zM222 775q0 -41 -40 -41t-40 41t40 41t40 -41zM93 775q0 -41 -40 -41t-40 41t40 41t40 -41z" />
    <glyph glyph-name="afii10057" unicode="&#x408;" horiz-adv-x="292" 
d="M208 35q0 -70 -40 -108t-95 -38q-34 0 -56 12t-22 34v21q27 -10 61 -10q41 0 67.5 26t26.5 73v570q0 22 10 27t48 5v-612z" />
    <glyph glyph-name="afii10058" unicode="&#x409;" horiz-adv-x="966" 
d="M910 193q0 -65 -35.5 -110.5t-85 -64t-107.5 -18.5h-37q-71 0 -103.5 32t-32.5 108v369q0 41 -18.5 59t-61.5 18h-165l-53 -458q-8 -69 -41 -103.5t-86 -34.5q-29 0 -48.5 10.5t-19.5 32.5v23q19 -8 49 -8q36 0 58 25t27 70l57 443h-57q0 24 1 33.5t6 17t16 7.5h265
q71 0 100 -28.5t29 -99.5v-151h101q242 0 242 -172zM848 189q0 118 -184 118h-97v-161q0 -45 19.5 -66.5t63.5 -21.5h30q68 0 118 31.5t50 99.5z" />
    <glyph glyph-name="afii10059" unicode="&#x40a;" horiz-adv-x="960" 
d="M144 0h-59v615q0 22 10 27t49 5v-307h359v305h58v-280h102q241 0 241 -172q0 -65 -35.5 -110.5t-85 -64t-107.5 -18.5h-37q-71 0 -103.5 32t-32.5 108v144h-359v-284zM658 307h-97v-161q0 -45 19.5 -66.5t63.5 -21.5h30q68 0 118 31.5t50 99.5q0 118 -184 118z" />
    <glyph glyph-name="afii10060" unicode="&#x40b;" horiz-adv-x="789" 
d="M528 586h-238v-306q32 65 90 100t129 35q95 0 150 -58t55 -166v-162q0 -22 -10 -27t-48 -5v159q0 98 -44 149t-124 51q-81 0 -139.5 -60t-58.5 -159v-137h-58v586h-197v58h470q15 0 19 -12.5t4 -45.5z" />
    <glyph glyph-name="afii10061" unicode="&#x40c;" horiz-adv-x="600" 
d="M513 -7q-35 0 -58.5 14t-52.5 54l-162 223q-9 -1 -27 -1h-69v-283h-59v615q0 22 10 27t49 5v-308h76q45 0 75.5 23t44 57.5t28 75t28.5 75t44.5 57.5t75.5 23q44 0 44 -41v-13h-13q-42 0 -69.5 -24t-43 -62t-29.5 -78t-40 -77.5t-65 -55.5l153 -200q21 -29 43 -40t55 -11
h13v-13q0 -21 -15.5 -31.5t-35.5 -10.5zM445 792l-188 -92h-7l-16 31l174 128q29 -29 37 -67z" />
    <glyph glyph-name="uni040D" unicode="&#x40d;" horiz-adv-x="681" 
d="M210 792q6 36 37 67l174 -128l-16 -31h-8zM596 29q0 -22 -10 -27t-48 -5v550l-396 -553q-32 3 -57 20v601q0 22 10 27t49 5v-549l395 551q32 -3 57 -20v-600z" />
    <glyph glyph-name="afii10062" unicode="&#x40e;" horiz-adv-x="590" 
d="M315 707q-66 0 -105 36t-39 87q0 27 35 27q0 -46 32 -70.5t77 -24.5q44 0 76 24.5t32 70.5q36 0 36 -27q0 -51 -39.5 -87t-104.5 -36zM565 644l-182 -436q-27 -218 -172 -218q-35 0 -59.5 12t-24.5 34v23q22 -11 65 -11q108 0 124 131q-182 234 -277 463v2h69
q83 -197 232 -394l154 394h71z" />
    <glyph glyph-name="afii10145" unicode="&#x40f;" horiz-adv-x="683" 
d="M598 32q0 -23 -10 -27.5t-48 -4.5h-152q-21 -100 -54 -159q-12 -20 -26 -20q-10 0 -33 9q34 86 43 170h-104q-71 0 -100 28.5t-29 99.5v487q0 22 10 27t49 5v-512q0 -41 18.5 -59t60.5 -18h317v586h58v-612z" />
    <glyph glyph-name="afii10017" unicode="&#x410;" horiz-adv-x="654" 
d="M618 0h-68l-61 159h-329q-27 -78 -51 -159h-67q94 301 239 578q17 35 10 53q32 19 71 21l256 -643v-9zM470 216l-135 348q-89 -167 -156 -348h291z" />
    <glyph glyph-name="afii10018" unicode="&#x411;" horiz-adv-x="546" 
d="M489 187q0 -63 -34 -106.5t-84 -62t-110 -18.5h-39q-72 0 -104.5 32.5t-32.5 107.5v472q0 23 10 27.5t49 4.5h306q15 0 19 -12.5t4 -45.5h-329v-231h106q239 0 239 -168zM427 182q0 63 -46.5 89.5t-135.5 26.5h-101v-152q0 -45 19.5 -66.5t63.5 -21.5h32q70 0 119 30
t49 94z" />
    <glyph glyph-name="afii10019" unicode="&#x412;" horiz-adv-x="550" 
d="M490 179q0 -88 -68.5 -133.5t-164.5 -45.5h-35q-72 0 -104.5 32.5t-32.5 107.5v463q0 30 9.5 35.5t49.5 5.5h116q62 0 111 -13.5t84.5 -51t35.5 -96.5q0 -122 -134 -163q133 -28 133 -141zM428 182q0 33 -15.5 55.5t-44.5 33.5t-58.5 15t-68.5 4h-97v-149q0 -43 18.5 -64
t61.5 -21h30q71 0 122.5 30.5t51.5 95.5zM429 473q0 62 -49.5 89t-126.5 27h-109v-249h89q90 0 143 34.5t53 98.5z" />
    <glyph glyph-name="afii10020" unicode="&#x413;" horiz-adv-x="515" 
d="M480 585h-336v-585h-58v612q0 23 10 27.5t48 4.5h313q16 0 19.5 -12.5t3.5 -46.5z" />
    <glyph glyph-name="afii10021" unicode="&#x414;" horiz-adv-x="679" 
d="M581 -159q-12 -20 -25 -20q-12 0 -34 9q34 86 43 170h-487l-20 -151q-2 -15 -12 -18.5t-37 -3.5v209l89 11l101 539h-58q0 18 0.5 26t2.5 17t6.5 12t12.5 3h272q71 0 99.5 -28.5t28.5 -99.5v-470l77 -10v-9q-20 -117 -59 -186zM505 58v451q0 41 -18.5 59t-60.5 18h-171
l-88 -528h338z" />
    <glyph glyph-name="afii10022" unicode="&#x415;" horiz-adv-x="510" 
d="M459 58v-58h-245q-71 0 -100 28.5t-29 99.5v484q0 23 9.5 27.5t49.5 4.5h286q8 0 12.5 -3t6.5 -12t2.5 -17t0.5 -26h-308v-246h253v-56h-253v-149q0 -41 18.5 -59t60.5 -18h236z" />
    <glyph glyph-name="afii10024" unicode="&#x416;" horiz-adv-x="912" 
d="M823 -7q-36 0 -60 15t-50 58l-138 219q-20 -2 -32 -2h-58v-283h-58v283h-58q-12 0 -32 2l-138 -219q-26 -43 -51.5 -58t-61.5 -15q-21 0 -34.5 10.5t-13.5 31.5v13h13q33 0 55 12.5t43 43.5l131 200q-32 19 -53.5 57t-33 77t-25.5 75.5t-41.5 59.5t-70.5 23h-13v13
q0 42 51 42q50 0 81 -32t45.5 -78t28 -92t41.5 -78t73 -32h64v276q0 22 10 27t48 5v-308h64q45 0 73 32t41.5 78t28.5 92t46.5 78t82.5 32q48 0 48 -42v-13h-13q-43 0 -70.5 -23t-41.5 -59.5t-26 -75.5t-33.5 -77t-53.5 -57l133 -200q20 -31 42 -43.5t55 -12.5h13v-13
q0 -21 -15.5 -31.5t-35.5 -10.5z" />
    <glyph glyph-name="afii10025" unicode="&#x417;" horiz-adv-x="487" 
d="M420 165q0 -80 -59.5 -127.5t-146.5 -47.5q-67 0 -107 19t-40 54v20q61 -33 140 -33q69 0 110 32.5t41 85.5q0 110 -204 110q-3 29 7 54q100 7 156 48t56 105q0 52 -38 82.5t-98 30.5q-63 0 -101 -35t-38 -77v-20h-20q-14 0 -24.5 10.5t-10.5 28.5q0 66 58 107.5
t139 41.5q88 0 142 -45.5t54 -118.5q0 -63 -41 -109.5t-115 -69.5q140 -30 140 -146z" />
    <glyph glyph-name="afii10026" unicode="&#x418;" horiz-adv-x="681" 
d="M596 29q0 -22 -10 -27t-48 -5v550l-396 -553q-32 3 -57 20v601q0 22 10 27t49 5v-549l395 551q32 -3 57 -20v-600z" />
    <glyph glyph-name="afii10027" unicode="&#x419;" horiz-adv-x="681" 
d="M596 29q0 -22 -10 -27t-48 -5v550l-396 -553q-32 3 -57 20v601q0 22 10 27t49 5v-549l395 551q32 -3 57 -20v-600zM349 707q-66 0 -105 36t-39 87q0 27 35 27q0 -46 32 -70.5t77 -24.5q44 0 76 24.5t32 70.5q36 0 36 -27q0 -51 -39.5 -87t-104.5 -36z" />
    <glyph glyph-name="afii10028" unicode="&#x41a;" horiz-adv-x="601" 
d="M513 -7q-35 0 -58.5 14t-52.5 54l-162 223q-9 -1 -27 -1h-69v-283h-59v615q0 22 10 27t49 5v-308h76q45 0 75.5 23t44 57.5t28 75t28.5 75t44.5 57.5t75.5 23q44 0 44 -41v-13h-13q-42 0 -69.5 -24t-43 -62t-29.5 -78t-40 -77.5t-65 -55.5l153 -200q21 -29 43 -40t55 -11
h13v-13q0 -21 -15.5 -31.5t-35.5 -10.5z" />
    <glyph glyph-name="afii10029" unicode="&#x41b;" horiz-adv-x="670" 
d="M585 29q0 -22 -10 -27t-49 -5v512q0 41 -18.5 59t-60.5 18h-182l-54 -458q-8 -69 -41 -103.5t-86 -34.5q-29 0 -48.5 10.5t-19.5 32.5v23q19 -8 49 -8q36 0 58 25t27 70l57 443h-57q0 24 1 33.5t6 17t16 7.5h283q71 0 100 -28.5t29 -99.5v-487z" />
    <glyph glyph-name="afii10030" unicode="&#x41c;" horiz-adv-x="812" 
d="M727 38q0 -30 -7.5 -35.5t-48.5 -5.5v542q-98 -220 -235 -437q-28 -12 -59 -12q-130 205 -236 448v-538h-56v629q25 14 72 18q133 -301 249 -488q133 221 244 469q30 17 77 19v-609z" />
    <glyph glyph-name="afii10031" unicode="&#x41d;" horiz-adv-x="667" 
d="M582 644v-615q0 -22 -10 -27t-48 -5v287h-380v-284h-59v615q0 22 10 27t49 5v-307h380v304h58z" />
    <glyph glyph-name="afii10032" unicode="&#x41e;" horiz-adv-x="701" 
d="M643 341q0 -149 -83.5 -250t-210.5 -101q-125 0 -208 101t-83 250q0 148 78.5 230.5t212.5 82.5q136 0 215 -82.5t79 -230.5zM581 341q0 123 -61.5 190t-170.5 67q-107 0 -168 -68t-61 -189q0 -127 65 -210t164 -83q101 0 166.5 82t65.5 211z" />
    <glyph glyph-name="afii10033" unicode="&#x41f;" horiz-adv-x="675" 
d="M590 29q0 -22 -10 -27t-49 -5v512q0 41 -18.5 59t-60.5 18h-308v-586h-59v612q0 23 10 27.5t49 4.5h317q71 0 100 -28.5t29 -99.5v-487z" />
    <glyph glyph-name="afii10034" unicode="&#x420;" horiz-adv-x="542" 
d="M494 445q0 -108 -79.5 -166t-205.5 -58h-65v-221h-59v612q0 23 10 27.5t49 4.5h80q270 0 270 -199zM433 445q0 144 -209 144h-80v-313h66q99 0 161 43t62 126z" />
    <glyph glyph-name="afii10035" unicode="&#x421;" horiz-adv-x="618" 
d="M549 90v-21q0 -38 -55.5 -58.5t-130.5 -20.5q-143 0 -224 92t-81 257q0 136 84 225.5t217 89.5q90 0 149 -43t59 -114q0 -22 -11 -35t-27 -13h-20v18q0 61 -42 95t-111 34q-103 0 -169.5 -74.5t-66.5 -182.5q0 -131 66 -210t193 -79q90 0 170 40z" />
    <glyph glyph-name="afii10036" unicode="&#x422;" horiz-adv-x="565" 
d="M310 0h-58v586h-217v58h472q16 0 19.5 -12t3.5 -46h-220v-586z" />
    <glyph glyph-name="afii10037" unicode="&#x423;" horiz-adv-x="590" 
d="M565 644l-182 -436q-27 -218 -172 -218q-35 0 -59.5 12t-24.5 34v23q22 -11 65 -11q108 0 124 131q-182 234 -277 463v2h69q83 -197 232 -394l154 394h71z" />
    <glyph glyph-name="afii10038" unicode="&#x424;" horiz-adv-x="716" 
d="M387 0h-58v85q-120 6 -198.5 67.5t-78.5 168.5q0 211 277 220v74q0 22 10 27t48 5v-106q277 -10 277 -220q0 -106 -79 -167.5t-198 -68.5v-85zM114 321q0 -83 61 -129t154 -53v349q-215 -9 -215 -167zM602 321q0 158 -215 167v-349q93 6 154 52.5t61 129.5z" />
    <glyph glyph-name="afii10039" unicode="&#x425;" horiz-adv-x="607" 
d="M569 0h-68l-200 280q-108 -115 -189 -280h-70q99 197 226 329l-216 306v9h67l198 -277q109 130 176 277h68q-79 -176 -211 -326l219 -309v-9z" />
    <glyph glyph-name="afii10040" unicode="&#x426;" horiz-adv-x="694" 
d="M579 644v-598l78 -10v-9q-21 -118 -60 -186q-12 -20 -25 -20q-12 0 -34 9q34 86 43 170h-367q-71 0 -100 28.5t-29 99.5v487q0 22 10 27t49 5v-512q0 -41 18.5 -59t60.5 -18h298v586h58z" />
    <glyph glyph-name="afii10041" unicode="&#x427;" horiz-adv-x="641" 
d="M555 29q0 -23 -9.5 -27.5t-48.5 -4.5v309q-32 -65 -90.5 -100t-128.5 -35q-94 0 -149.5 59.5t-55.5 165.5v219q0 22 10 27t48 5v-216q0 -98 44 -149t124 -51q81 0 139.5 60t58.5 159v194h58v-615z" />
    <glyph glyph-name="afii10042" unicode="&#x428;" horiz-adv-x="949" 
d="M864 32q0 -23 -10 -27.5t-49 -4.5h-591q-71 0 -100 28.5t-29 99.5v487q0 22 10 27t49 5v-512q0 -41 18.5 -59t60.5 -18h225v586h59v-586h298v586h59v-612z" />
    <glyph glyph-name="afii10043" unicode="&#x429;" horiz-adv-x="979" 
d="M864 644v-598l77 -10v-9q-21 -115 -59 -186q-12 -20 -26 -20q-12 0 -33 9q33 89 42 170h-651q-71 0 -100 28.5t-29 99.5v487q0 22 10 27t49 5v-512q0 -41 18.5 -59t60.5 -18h225v586h59v-586h298v586h59z" />
    <glyph glyph-name="afii10044" unicode="&#x42a;" horiz-adv-x="708" 
d="M647 193q0 -65 -35.5 -110.5t-85 -64t-107.5 -18.5h-37q-72 0 -104 32t-32 108v446h-211v58h211q39 0 48.5 -4.5t9.5 -27.5v-247h102q241 0 241 -172zM585 189q0 118 -184 118h-97v-161q0 -45 19.5 -66.5t63.5 -21.5h30q68 0 118 31.5t50 99.5z" />
    <glyph glyph-name="afii10045" unicode="&#x42b;" horiz-adv-x="740" 
d="M487 193q0 -65 -35.5 -110.5t-85.5 -64t-107 -18.5h-37q-72 0 -104.5 32.5t-32.5 107.5v466q0 29 9.5 35t49.5 6v-282h101q242 0 242 -172zM241 307h-97v-161q0 -45 19.5 -66.5t63.5 -21.5h30q68 0 118 31.5t50 99.5q0 118 -184 118zM655 0h-58v615q0 22 10 27t48 5v-647
z" />
    <glyph glyph-name="afii10046" unicode="&#x42c;" horiz-adv-x="542" 
d="M487 193q0 -65 -35.5 -110.5t-85.5 -64t-107 -18.5h-37q-72 0 -104.5 32.5t-32.5 107.5v466q0 29 9.5 35t49.5 6v-282h101q242 0 242 -172zM241 307h-97v-161q0 -45 19.5 -66.5t63.5 -21.5h30q68 0 118 31.5t50 99.5q0 118 -184 118z" />
    <glyph glyph-name="afii10047" unicode="&#x42d;" horiz-adv-x="618" 
d="M205 279v56h294v7q0 114 -65.5 184t-169.5 70q-68 0 -111.5 -34.5t-43.5 -94.5v-18h-20q-17 0 -27.5 12.5t-10.5 35.5q0 71 60.5 114t149.5 43q136 0 218 -84.5t82 -227.5q0 -159 -86 -255.5t-225 -96.5q-79 0 -130.5 20t-51.5 58v21q80 -39 169 -39q112 0 177 61.5
t80 167.5h-289z" />
    <glyph glyph-name="afii10048" unicode="&#x42e;" horiz-adv-x="909" 
d="M144 0h-59v615q0 22 10 27t49 5v-307h177v1q0 151 69 232t195 81q127 0 196.5 -81t69.5 -232q0 -154 -72 -252t-194 -98q-109 0 -178.5 80.5t-82.5 212.5h-180v-284zM789 341q0 127 -53 192t-151 65q-97 0 -149 -65t-52 -192q0 -133 54.5 -213t146.5 -80q93 0 148.5 80
t55.5 213z" />
    <glyph glyph-name="afii10049" unicode="&#x42f;" horiz-adv-x="591" 
d="M505 29q0 -23 -9.5 -27.5t-48.5 -4.5v238h-135l-141 -179q-27 -38 -49.5 -50.5t-54.5 -12.5q-21 0 -35 10.5t-14 31.5v13h13q53 0 90 46l131 155q-78 18 -125 66.5t-47 129.5q0 93 70 146t174 53h53q71 0 99.5 -28.5t28.5 -99.5v-487zM142 436q0 -69 51.5 -107t122.5 -38
h131v221q0 41 -18.5 59t-60.5 18h-34q-82 0 -137 -38.5t-55 -114.5z" />
    <glyph glyph-name="afii10065" unicode="&#x430;" horiz-adv-x="495" 
d="M43 130q0 116 167 135l146 18l-1 23q-8 128 -143 128q-60 0 -127 -31v20q0 26 47.5 45t100.5 19q166 0 178 -174l20 -285q1 -21 -9 -26t-48 -5l-8 134q-56 -141 -184 -141q-67 0 -103 41.5t-36 98.5zM108 131q0 -42 24 -68.5t68 -26.5q64 0 107.5 59t48.5 144l-141 -18
q-107 -12 -107 -90z" />
    <glyph glyph-name="afii10066" unicode="&#x431;" horiz-adv-x="509" 
d="M459 203q0 -98 -59.5 -155.5t-148.5 -57.5q-84 0 -142 56t-58 147q0 141 125 180q-119 28 -119 107q0 42 36.5 73.5t94.5 48t117 24t118 7.5q16 0 19.5 -11t3.5 -44q-80 0 -153 -10.5t-126 -35.5t-53 -59q0 -60 142 -76q93 0 148 -51t55 -143zM401 203q0 67 -37.5 105.5
t-107.5 38.5t-108 -39t-38 -105q0 -71 41 -115.5t105 -44.5q63 0 104 44.5t41 115.5z" />
    <glyph glyph-name="afii10067" unicode="&#x432;" horiz-adv-x="459" 
d="M404 134q0 -65 -51.5 -99.5t-126.5 -34.5h-26q-64 0 -94.5 27.5t-30.5 88.5v328q0 23 8.5 28t44.5 5h103q78 0 126 -29.5t48 -91.5q0 -85 -97 -117q96 -22 96 -105zM346 135q0 44 -36 60t-98 17h-82v-89q0 -39 18 -57.5t57 -18.5h17q54 0 89 22t35 66zM347 348
q0 81 -122 81h-95v-174h76q63 0 102 23t39 70z" />
    <glyph glyph-name="afii10068" unicode="&#x433;" horiz-adv-x="446" 
d="M412 425h-282v-425h-55v446q0 22 9 26.5t46 4.5h261q15 0 18 -10.5t3 -41.5z" />
    <glyph glyph-name="afii10069" unicode="&#x434;" horiz-adv-x="561" 
d="M481 -159q-12 -20 -25 -20q-12 0 -34 9q34 86 43 170h-390l-19 -151q-3 -15 -12.5 -18.5t-38.5 -3.5v203l81 11l85 384h-47q0 31 3 41.5t18 10.5h195q68 0 95 -27.5t27 -94.5v-314l74 -11v-8q-19 -117 -55 -181zM408 52v295q0 40 -17.5 59t-57.5 19h-113l-73 -373h261z
" />
    <glyph glyph-name="afii10070" unicode="&#x435;" horiz-adv-x="499" 
d="M423 70v-22q0 -26 -44 -42t-102 -16q-105 0 -166 68t-61 194q0 101 59 168t152 67q92 0 142.5 -59.5t50.5 -154.5q0 -59 -66 -59h-278q17 -170 191 -170q62 0 122 26zM260 436q-72 0 -111 -50t-41 -126h256q31 0 31 34q0 64 -36 103t-99 39z" />
    <glyph glyph-name="afii10072" unicode="&#x436;" horiz-adv-x="731" 
d="M647 -7q-30 0 -46.5 11t-37.5 44l-107 159q-6 -1 -18 -1h-45v-206h-55v206h-46q-12 0 -18 1l-106 -159q-20 -33 -38.5 -44t-47.5 -11q-16 0 -28.5 7t-12.5 20v16h8q39 0 68 41l104 143q-35 17 -56 56t-29 74.5t-29 63t-57 27.5h-9v13q0 29 40 29q38 0 60.5 -23.5
t33 -57.5t20.5 -67.5t31.5 -57t58.5 -23.5h53v194q0 22 8.5 26.5t46.5 4.5v-225h53q37 0 58.5 23.5t32 57t20.5 67.5t33.5 57.5t61.5 23.5q37 0 37 -29v-13h-8q-30 0 -48.5 -17.5t-28.5 -45.5t-19 -57.5t-28 -57.5t-47 -42l104 -144q29 -41 67 -41h9v-16q0 -13 -13.5 -20
t-29.5 -7z" />
    <glyph glyph-name="afii10073" unicode="&#x437;" horiz-adv-x="418" 
d="M358 123q0 -60 -51 -96.5t-121 -36.5q-56 0 -88 16t-32 44v19q53 -24 112 -24q54 0 88 23t34 60q0 41 -39 58t-122 17q-3 25 5 45q77 3 121 31.5t44 73.5q0 39 -30 60t-76 21q-49 0 -78 -24t-29 -57v-14h-16q-14 0 -23.5 9t-9.5 25q0 49 45.5 81.5t114.5 32.5
q71 0 115.5 -34t44.5 -94q0 -88 -121 -127q112 -21 112 -109z" />
    <glyph glyph-name="afii10074" unicode="&#x438;" horiz-adv-x="563" 
d="M488 28q0 -22 -9 -26.5t-46 -4.5v388l-313 -391q-25 2 -45 17v437q0 22 8.5 26.5t46.5 4.5v-387l313 388q22 -1 45 -16v-436z" />
    <glyph glyph-name="afii10075" unicode="&#x439;" horiz-adv-x="563" 
d="M488 28q0 -22 -9 -26.5t-46 -4.5v388l-313 -391q-25 2 -45 17v437q0 22 8.5 26.5t46.5 4.5v-387l313 388q22 -1 45 -16v-436zM290 575q-66 0 -105 36.5t-39 87.5q0 27 35 27q0 -46 32 -70.5t77 -24.5q44 0 76 24.5t32 70.5q36 0 36 -27q0 -51 -39.5 -87.5t-104.5 -36.5z
" />
    <glyph glyph-name="afii10076" unicode="&#x43a;" horiz-adv-x="505" 
d="M422 -7q-31 0 -48.5 10.5t-40.5 43.5l-119 160q-7 -1 -22 -1h-62v-206h-55v448q0 22 8.5 26.5t46.5 4.5v-225h72q32 0 54.5 17t33 42.5t22.5 55t23 55t35 42.5t59 17q38 0 38 -29v-13h-8q-32 0 -53.5 -17.5t-33.5 -44.5t-22.5 -56t-30.5 -57.5t-49 -43.5l117 -145
q32 -41 73 -41h9v-16q0 -13 -14.5 -20t-32.5 -7z" />
    <glyph glyph-name="afii10077" unicode="&#x43b;" horiz-adv-x="541" 
d="M466 28q0 -22 -9 -26.5t-46 -4.5v350q0 40 -17 59t-57 19h-127l-43 -333q-13 -102 -96 -102q-55 0 -55 37v20q18 -6 38 -6q50 0 59 63l49 321h-47q0 31 3 41.5t18 10.5h208q67 0 94.5 -27.5t27.5 -94.5v-327z" />
    <glyph glyph-name="afii10078" unicode="&#x43c;" horiz-adv-x="652" 
d="M576 28q0 -22 -9 -26.5t-43 -4.5v387q-71 -154 -170 -307q-20 -10 -55 -12q-97 153 -171 318v-383h-53v459q29 19 68 22q72 -175 183 -353q91 144 182 334q23 15 68 19v-453z" />
    <glyph glyph-name="afii10079" unicode="&#x43d;" horiz-adv-x="550" 
d="M130 0h-55v448q0 22 8.5 26.5t46.5 4.5v-226h290v224h55v-449q0 -22 -9 -26.5t-46 -4.5v207h-290v-204z" />
    <glyph glyph-name="afii10080" unicode="&#x43e;" horiz-adv-x="540" 
d="M490 249q0 -114 -61.5 -186.5t-158.5 -72.5t-158.5 72.5t-61.5 186.5t58 176t162 62t162 -62t58 -176zM432 249q0 88 -41.5 137.5t-120.5 49.5t-120.5 -49.5t-41.5 -137.5q0 -87 44.5 -146.5t117.5 -59.5t117.5 59.5t44.5 146.5z" />
    <glyph glyph-name="afii10081" unicode="&#x43f;" horiz-adv-x="551" 
d="M475 28q0 -22 -8.5 -26.5t-45.5 -4.5v350q0 40 -17.5 59t-57.5 19h-216v-425h-55v446q0 22 9 26.5t46 4.5h223q68 0 95 -27.5t27 -94.5v-327z" />
    <glyph glyph-name="afii10082" unicode="&#x440;" horiz-adv-x="558" 
d="M130 -165h-55v613q0 22 8.5 26.5t46.5 4.5v-135q27 67 77.5 105t116.5 38q87 0 135.5 -62.5t48.5 -162.5q0 -111 -62 -191.5t-161 -80.5q-109 0 -155 93v-248zM450 262q0 75 -35.5 124.5t-104.5 49.5q-77 0 -125 -66.5t-48 -167.5q0 -63 38 -111t101 -48q81 0 127.5 65.5
t46.5 153.5z" />
    <glyph glyph-name="afii10083" unicode="&#x441;" horiz-adv-x="479" 
d="M418 70v-20q0 -28 -43.5 -44t-97.5 -16q-106 0 -166.5 70t-60.5 193q0 101 66 167.5t164 66.5q65 0 109.5 -32t44.5 -92q0 -20 -8.5 -31.5t-22.5 -11.5h-19v17q0 50 -30 74.5t-78 24.5q-74 0 -121 -54t-47 -129q0 -96 46.5 -152.5t142.5 -56.5q66 0 121 26z" />
    <glyph glyph-name="afii10084" unicode="&#x442;" horiz-adv-x="468" 
d="M258 0h-54v425h-174v52h387q15 0 18.5 -11t3.5 -41h-181v-425z" />
    <glyph glyph-name="afii10085" unicode="&#x443;" 
d="M476 477v-9l-175 -462q-7 -93 -44 -137t-95 -44q-28 0 -47.5 10.5t-19.5 30.5v21q28 -7 47 -7q89 0 101 119q-140 242 -217 478h66q57 -189 177 -406l147 406h60z" />
    <glyph glyph-name="afii10086" unicode="&#x444;" horiz-adv-x="781" 
d="M50 214q0 110 54 191.5t140 81.5q83 0 120 -81v243q0 23 8 27t44 4v-347q23 70 66.5 112t100.5 42q69 0 108.5 -57t39.5 -155q0 -110 -54.5 -191.5t-139.5 -81.5q-86 0 -121 83v-250h-52v318q-23 -69 -66.5 -110t-100.5 -41q-69 0 -108 57t-39 155zM108 214
q0 -76 28.5 -118.5t80.5 -42.5q62 0 101.5 69.5t39.5 158.5q0 71 -29.5 112t-78.5 41q-66 0 -104 -66t-38 -154zM673 275q0 76 -28.5 118.5t-80.5 42.5q-62 0 -101.5 -69.5t-39.5 -158.5q0 -71 29.5 -112t78.5 -41q66 0 104 66t38 154z" />
    <glyph glyph-name="afii10087" unicode="&#x445;" horiz-adv-x="497" 
d="M465 0h-64l-155 201q-83 -86 -144 -201h-64q70 133 179 242l-172 226v9h64l153 -200q82 92 136 200h61q-68 -134 -167 -243l173 -225v-9z" />
    <glyph glyph-name="afii10088" unicode="&#x446;" horiz-adv-x="569" 
d="M489 -159q-12 -20 -25 -20q-12 0 -34 9q34 86 43 170h-275q-68 0 -95.5 27t-27.5 94v327q0 22 8.5 26.5t46.5 4.5v-350q0 -40 17.5 -58.5t57.5 -18.5h211v425h54v-436l75 -11v-8q-19 -114 -56 -181z" />
    <glyph glyph-name="afii10089" unicode="&#x447;" horiz-adv-x="527" 
d="M452 28q0 -22 -9 -26.5t-46 -4.5v248q-27 -53 -73 -81.5t-102 -28.5q-73 0 -116 46.5t-43 127.5v139q0 22 8.5 26.5t46.5 4.5v-144q0 -72 32 -110.5t93 -38.5q63 0 108.5 46.5t45.5 126.5v118h55v-449z" />
    <glyph glyph-name="afii10090" unicode="&#x448;" horiz-adv-x="812" 
d="M736 31q0 -20 -7.5 -25.5t-33.5 -5.5h-497q-68 0 -95.5 27t-27.5 94v327q0 22 8.5 26.5t46.5 4.5v-350q0 -40 17.5 -58.5t57.5 -18.5h177v425h54v-425h246v425h54v-446z" />
    <glyph glyph-name="afii10091" unicode="&#x449;" horiz-adv-x="835" 
d="M736 477v-436l75 -11v-8q-21 -119 -56 -181q-12 -20 -25 -20q-12 0 -34 9q34 86 43 170h-541q-68 0 -95.5 27t-27.5 94v327q0 22 8.5 26.5t46.5 4.5v-350q0 -40 17.5 -58.5t57.5 -18.5h177v425h54v-425h246v425h54z" />
    <glyph glyph-name="afii10092" unicode="&#x44a;" horiz-adv-x="567" 
d="M523 148q0 -72 -49 -110t-121 -38h-30q-63 0 -93.5 27.5t-30.5 88.5v309h-169v52h169q37 0 46 -4.5t9 -26.5v-168h99q77 0 123.5 -31t46.5 -99zM348 230h-94v-108q0 -74 74 -74h22q49 0 81.5 24t32.5 72q0 46 -33 66t-83 20z" />
    <glyph glyph-name="afii10093" unicode="&#x44b;" horiz-adv-x="616" 
d="M399 148q0 -72 -49 -110t-121 -38h-29q-64 0 -94.5 27.5t-30.5 88.5v338q0 17 10 21t45 4v-201h99q77 0 123.5 -31t46.5 -99zM225 230h-95v-108q0 -74 75 -74h21q49 0 82 24t33 72q0 46 -33.5 66t-82.5 20zM540 0h-54v448q0 22 8.5 26.5t45.5 4.5v-479z" />
    <glyph glyph-name="afii10094" unicode="&#x44c;" horiz-adv-x="444" 
d="M399 148q0 -72 -49 -110t-121 -38h-29q-64 0 -94.5 27.5t-30.5 88.5v338q0 17 10 21t45 4v-201h99q77 0 123.5 -31t46.5 -99zM225 230h-95v-108q0 -74 75 -74h21q49 0 82 24t33 72q0 46 -33.5 66t-82.5 20z" />
    <glyph glyph-name="afii10095" unicode="&#x44d;" horiz-adv-x="486" 
d="M436 253q0 -122 -66 -192.5t-173 -70.5q-58 0 -96.5 15.5t-38.5 44.5v22q57 -27 124 -27q83 0 130 42t58 117h-214v48h218v1q0 78 -45 130.5t-123 52.5q-49 0 -82 -25t-33 -74v-17h-18q-14 0 -23 11.5t-9 31.5q0 60 50 92t117 32q103 0 163.5 -64t60.5 -170z" />
    <glyph glyph-name="afii10096" unicode="&#x44e;" horiz-adv-x="743" 
d="M130 0h-55v448q0 22 8.5 26.5t46.5 4.5v-226h134q0 111 58 172.5t156 61.5t156.5 -62t58.5 -174q0 -113 -59 -187t-156 -74q-87 0 -143 59t-68 155h-137v-204zM633 251q0 87 -41 136t-114 49t-113.5 -49t-40.5 -136q0 -88 41 -148t113 -60t113.5 60t41.5 148z" />
    <glyph glyph-name="afii10097" unicode="&#x44f;" horiz-adv-x="500" 
d="M425 28q0 -22 -9 -26.5t-46 -4.5v173h-118l-100 -126q-36 -51 -88 -51q-38 0 -38 27v16h8q40 0 69 37l94 110q-131 30 -131 143q0 71 55 111t136 40h46q67 0 94.5 -27.5t27.5 -94.5v-327zM126 318q0 -50 37 -75.5t89 -25.5h118v130q0 40 -17 59t-57 19h-36
q-57 0 -95.5 -28t-38.5 -79z" />
    <glyph glyph-name="uni0450" unicode="&#x450;" horiz-adv-x="499" 
d="M423 70v-22q0 -26 -44 -42t-102 -16q-105 0 -166 68t-61 194q0 101 59 168t152 67q92 0 142.5 -59.5t50.5 -154.5q0 -59 -66 -59h-278q17 -170 191 -170q62 0 122 26zM260 436q-72 0 -111 -50t-41 -126h256q31 0 31 34q0 64 -36 103t-99 39zM126 660q6 37 37 68l174 -129
l-16 -31h-8z" />
    <glyph glyph-name="afii10071" unicode="&#x451;" horiz-adv-x="499" 
d="M423 70v-22q0 -26 -44 -42t-102 -16q-105 0 -166 68t-61 194q0 101 59 168t152 67q92 0 142.5 -59.5t50.5 -154.5q0 -59 -66 -59h-278q17 -170 191 -170q62 0 122 26zM260 436q-72 0 -111 -50t-41 -126h256q31 0 31 34q0 64 -36 103t-99 39zM398 644q0 -44 -42 -44
t-42 44q0 43 42 43t42 -43zM221 644q0 -44 -42 -44t-42 44q0 43 42 43t42 -43z" />
    <glyph glyph-name="afii10099" unicode="&#x452;" horiz-adv-x="548" 
d="M317 522h-185v-191q26 51 72 78t95 27q95 0 145.5 -70t50.5 -199q0 -92 -21.5 -168t-66.5 -125t-107 -49q-61 0 -61 36v21q18 -6 42 -6q51 0 87 43t51.5 107t15.5 141q0 102 -38 159.5t-112 57.5q-60 0 -106.5 -46.5t-46.5 -126.5v-211h-54v522h-76v46h76v48
q0 22 8.5 26.5t45.5 4.5v-79h185v-46z" />
    <glyph glyph-name="afii10100" unicode="&#x453;" horiz-adv-x="446" 
d="M388 660l-188 -92h-7l-16 31l174 129q29 -29 37 -68zM412 425h-282v-425h-55v446q0 22 9 26.5t46 4.5h261q15 0 18 -10.5t3 -41.5z" />
    <glyph glyph-name="afii10101" unicode="&#x454;" horiz-adv-x="486" 
d="M324 204h-213q25 -159 189 -159q67 0 124 27v-22q0 -29 -41 -44.5t-100 -15.5q-107 0 -170 70t-63 193q0 101 66.5 167.5t166.5 66.5q65 0 111 -32t46 -92q0 -20 -8.5 -31.5t-22.5 -11.5h-18v17q0 50 -31.5 74.5t-80.5 24.5q-75 0 -123 -54t-48 -129v-1h216v-48z" />
    <glyph glyph-name="afii10102" unicode="&#x455;" horiz-adv-x="408" 
d="M351 127q0 -66 -47.5 -101.5t-115.5 -35.5q-46 0 -80 16t-34 42v24q52 -27 113 -27q46 0 77 19.5t31 55.5q0 26 -18.5 44t-46.5 26.5t-60 19.5t-60 23.5t-46.5 40t-18.5 67.5q0 62 45.5 104t123.5 42q65 0 106.5 -32t41.5 -76q0 -39 -30 -39h-15v14q0 34 -28.5 57
t-76.5 23q-52 0 -81.5 -25t-29.5 -58q0 -31 18.5 -52t46.5 -30.5t60 -20.5t60 -22t46.5 -36.5t18.5 -62.5z" />
    <glyph glyph-name="afii10103" unicode="&#x456;" horiz-adv-x="205" 
d="M130 0h-55v448q0 22 8.5 26.5t46.5 4.5v-479zM147 644q0 -44 -42 -44t-42 44t42 44t42 -44z" />
    <glyph glyph-name="afii10104" unicode="&#x457;" horiz-adv-x="205" 
d="M130 0h-55v448q0 22 8.5 26.5t46.5 4.5v-479zM211 644q0 -42 -40 -42t-40 42q0 41 40 41t40 -41zM82 644q0 -42 -40 -42t-40 42q0 41 40 41t40 -41z" />
    <glyph glyph-name="afii10105" unicode="&#x458;" horiz-adv-x="216" 
d="M140 479v-557q0 -44 -25 -70.5t-65 -26.5q-55 0 -55 35v25q14 -5 35 -5q25 0 40.5 16.5t15.5 42.5v509q0 22 8.5 26.5t45.5 4.5zM158 644q0 -44 -43 -44q-42 0 -42 44t42 44q43 0 43 -44z" />
    <glyph glyph-name="afii10106" unicode="&#x459;" horiz-adv-x="763" 
d="M718 148q0 -72 -48.5 -110t-121.5 -38h-29q-64 0 -94.5 27.5t-30.5 88.5v231q0 40 -17.5 59t-56.5 19h-110l-43 -333q-13 -102 -96 -102q-55 0 -55 37v20q18 -6 38 -6q50 0 59 63l49 321h-47q0 31 3 41.5t18 10.5h190q68 0 95.5 -27.5t27.5 -94.5v-77h99q77 0 123.5 -31
t46.5 -99zM544 230h-95v-108q0 -74 75 -74h21q49 0 82 24t33 72q0 46 -33.5 66t-82.5 20z" />
    <glyph glyph-name="afii10107" unicode="&#x45a;" horiz-adv-x="768" 
d="M130 0h-55v448q0 22 8.5 26.5t46.5 4.5v-226h270v224h55v-199h99q77 0 123.5 -31t46.5 -99q0 -72 -49 -110t-121 -38h-30q-63 0 -93.5 27.5t-30.5 88.5v88h-270v-204zM549 230h-94v-108q0 -74 74 -74h22q49 0 82 24t33 72q0 46 -33.5 66t-83.5 20z" />
    <glyph glyph-name="afii10108" unicode="&#x45b;" horiz-adv-x="551" 
d="M306 523h-171v-200q27 55 78 84t108 29q73 0 117 -44t44 -126v-238q0 -22 -8.5 -26.5t-45.5 -4.5v243q0 70 -35 107t-93 37q-64 0 -114.5 -47t-50.5 -129v-208h-55v523h-78v45h78v48q0 22 9 26.5t46 4.5v-79h171v-45z" />
    <glyph glyph-name="afii10109" unicode="&#x45c;" horiz-adv-x="505" 
d="M422 -7q-31 0 -48.5 10.5t-40.5 43.5l-119 160q-7 -1 -22 -1h-62v-206h-55v448q0 22 8.5 26.5t46.5 4.5v-225h72q32 0 54.5 17t33 42.5t22.5 55t23 55t35 42.5t59 17q38 0 38 -29v-13h-8q-32 0 -53.5 -17.5t-33.5 -44.5t-22.5 -56t-30.5 -57.5t-49 -43.5l117 -145
q32 -41 73 -41h9v-16q0 -13 -14.5 -20t-32.5 -7zM392 660l-188 -92h-7l-16 31l174 129q29 -29 37 -68z" />
    <glyph glyph-name="uni045D" unicode="&#x45d;" horiz-adv-x="563" 
d="M488 28q0 -22 -9 -26.5t-46 -4.5v388l-313 -391q-25 2 -45 17v437q0 22 8.5 26.5t46.5 4.5v-387l313 388q22 -1 45 -16v-436zM145 660q6 37 37 68l174 -129l-16 -31h-8z" />
    <glyph glyph-name="afii10110" unicode="&#x45e;" 
d="M476 477v-9l-175 -462q-7 -93 -44 -137t-95 -44q-28 0 -47.5 10.5t-19.5 30.5v21q28 -7 47 -7q89 0 101 119q-140 242 -217 478h66q57 -189 177 -406l147 406h60zM262 575q-66 0 -105 36.5t-39 87.5q0 27 35 27q0 -46 32 -70.5t77 -24.5q44 0 76 24.5t32 70.5
q36 0 36 -27q0 -51 -39.5 -87.5t-104.5 -36.5z" />
    <glyph glyph-name="afii10193" unicode="&#x45f;" horiz-adv-x="564" 
d="M493 31q0 -22 -8.5 -26.5t-45.5 -4.5h-110q-20 -103 -52 -159q-12 -20 -26 -20q-11 0 -33 9q35 88 42 170h-62q-68 0 -95.5 27t-27.5 94v327q0 22 8.5 26.5t46.5 4.5v-353q0 -40 17.5 -59t57.5 -19h234v429h54v-446z" />
    <glyph glyph-name="afii10050" unicode="&#x490;" horiz-adv-x="526" 
d="M491 605l-103 -19h-244v-586h-58v612q0 23 11 27.5t50 4.5h277q3 16 5.5 35t4.5 31.5t4.5 27t4 23.5t4 19t5 15.5t5.5 10.5t6.5 7t7.5 2q0 2 20 2v-212z" />
    <glyph glyph-name="afii10098" unicode="&#x491;" horiz-adv-x="455" 
d="M421 447l-106 -22h-185v-425h-55v446q0 22 9 26.5t46 4.5h222q3 16 5.5 35t4.5 31.5t4.5 27t4 23.5t4 19t5 15.5t5.5 10.5t7 7t8 2q0 2 21 2v-203z" />
    <glyph glyph-name="uni0492" unicode="&#x492;" horiz-adv-x="550" 
d="M362 268h-182v-268h-58v268h-102v53h102v291q0 23 10 27.5t48 4.5h313q15 0 19 -13t4 -46h-336v-264h182v-53z" />
    <glyph glyph-name="uni0493" unicode="&#x493;" horiz-adv-x="470" 
d="M303 192h-150v-192h-54v192h-72v46h72v208q0 22 8.5 26.5t45.5 4.5h260q15 0 18 -10.5t3 -41.5h-281v-187h150v-46z" />
    <glyph glyph-name="uni0494" unicode="&#x494;" horiz-adv-x="602" 
d="M546 113q0 -117 -61.5 -202.5t-166.5 -85.5q-71 0 -71 42v23q24 -7 55 -7q84 0 132.5 64t48.5 160q0 88 -41 134t-120 46q-74 0 -126 -49t-52 -113v-125h-58v612q0 23 10 27.5t48 4.5h351q15 0 19 -13t4 -46h-374v-345q25 46 76 75.5t117 29.5q99 0 154 -61.5t55 -170.5z
" />
    <glyph glyph-name="uni0495" unicode="&#x495;" horiz-adv-x="507" 
d="M271 -175q-60 0 -60 36v20q16 -5 41 -5q66 0 106 54.5t40 126.5q0 67 -32 106t-97 39q-54 0 -96.5 -35t-42.5 -91v-76h-55v446q0 22 9 26.5t46 4.5h279q15 0 18 -10.5t3 -41.5h-300v-252q23 37 66 58.5t91 21.5q81 0 126 -50.5t45 -137.5q0 -102 -52.5 -171t-134.5 -69z
" />
    <glyph glyph-name="uni0496" unicode="&#x496;" horiz-adv-x="912" 
d="M790 -179q-10 0 -33 9q32 81 42 165q-48 7 -86 71l-138 219q-20 -2 -32 -2h-58v-283h-58v283h-58q-12 0 -32 2l-138 -219q-26 -43 -51.5 -58t-61.5 -15q-21 0 -34.5 10.5t-13.5 31.5v13h13q33 0 55 12.5t43 43.5l131 200q-32 19 -53.5 57t-33 77t-25.5 75.5t-41.5 59.5
t-70.5 23h-13v13q0 42 51 42q50 0 81 -32t45.5 -78t28 -92t41.5 -78t73 -32h64v276q0 22 10 27t48 5v-308h64q45 0 73 32t41.5 78t28.5 92t46.5 78t82.5 32q48 0 48 -42v-13h-13q-43 0 -70.5 -23t-41.5 -59.5t-26 -75.5t-33.5 -77t-53.5 -57l133 -200q21 -32 41 -46t55 -20
l15 -2v-9q-22 -120 -59 -186q-12 -20 -26 -20z" />
    <glyph glyph-name="uni0497" unicode="&#x497;" horiz-adv-x="731" 
d="M610 -179q-10 0 -33 9q33 90 42 166q-28 6 -56 52l-107 159q-6 -1 -18 -1h-45v-206h-55v206h-46q-12 0 -18 1l-106 -159q-20 -33 -38.5 -44t-47.5 -11q-16 0 -28.5 7t-12.5 20v16h8q39 0 68 41l104 143q-35 17 -56 56t-29 74.5t-29 63t-57 27.5h-9v13q0 29 40 29
q38 0 60.5 -23.5t33 -57.5t20.5 -67.5t31.5 -57t58.5 -23.5h53v194q0 22 8.5 26.5t46.5 4.5v-225h53q37 0 58.5 23.5t32 57t20.5 67.5t33.5 57.5t61.5 23.5q37 0 37 -29v-13h-8q-30 0 -48.5 -17.5t-28.5 -45.5t-19 -57.5t-28 -57.5t-47 -42l104 -144q28 -40 64 -45l13 -2v-8
q-19 -117 -55 -181q-12 -20 -26 -20z" />
    <glyph glyph-name="uni0498" unicode="&#x498;" horiz-adv-x="487" 
d="M299 -135q0 -27 -16 -47.5t-33 -20.5q-4 0 -12 4l-10 6q20 22 20 42q0 47 -78 60q5 45 23 82q-126 7 -126 72v20q61 -33 140 -33q69 0 110 32.5t41 85.5q0 110 -204 110q-3 29 7 54q100 7 156 48t56 105q0 52 -38 82.5t-98 30.5q-63 0 -101 -35t-38 -77v-20h-20
q-14 0 -24.5 10.5t-10.5 28.5q0 66 58 107.5t139 41.5q88 0 142 -45.5t54 -118.5q0 -63 -41 -109.5t-115 -69.5q140 -30 140 -146q0 -77 -55 -123.5t-138 -50.5q-9 -22 -13 -41q85 -21 85 -85z" />
    <glyph glyph-name="uni0499" unicode="&#x499;" horiz-adv-x="419" 
d="M273 -135q0 -27 -16.5 -47.5t-33.5 -20.5q-5 0 -11 4l-10 6q19 21 19 42q0 47 -78 60q8 51 23 82q-100 6 -100 59v19q53 -24 112 -24q54 0 88 23t34 60q0 41 -39 58t-122 17q-3 25 5 45q77 3 121 31.5t44 73.5q0 39 -30 60t-76 21q-49 0 -78 -24t-29 -57v-14h-16
q-14 0 -23.5 9t-9.5 25q0 49 45.5 81.5t114.5 32.5q71 0 115.5 -34t44.5 -94q0 -88 -121 -127q112 -21 112 -109q0 -57 -45.5 -92.5t-112.5 -39.5q-7 -18 -12 -41q85 -22 85 -85z" />
    <glyph glyph-name="uni049A" unicode="&#x49a;" horiz-adv-x="601" 
d="M480 -179q-12 0 -33 9q32 81 42 165q-45 7 -87 66l-162 223q-9 -1 -27 -1h-69v-283h-59v615q0 22 10 27t49 5v-308h76q45 0 75.5 23t44 57.5t28 75t28.5 75t44.5 57.5t75.5 23q44 0 44 -41v-13h-13q-42 0 -69.5 -24t-43 -62t-29.5 -78t-40 -77.5t-65 -55.5l153 -200
q21 -29 42 -42t56 -19l14 -2v-9q-22 -120 -59 -186q-12 -20 -26 -20z" />
    <glyph glyph-name="uni049B" unicode="&#x49b;" horiz-adv-x="507" 
d="M393 -179q-11 0 -33 9q32 84 41 165q-34 5 -66 52l-119 160q-7 -1 -22 -1h-64v-206h-55v448q0 22 8.5 26.5t46.5 4.5v-225h73q38 0 62 23.5t36 57t25 67.5t38.5 57.5t66.5 23.5q38 0 38 -29v-13h-9q-32 0 -53 -17.5t-33 -44.5t-22.5 -56t-30.5 -57.5t-49 -43.5l117 -145
q30 -38 72 -45l13 -2v-8q-19 -117 -55 -181q-12 -20 -26 -20z" />
    <glyph glyph-name="uni04A0" unicode="&#x4a0;" horiz-adv-x="761" 
d="M673 -7q-34 0 -58 14t-52 54l-163 223q-9 -1 -26 -1h-70v-283h-58v586h-211v58h211q39 0 48.5 -4.5t9.5 -27.5v-273h76q53 0 85.5 32t47.5 78t30 91.5t47.5 77.5t85.5 32q44 0 44 -41v-13h-13q-42 0 -69.5 -24t-43 -62t-29.5 -78t-40 -77.5t-65 -55.5l153 -200
q22 -29 44 -40t54 -11h13v-13q0 -21 -15.5 -31.5t-35.5 -10.5z" />
    <glyph glyph-name="uni04A1" unicode="&#x4a1;" horiz-adv-x="625" 
d="M542 -7q-31 0 -48 10.5t-41 43.5l-119 160q-7 -1 -22 -1h-58v-206h-55v425h-169v52h169q37 0 46 -4.5t9 -26.5v-192h68q32 0 54.5 17t33 42.5t22.5 55t23 55t35 42.5t59 17q38 0 38 -29v-13h-8q-32 0 -53.5 -17.5t-33.5 -44.5t-22.5 -56t-30.5 -57.5t-49 -43.5l117 -145
q32 -41 73 -41h9v-16q0 -13 -14.5 -20t-32.5 -7z" />
    <glyph glyph-name="uni04A2" unicode="&#x4a2;" horiz-adv-x="697" 
d="M583 0h-59v284h-380v-284h-59v615q0 22 10 27t49 5v-307h380v304h58v-598l77 -10v-9q-22 -120 -59 -186q-12 -20 -26 -20q-10 0 -33 9q35 88 42 170z" />
    <glyph glyph-name="uni04A3" unicode="&#x4a3;" horiz-adv-x="573" 
d="M130 0h-55v448q0 22 8.5 26.5t46.5 4.5v-226h290v224h55v-439l74 -11v-9q-19 -112 -55 -177q-12 -20 -25 -20q-11 0 -34 9q35 88 42 170h-57v204h-290v-204z" />
    <glyph glyph-name="uni04A4" unicode="&#x4a4;" horiz-adv-x="931" 
d="M896 585h-328v-585h-58v284h-366v-284h-59v615q0 22 10 27t49 5v-307h366v272q0 23 10 27.5t48 4.5h306q8 0 12.5 -3t6.5 -12.5t2.5 -17.5t0.5 -26z" />
    <glyph glyph-name="uni04A5" unicode="&#x4a5;" horiz-adv-x="764" 
d="M130 0h-55v448q0 22 8.5 26.5t46.5 4.5v-226h275v193q0 22 8.5 26.5t45.5 4.5h249q15 0 18 -10.5t3 -41.5h-270v-425h-54v204h-275v-204z" />
    <glyph glyph-name="uni04AA" unicode="&#x4aa;" horiz-adv-x="618" 
d="M403 -135q0 -27 -16.5 -47.5t-33.5 -20.5q-5 0 -11 4l-10 6q19 21 19 42q0 47 -78 60q8 52 26 87q-115 20 -178 109t-63 234q0 136 84 225.5t217 89.5q90 0 149 -43t59 -114q0 -22 -11 -35t-27 -13h-20v18q0 61 -42 95t-111 34q-103 0 -169.5 -74.5t-66.5 -182.5
q0 -131 66 -210t193 -79q90 0 170 40v-21q0 -38 -55.5 -58.5t-130.5 -20.5q-11 0 -33 2q-8 -20 -12 -42q85 -22 85 -85z" />
    <glyph glyph-name="uni04AB" unicode="&#x4ab;" horiz-adv-x="479" 
d="M326 -135q0 -27 -16 -47.5t-33 -20.5q-4 0 -12 4l-10 6q20 22 20 42q0 47 -78 60q6 50 25 87q-82 17 -127 83.5t-45 173.5q0 101 66 167.5t164 66.5q65 0 109.5 -32t44.5 -92q0 -20 -8.5 -31.5t-22.5 -11.5h-19v17q0 50 -30 74.5t-78 24.5q-74 0 -121 -54t-47 -129
q0 -96 46.5 -152.5t142.5 -56.5q66 0 121 26v-20q0 -28 -43.5 -44t-97.5 -16q-16 0 -23 1q-10 -25 -13 -41q85 -21 85 -85z" />
    <glyph glyph-name="uni04AE" unicode="&#x4ae;" horiz-adv-x="590" 
d="M324 0h-58v213l-232 422v9h64l200 -365q122 178 196 365h70q-96 -225 -240 -429v-215z" />
    <glyph glyph-name="uni04AF" unicode="&#x4af;" horiz-adv-x="513" 
d="M285 -137q0 -22 -9 -26.5t-46 -4.5v195l-193 443v7h64l159 -384q98 164 169 384h63q-84 -249 -207 -441v-173z" />
    <glyph glyph-name="uni04B0" unicode="&#x4b0;" horiz-adv-x="590" 
d="M324 0h-58v125h-147v54h147v34l-232 422v9h64l200 -365q122 178 196 365h70q-96 -225 -240 -429v-36h148v-54h-148v-125z" />
    <glyph glyph-name="uni04B1" unicode="&#x4b1;" horiz-adv-x="513" 
d="M285 -137q0 -22 -9 -26.5t-46 -4.5v134h-134v45h134v16l-193 443v7h64l159 -384q98 164 169 384h63q-84 -249 -207 -441v-25h132v-45h-132v-103z" />
    <glyph glyph-name="uni04B2" unicode="&#x4b2;" horiz-adv-x="610" 
d="M513 0h-12l-200 280q-108 -115 -189 -280h-70q99 197 226 329l-216 306v9h67l198 -277q109 130 176 277h68q-79 -176 -211 -326l197 -275l42 -7v-9q-22 -120 -59 -186q-12 -20 -26 -20q-12 0 -33 9q35 88 42 170z" />
    <glyph glyph-name="uni04B3" unicode="&#x4b3;" horiz-adv-x="502" 
d="M292 234l154 -200l37 -7v-9q-19 -112 -55 -177q-12 -20 -26 -20q-11 0 -33 9q36 87 45 170h-13l-155 201q-83 -86 -144 -201h-64q70 133 179 242l-172 226v9h64l153 -200q82 92 136 200h61q-68 -134 -167 -243z" />
    <glyph glyph-name="uni04B6" unicode="&#x4b6;" horiz-adv-x="671" 
d="M497 0v306q-32 -65 -90.5 -100t-128.5 -35q-94 0 -149.5 59.5t-55.5 165.5v219q0 22 10 27t48 5v-216q0 -98 44 -149t124 -51q81 0 139.5 60t58.5 159v194h58v-598l78 -10v-9q-21 -115 -59 -186q-14 -20 -26 -20t-33 9q33 89 42 170h-60z" />
    <glyph glyph-name="uni04B7" unicode="&#x4b7;" horiz-adv-x="551" 
d="M397 0v245q-27 -53 -73 -81.5t-102 -28.5q-73 0 -116 46.5t-43 127.5v139q0 22 8.5 26.5t46.5 4.5v-144q0 -72 32 -110.5t93 -38.5q63 0 108.5 46.5t45.5 126.5v118h55v-439l75 -11v-9q-18 -109 -56 -177q-12 -20 -25 -20q-12 0 -34 9q34 86 43 170h-58z" />
    <glyph glyph-name="uni04BA" unicode="&#x4ba;" horiz-adv-x="638" 
d="M80 615q0 22 10 27t48 5v-351q32 65 90.5 100t128.5 35q96 0 151 -58t55 -167v-177q0 -22 -10 -27t-48 -5v174q0 98 -44 149t-125 51t-139.5 -60t-58.5 -159v-152h-58v615z" />
    <glyph glyph-name="uni04BB" unicode="&#x4bb;" horiz-adv-x="527" 
d="M75 448q0 22 8.5 26.5t46.5 4.5v-273q27 54 75.5 83t103.5 29q68 0 111.5 -44t43.5 -123v-123q0 -22 -9 -26.5t-46 -4.5v127q0 70 -32.5 106.5t-88.5 36.5q-62 0 -110 -46.5t-48 -129.5v-91h-55v448z" />
    <glyph glyph-name="uni04C0" unicode="&#x4c0;" horiz-adv-x="229" 
d="M144 0h-59v615q0 22 10 27t49 5v-647z" />
    <glyph glyph-name="uni04CF" unicode="&#x4cf;" horiz-adv-x="205" 
d="M130 0h-55v448q0 22 8.5 26.5t46.5 4.5v-479z" />
    <glyph glyph-name="uni04D0" unicode="&#x4d0;" horiz-adv-x="654" 
d="M333 707q-66 0 -105 36t-39 87q0 27 35 27q0 -46 32 -70.5t77 -24.5q44 0 76 24.5t32 70.5q36 0 36 -27q0 -51 -39.5 -87t-104.5 -36zM618 0h-68l-61 159h-329q-27 -78 -51 -159h-67q94 301 239 578q17 35 10 53q32 19 71 21l256 -643v-9zM470 216l-135 348
q-89 -167 -156 -348h291z" />
    <glyph glyph-name="uni04D1" unicode="&#x4d1;" horiz-adv-x="495" 
d="M43 130q0 116 167 135l146 18l-1 23q-8 128 -143 128q-60 0 -127 -31v20q0 26 47.5 45t100.5 19q166 0 178 -174l20 -285q1 -21 -9 -26t-48 -5l-8 134q-56 -141 -184 -141q-67 0 -103 41.5t-36 98.5zM108 131q0 -42 24 -68.5t68 -26.5q64 0 107.5 59t48.5 144l-141 -18
q-107 -12 -107 -90zM252 575q-66 0 -105 36.5t-39 87.5q0 27 35 27q0 -46 32 -70.5t77 -24.5q44 0 76 24.5t32 70.5q36 0 36 -27q0 -51 -39.5 -87.5t-104.5 -36.5z" />
    <glyph glyph-name="uni04D2" unicode="&#x4d2;" horiz-adv-x="654" 
d="M289 775q0 -43 -42 -43t-42 43t42 43t42 -43zM466 775q0 -43 -42 -43t-42 43t42 43t42 -43zM618 0h-68l-61 159h-329q-27 -78 -51 -159h-67q94 301 239 578q17 35 10 53q32 19 71 21l256 -643v-9zM470 216l-135 348q-89 -167 -156 -348h291z" />
    <glyph glyph-name="uni04D3" unicode="&#x4d3;" horiz-adv-x="495" 
d="M43 130q0 116 167 135l146 18l-1 23q-8 128 -143 128q-60 0 -127 -31v20q0 26 47.5 45t100.5 19q166 0 178 -174l20 -285q1 -21 -9 -26t-48 -5l-8 134q-56 -141 -184 -141q-67 0 -103 41.5t-36 98.5zM108 131q0 -42 24 -68.5t68 -26.5q64 0 107.5 59t48.5 144l-141 -18
q-107 -12 -107 -90zM384 644q0 -44 -42 -44t-42 44q0 43 42 43t42 -43zM207 644q0 -44 -42 -44t-42 44q0 43 42 43t42 -43z" />
    <glyph glyph-name="uni04D4" unicode="&#x4d4;" horiz-adv-x="874" 
d="M761 284h-253v-149q0 -41 18.5 -59t60.5 -18h236v-58h-245q-71 0 -100 28.5t-29 99.5v31h-288q-46 -80 -85 -159h-68q87 173 174.5 306.5t202.5 277.5q22 28 17 44q33 16 80 16h312q8 0 12.5 -3t6.5 -12t2.5 -17t0.5 -26h-308v-246h253v-56zM449 579q-143 -177 -255 -363
h255v363z" />
    <glyph glyph-name="uni04D5" unicode="&#x4d5;" horiz-adv-x="816" 
d="M232 487q129 0 165 -109q28 51 75.5 80t108.5 29q92 0 142.5 -59.5t50.5 -154.5q0 -59 -67 -59h-284q17 -170 195 -170q64 0 122 26v-22q0 -27 -42 -42.5t-101 -15.5q-85 0 -142 43t-78 125q-25 -80 -74.5 -124t-121.5 -44q-66 0 -102.5 41.5t-36.5 98.5q0 55 43 90
t126 45l148 18l-2 23q-8 128 -145 128q-58 0 -125 -30v20q0 26 46 44.5t99 18.5zM577 436q-73 0 -113.5 -50t-42.5 -126h262q32 0 32 34q0 64 -37 103t-101 39zM107 131q0 -42 24.5 -68.5t69.5 -26.5q65 0 108.5 59t49.5 144l-142 -18q-52 -6 -81 -29.5t-29 -60.5z" />
    <glyph glyph-name="uni04D6" unicode="&#x4d6;" horiz-adv-x="510" 
d="M459 58v-58h-245q-71 0 -100 28.5t-29 99.5v484q0 23 9.5 27.5t49.5 4.5h286q8 0 12.5 -3t6.5 -12t2.5 -17t0.5 -26h-308v-246h253v-56h-253v-149q0 -41 18.5 -59t60.5 -18h236zM274 707q-66 0 -105 36t-39 87q0 27 35 27q0 -46 32 -70.5t77 -24.5q44 0 76 24.5t32 70.5
q36 0 36 -27q0 -51 -39.5 -87t-104.5 -36z" />
    <glyph glyph-name="uni04D7" unicode="&#x4d7;" horiz-adv-x="499" 
d="M423 70v-22q0 -26 -44 -42t-102 -16q-105 0 -166 68t-61 194q0 101 59 168t152 67q92 0 142.5 -59.5t50.5 -154.5q0 -59 -66 -59h-278q17 -170 191 -170q62 0 122 26zM260 436q-72 0 -111 -50t-41 -126h256q31 0 31 34q0 64 -36 103t-99 39zM263 575q-66 0 -105 36.5
t-39 87.5q0 27 35 27q0 -46 32 -70.5t77 -24.5q44 0 76 24.5t32 70.5q36 0 36 -27q0 -51 -39.5 -87.5t-104.5 -36.5z" />
    <glyph glyph-name="uni04D8" unicode="&#x4d8;" horiz-adv-x="651" 
d="M108 552v17q0 34 58.5 59.5t135.5 25.5q133 0 212 -81.5t79 -237.5q0 -145 -80.5 -245t-213.5 -100q-114 0 -176.5 78t-62.5 197q0 43 24 63t63 20h384q-4 124 -71 185t-176 61q-92 0 -176 -42zM301 46q98 0 157.5 70.5t69.5 175.5h-359q-45 0 -45 -50q0 -84 47.5 -140
t129.5 -56z" />
    <glyph glyph-name="afii10846" unicode="&#x4d9;" horiz-adv-x="499" 
d="M77 405v22q0 24 45.5 42t103.5 18q100 0 161.5 -59.5t61.5 -179.5q0 -108 -59.5 -183t-160.5 -75q-88 0 -136 59t-48 151q0 60 66 60h280q-4 87 -53.5 130.5t-133.5 43.5q-66 0 -127 -29zM230 40q70 0 110.5 49t48.5 124h-254q-16 0 -24 -9.5t-8 -23.5q0 -61 34 -100.5
t93 -39.5z" />
    <glyph glyph-name="uni04DC" unicode="&#x4dc;" horiz-adv-x="912" 
d="M823 -7q-36 0 -60 15t-50 58l-138 219q-20 -2 -32 -2h-58v-283h-58v283h-58q-12 0 -32 2l-138 -219q-26 -43 -51.5 -58t-61.5 -15q-21 0 -34.5 10.5t-13.5 31.5v13h13q33 0 55 12.5t43 43.5l131 200q-32 19 -53.5 57t-33 77t-25.5 75.5t-41.5 59.5t-70.5 23h-13v13
q0 42 51 42q50 0 81 -32t45.5 -78t28 -92t41.5 -78t73 -32h64v276q0 22 10 27t48 5v-308h64q45 0 73 32t41.5 78t28.5 92t46.5 78t82.5 32q48 0 48 -42v-13h-13q-43 0 -70.5 -23t-41.5 -59.5t-26 -75.5t-33.5 -77t-53.5 -57l133 -200q20 -31 42 -43.5t55 -12.5h13v-13
q0 -21 -15.5 -31.5t-35.5 -10.5zM590 775q0 -43 -42 -43t-42 43t42 43t42 -43zM413 775q0 -43 -42 -43t-42 43t42 43t42 -43z" />
    <glyph glyph-name="uni04DD" unicode="&#x4dd;" horiz-adv-x="731" 
d="M647 -7q-30 0 -46.5 11t-37.5 44l-107 159q-6 -1 -18 -1h-45v-206h-55v206h-46q-12 0 -18 1l-106 -159q-20 -33 -38.5 -44t-47.5 -11q-16 0 -28.5 7t-12.5 20v16h8q39 0 68 41l104 143q-35 17 -56 56t-29 74.5t-29 63t-57 27.5h-9v13q0 29 40 29q38 0 60.5 -23.5
t33 -57.5t20.5 -67.5t31.5 -57t58.5 -23.5h53v194q0 22 8.5 26.5t46.5 4.5v-225h53q37 0 58.5 23.5t32 57t20.5 67.5t33.5 57.5t61.5 23.5q37 0 37 -29v-13h-8q-30 0 -48.5 -17.5t-28.5 -45.5t-19 -57.5t-28 -57.5t-47 -42l104 -144q29 -41 67 -41h9v-16q0 -13 -13.5 -20
t-29.5 -7zM499 644q0 -44 -42 -44t-42 44q0 43 42 43t42 -43zM322 644q0 -44 -42 -44t-42 44q0 43 42 43t42 -43z" />
    <glyph glyph-name="uni04DE" unicode="&#x4de;" horiz-adv-x="487" 
d="M420 165q0 -80 -59.5 -127.5t-146.5 -47.5q-67 0 -107 19t-40 54v20q61 -33 140 -33q69 0 110 32.5t41 85.5q0 110 -204 110q-3 29 7 54q100 7 156 48t56 105q0 52 -38 82.5t-98 30.5q-63 0 -101 -35t-38 -77v-20h-20q-14 0 -24.5 10.5t-10.5 28.5q0 66 58 107.5
t139 41.5q88 0 142 -45.5t54 -118.5q0 -63 -41 -109.5t-115 -69.5q140 -30 140 -146zM373 775q0 -43 -42 -43t-42 43t42 43t42 -43zM196 775q0 -43 -42 -43t-42 43t42 43t42 -43z" />
    <glyph glyph-name="uni04DF" unicode="&#x4df;" horiz-adv-x="419" 
d="M358 123q0 -60 -51 -96.5t-121 -36.5q-56 0 -88 16t-32 44v19q53 -24 112 -24q54 0 88 23t34 60q0 41 -39 58t-122 17q-3 25 5 45q77 3 121 31.5t44 73.5q0 39 -30 60t-76 21q-49 0 -78 -24t-29 -57v-14h-16q-14 0 -23.5 9t-9.5 25q0 49 45.5 81.5t114.5 32.5
q71 0 115.5 -34t44.5 -94q0 -88 -121 -127q112 -21 112 -109zM339 644q0 -44 -42 -44t-42 44q0 43 42 43t42 -43zM162 644q0 -44 -42 -44t-42 44q0 43 42 43t42 -43z" />
    <glyph glyph-name="uni04E2" unicode="&#x4e2;" horiz-adv-x="681" 
d="M596 29q0 -22 -10 -27t-48 -5v550l-396 -553q-32 3 -57 20v601q0 22 10 27t49 5v-549l395 551q32 -3 57 -20v-600zM490 802v-54h-278v54h278z" />
    <glyph glyph-name="uni04E3" unicode="&#x4e3;" horiz-adv-x="563" 
d="M488 28q0 -22 -9 -26.5t-46 -4.5v388l-313 -391q-25 2 -45 17v437q0 22 8.5 26.5t46.5 4.5v-387l313 388q22 -1 45 -16v-436zM429 670v-53h-278v53h278z" />
    <glyph glyph-name="uni04E4" unicode="&#x4e4;" horiz-adv-x="681" 
d="M596 29q0 -22 -10 -27t-48 -5v550l-396 -553q-32 3 -57 20v601q0 22 10 27t49 5v-549l395 551q32 -3 57 -20v-600zM300 775q0 -43 -42 -43t-42 43t42 43t42 -43zM477 775q0 -43 -42 -43t-42 43t42 43t42 -43z" />
    <glyph glyph-name="uni04E5" unicode="&#x4e5;" horiz-adv-x="563" 
d="M488 28q0 -22 -9 -26.5t-46 -4.5v388l-313 -391q-25 2 -45 17v437q0 22 8.5 26.5t46.5 4.5v-387l313 388q22 -1 45 -16v-436zM244 644q0 -44 -42 -44t-42 44q0 43 42 43t42 -43zM421 644q0 -44 -42 -44t-42 44q0 43 42 43t42 -43z" />
    <glyph glyph-name="uni04E6" unicode="&#x4e6;" horiz-adv-x="701" 
d="M643 341q0 -149 -83.5 -250t-210.5 -101q-125 0 -208 101t-83 250q0 148 78.5 230.5t212.5 82.5q136 0 215 -82.5t79 -230.5zM581 341q0 123 -61.5 190t-170.5 67q-107 0 -168 -68t-61 -189q0 -127 65 -210t164 -83q101 0 166.5 82t65.5 211zM302 775q0 -43 -42 -43
t-42 43t42 43t42 -43zM479 775q0 -43 -42 -43t-42 43t42 43t42 -43z" />
    <glyph glyph-name="uni04E7" unicode="&#x4e7;" horiz-adv-x="540" 
d="M223 644q0 -44 -42 -44t-42 44q0 43 42 43t42 -43zM400 644q0 -44 -42 -44t-42 44q0 43 42 43t42 -43zM490 249q0 -114 -61.5 -186.5t-158.5 -72.5t-158.5 72.5t-61.5 186.5t58 176t162 62t162 -62t58 -176zM432 249q0 88 -41.5 137.5t-120.5 49.5t-120.5 -49.5
t-41.5 -137.5q0 -87 44.5 -146.5t117.5 -59.5t117.5 59.5t44.5 146.5z" />
    <glyph glyph-name="uni04E8" unicode="&#x4e8;" horiz-adv-x="701" 
d="M643 341q0 -149 -83.5 -250t-210.5 -101q-125 0 -208 101t-83 250q0 148 78.5 230.5t212.5 82.5q136 0 215 -82.5t79 -230.5zM349 598q-106 0 -167 -67t-62 -186h461q-1 121 -62.5 187t-169.5 66zM349 48q90 0 152.5 66.5t75.5 174.5h-454q14 -107 76 -174t150 -67z" />
    <glyph glyph-name="uni04E9" unicode="&#x4e9;" horiz-adv-x="540" 
d="M490 249q0 -114 -61.5 -186.5t-158.5 -72.5t-158.5 72.5t-61.5 186.5t58 176t162 62t162 -62t58 -176zM270 436q-77 0 -118.5 -47.5t-43.5 -130.5h324q-2 84 -43.5 131t-118.5 47zM270 43q65 0 107.5 47.5t51.5 122.5h-319q9 -74 52 -122t108 -48z" />
    <glyph glyph-name="uni04EE" unicode="&#x4ee;" horiz-adv-x="590" 
d="M448 802v-54h-278v54h278zM565 644l-182 -436q-27 -218 -172 -218q-35 0 -59.5 12t-24.5 34v23q22 -11 65 -11q108 0 124 131q-182 234 -277 463v2h69q83 -197 232 -394l154 394h71z" />
    <glyph glyph-name="uni04EF" unicode="&#x4ef;" 
d="M476 477v-9l-175 -462q-7 -93 -44 -137t-95 -44q-28 0 -47.5 10.5t-19.5 30.5v21q28 -7 47 -7q89 0 101 119q-140 242 -217 478h66q57 -189 177 -406l147 406h60zM401 670v-53h-278v53h278z" />
    <glyph glyph-name="uni04F0" unicode="&#x4f0;" horiz-adv-x="590" 
d="M266 775q0 -43 -42 -43t-42 43t42 43t42 -43zM443 775q0 -43 -42 -43t-42 43t42 43t42 -43zM565 644l-182 -436q-27 -218 -172 -218q-35 0 -59.5 12t-24.5 34v23q22 -11 65 -11q108 0 124 131q-182 234 -277 463v2h69q83 -197 232 -394l154 394h71z" />
    <glyph glyph-name="uni04F1" unicode="&#x4f1;" 
d="M210 644q0 -44 -42 -44t-42 44q0 43 42 43t42 -43zM387 644q0 -44 -42 -44t-42 44q0 43 42 43t42 -43zM476 477v-9l-175 -462q-7 -93 -44 -137t-95 -44q-28 0 -47.5 10.5t-19.5 30.5v21q28 -7 47 -7q89 0 101 119q-140 242 -217 478h66q57 -189 177 -406l147 406h60z" />
    <glyph glyph-name="uni04F2" unicode="&#x4f2;" horiz-adv-x="590" 
d="M565 644l-182 -436q-27 -218 -172 -218q-35 0 -59.5 12t-24.5 34v23q22 -11 65 -11q108 0 124 131q-182 234 -277 463v2h69q83 -197 232 -394l154 394h71zM333 885l-94 -185h-33l-3 9l61 206q37 -3 69 -30zM504 885l-93 -185h-34l-3 9l61 206q37 -3 69 -30z" />
    <glyph glyph-name="uni04F3" unicode="&#x4f3;" 
d="M476 477v-9l-175 -462q-7 -93 -44 -137t-95 -44q-28 0 -47.5 10.5t-19.5 30.5v21q28 -7 47 -7q89 0 101 119q-140 242 -217 478h66q57 -189 177 -406l147 406h60zM281 754l-94 -186h-33l-3 9l61 207q37 -5 69 -30zM452 754l-93 -186h-34l-3 9l61 207q37 -4 69 -30z" />
    <glyph glyph-name="uni04F4" unicode="&#x4f4;" horiz-adv-x="641" 
d="M273 775q0 -43 -42 -43t-42 43t42 43t42 -43zM450 775q0 -43 -42 -43t-42 43t42 43t42 -43zM555 29q0 -23 -9.5 -27.5t-48.5 -4.5v309q-32 -65 -90.5 -100t-128.5 -35q-94 0 -149.5 59.5t-55.5 165.5v219q0 22 10 27t48 5v-216q0 -98 44 -149t124 -51q81 0 139.5 60
t58.5 159v194h58v-615z" />
    <glyph glyph-name="uni04F5" unicode="&#x4f5;" horiz-adv-x="527" 
d="M452 28q0 -22 -9 -26.5t-46 -4.5v248q-27 -53 -73 -81.5t-102 -28.5q-73 0 -116 46.5t-43 127.5v139q0 22 8.5 26.5t46.5 4.5v-144q0 -72 32 -110.5t93 -38.5q63 0 108.5 46.5t45.5 126.5v118h55v-449zM219 644q0 -44 -42 -44t-42 44q0 43 42 43t42 -43zM396 644
q0 -44 -42 -44t-42 44q0 43 42 43t42 -43z" />
    <glyph glyph-name="uni04F8" unicode="&#x4f8;" horiz-adv-x="740" 
d="M487 193q0 -65 -35.5 -110.5t-85.5 -64t-107 -18.5h-37q-72 0 -104.5 32.5t-32.5 107.5v466q0 29 9.5 35t49.5 6v-282h101q242 0 242 -172zM241 307h-97v-161q0 -45 19.5 -66.5t63.5 -21.5h30q68 0 118 31.5t50 99.5q0 118 -184 118zM655 0h-58v615q0 22 10 27t48 5v-647
zM336 775q0 -43 -42 -43t-42 43t42 43t42 -43zM513 775q0 -43 -42 -43t-42 43t42 43t42 -43z" />
    <glyph glyph-name="uni04F9" unicode="&#x4f9;" horiz-adv-x="616" 
d="M399 148q0 -72 -49 -110t-121 -38h-29q-64 0 -94.5 27.5t-30.5 88.5v338q0 17 10 21t45 4v-201h99q77 0 123.5 -31t46.5 -99zM225 230h-95v-108q0 -74 75 -74h21q49 0 82 24t33 72q0 46 -33.5 66t-82.5 20zM540 0h-54v448q0 22 8.5 26.5t45.5 4.5v-479zM447 644
q0 -44 -42 -44t-42 44q0 43 42 43t42 -43zM270 644q0 -44 -42 -44t-42 44q0 43 42 43t42 -43z" />
    <glyph glyph-name="Wgrave" unicode="&#x1e80;" horiz-adv-x="925" 
d="M352 792q6 36 37 67l174 -128l-16 -31h-8zM888 644q-76 -356 -209 -638q-24 -11 -54 -13l-145 535q-68 -261 -187 -522q-24 -11 -54 -13l-194 642v9h68l156 -554q116 278 167 476q11 47 5 64q26 16 69 20l147 -553q109 265 166 547h65z" />
    <glyph glyph-name="wgrave" unicode="&#x1e81;" horiz-adv-x="755" 
d="M562 7q-30 -13 -58 -14l-119 403q-52 -185 -145 -389q-33 -13 -61 -14l-149 477v7h64l118 -407q84 184 131 348q9 35 4 49q27 14 68 14l120 -411q84 192 131 407h61q-61 -246 -165 -470zM251 660q6 37 37 68l174 -129l-16 -31h-8z" />
    <glyph glyph-name="Wacute" unicode="&#x1e82;" horiz-adv-x="925" 
d="M607 792l-188 -92h-7l-16 31l174 128q29 -29 37 -67zM888 644q-76 -356 -209 -638q-24 -11 -54 -13l-145 535q-68 -261 -187 -522q-24 -11 -54 -13l-194 642v9h68l156 -554q116 278 167 476q11 47 5 64q26 16 69 20l147 -553q109 265 166 547h65z" />
    <glyph glyph-name="wacute" unicode="&#x1e83;" horiz-adv-x="755" 
d="M520 660l-188 -92h-7l-16 31l174 129q29 -29 37 -68zM562 7q-30 -13 -58 -14l-119 403q-52 -185 -145 -389q-33 -13 -61 -14l-149 477v7h64l118 -407q84 184 131 348q9 35 4 49q27 14 68 14l120 -411q84 192 131 407h61q-61 -246 -165 -470z" />
    <glyph glyph-name="Wdieresis" unicode="&#x1e84;" horiz-adv-x="925" 
d="M439 775q0 -43 -42 -43t-42 43t42 43t42 -43zM616 775q0 -43 -42 -43t-42 43t42 43t42 -43zM888 644q-76 -356 -209 -638q-24 -11 -54 -13l-145 535q-68 -261 -187 -522q-24 -11 -54 -13l-194 642v9h68l156 -554q116 278 167 476q11 47 5 64q26 16 69 20l147 -553
q109 265 166 547h65z" />
    <glyph glyph-name="wdieresis" unicode="&#x1e85;" horiz-adv-x="755" 
d="M340 644q0 -44 -42 -44t-42 44q0 43 42 43t42 -43zM517 644q0 -44 -42 -44t-42 44q0 43 42 43t42 -43zM562 7q-30 -13 -58 -14l-119 403q-52 -185 -145 -389q-33 -13 -61 -14l-149 477v7h64l118 -407q84 184 131 348q9 35 4 49q27 14 68 14l120 -411q84 192 131 407h61
q-61 -246 -165 -470z" />
    <glyph glyph-name="Ygrave" unicode="&#x1ef2;" horiz-adv-x="590" 
d="M324 0h-58v213l-232 422v9h64l200 -365q122 178 196 365h70q-96 -225 -240 -429v-215zM174 792q6 36 37 67l174 -128l-16 -31h-8z" />
    <glyph glyph-name="ygrave" unicode="&#x1ef3;" 
d="M476 477v-9l-175 -462q-7 -93 -44 -137t-95 -44q-28 0 -47.5 10.5t-19.5 30.5v21q28 -7 47 -7q89 0 101 119q-140 242 -217 478h66q57 -189 177 -406l147 406h60zM121 660q6 37 37 68l174 -129l-16 -31h-8z" />
    <glyph glyph-name="uni2007" unicode="&#x2007;" 
 />
    <glyph glyph-name="uni2008" unicode="&#x2008;" horiz-adv-x="245" 
 />
    <glyph glyph-name="endash" unicode="&#x2013;" horiz-adv-x="511" 
d="M475 290v-52h-439v52h439z" />
    <glyph glyph-name="emdash" unicode="&#x2014;" horiz-adv-x="924" 
d="M888 290v-52h-852v52h852z" />
    <glyph glyph-name="quoteleft" unicode="&#x2018;" horiz-adv-x="209" 
d="M115 670q7 16 17 16t31 -9q-34 -106 -40 -233h-66q7 126 58 226z" />
    <glyph glyph-name="quoteright" unicode="&#x2019;" horiz-adv-x="209" 
d="M95 458q-9 -16 -18 -16q-4 0 -31 9q34 106 40 233h67q-8 -125 -58 -226z" />
    <glyph glyph-name="quotesinglbase" unicode="&#x201a;" horiz-adv-x="209" 
d="M96 -124q-7 -16 -17 -16q-9 0 -31 9q34 106 40 233h67q-9 -127 -59 -226z" />
    <glyph glyph-name="quotedblleft" unicode="&#x201c;" horiz-adv-x="383" 
d="M288 670q9 16 18 16t30 -9q-32 -100 -40 -233h-66q7 122 58 226zM115 670q7 16 17 16t31 -9q-34 -106 -40 -233h-66q7 126 58 226z" />
    <glyph glyph-name="quotedblright" unicode="&#x201d;" horiz-adv-x="383" 
d="M268 458q-9 -16 -18 -16q-5 0 -30 9q32 100 40 233h66q-7 -122 -58 -226zM95 458q-9 -16 -18 -16q-4 0 -31 9q34 106 40 233h67q-8 -125 -58 -226z" />
    <glyph glyph-name="quotedblbase" unicode="&#x201e;" horiz-adv-x="383" 
d="M270 -124q-9 -16 -18 -16t-30 9q32 106 40 233h66q-7 -122 -58 -226zM96 -124q-7 -16 -17 -16q-9 0 -31 9q34 106 40 233h67q-9 -127 -59 -226z" />
    <glyph glyph-name="dagger" unicode="&#x2020;" horiz-adv-x="386" 
d="M47 498l129 -10l-10 213q26 7 53 0l-10 -213l129 10q8 -26 0 -51l-129 9l10 -313q-27 -7 -53 0l10 313l-129 -9q-6 25 0 51z" />
    <glyph glyph-name="daggerdbl" unicode="&#x2021;" horiz-adv-x="386" 
d="M47 504l129 -10l-10 207q26 7 53 0l-10 -207l129 10q8 -26 0 -51l-120 8l-9 -300l129 9q8 -26 0 -51l-129 10l10 -178q-27 -5 -53 0l10 177l-129 -9q-6 26 0 51l128 -9l-9 300l-119 -8q-6 25 0 51z" />
    <glyph glyph-name="bullet" unicode="&#x2022;" horiz-adv-x="464" 
d="M233 158q-161 0 -161 160q0 159 161 159q79 0 119 -41.5t40 -117.5q0 -160 -159 -160z" />
    <glyph glyph-name="ellipsis" unicode="&#x2026;" horiz-adv-x="746" 
d="M124 -6q-49 0 -49 51q0 50 49 50t49 -50q0 -51 -49 -51zM373 -6q-49 0 -49 51q0 50 49 50q48 0 48 -50q0 -51 -48 -51zM621 -6q-49 0 -49 51q0 50 49 50t49 -50q0 -51 -49 -51z" />
    <glyph glyph-name="perthousand" unicode="&#x2030;" horiz-adv-x="1159" 
d="M1134 211q0 -93 -39.5 -156.5t-111.5 -63.5q-73 0 -112 63.5t-39 156.5q0 90 37 142t114 52q75 0 113 -52t38 -142zM1082 211q0 148 -99 148t-99 -148q0 -73 24.5 -123.5t74.5 -50.5t74.5 50t24.5 124zM781 211q0 -93 -39.5 -156.5t-111.5 -63.5q-73 0 -112 63.5
t-39 156.5q0 90 37.5 142t113.5 52q75 0 113 -52t38 -142zM729 211q0 148 -99 148t-99 -148q0 -73 24.5 -123.5t74.5 -50.5t74.5 50t24.5 124zM621 712l-378 -752h-54l378 752h54zM327 467q0 -93 -39.5 -156.5t-111.5 -63.5q-73 0 -112 63.5t-39 156.5q0 90 37.5 142
t113.5 52q75 0 113 -52t38 -142zM275 467q0 148 -99 148t-99 -148q0 -73 24.5 -123.5t74.5 -50.5t74.5 50t24.5 124z" />
    <glyph glyph-name="guilsinglleft" unicode="&#x2039;" horiz-adv-x="298" 
d="M221 127h-44q-41 27 -73 72.5t-32 94.5q0 88 105 156h44v-9q-83 -72 -83 -147q0 -42 23.5 -84t59.5 -74v-9z" />
    <glyph glyph-name="guilsinglright" unicode="&#x203a;" horiz-adv-x="298" 
d="M122 127h-45v9q36 32 59.5 74t23.5 84q0 75 -83 147v9h45q105 -70 105 -156q0 -49 -32 -94.5t-73 -72.5z" />
    <glyph glyph-name="fraction" unicode="&#x2044;" horiz-adv-x="148" 
d="M-71 -40h-54l343 684h55z" />
    <glyph glyph-name="zerosuperior" unicode="&#x2070;" horiz-adv-x="352" 
d="M327 589q0 -93 -39.5 -156.5t-111.5 -63.5q-73 0 -112 63.5t-39 156.5q0 90 37.5 142t113.5 52q75 0 113 -52t38 -142zM275 589q0 148 -99 148t-99 -148q0 -73 24.5 -123.5t74.5 -50.5t74.5 50t24.5 124z" />
    <glyph glyph-name="i.sup" unicode="&#x2071;" horiz-adv-x="147" 
d="M97 378h-47v310q0 19 7.5 22.5t39.5 3.5v-336zM111 827q0 -36 -35 -36q-36 0 -36 36t36 36q35 0 35 -36z" />
    <glyph glyph-name="foursuperior" unicode="&#x2074;" horiz-adv-x="352" 
d="M329 465h-64v-87h-48v87h-197q-2 25 7 43q87 115 169 270h52v-5q-70 -132 -168 -264h137v74q0 11 6 15.5t14 5.5t28 1v-96h64v-44z" />
    <glyph glyph-name="fivesuperior" unicode="&#x2075;" horiz-adv-x="352" 
d="M309 496q0 -59 -45 -93t-110 -34q-50 0 -79.5 14.5t-29.5 37.5v18q47 -22 103 -22q45 0 77 21t32 56q0 68 -111 68q-35 0 -79 -11q-10 16 -13 35l7 191h225q12 0 15 -9t3 -38h-204l-6 -132q35 5 62 5q153 0 153 -107z" />
    <glyph glyph-name="sixsuperior" unicode="&#x2076;" horiz-adv-x="352" 
d="M319 499q0 -58 -39 -94t-98 -36q-72 0 -110 52t-38 133q0 95 48.5 162t133.5 67q47 0 76.5 -22t29.5 -60q0 -33 -33 -33h-9v14q0 25 -18 40t-49 15q-58 0 -92.5 -53t-34.5 -120q0 -28 5 -42q13 34 48 55.5t74 21.5q47 0 76.5 -26t29.5 -74zM267 491q0 31 -19 47.5
t-52 16.5q-36 0 -63.5 -22t-27.5 -54q0 -27 22 -45.5t55 -18.5q37 0 61 21t24 55z" />
    <glyph glyph-name="sevensuperior" unicode="&#x2077;" horiz-adv-x="352" 
d="M319 730q-104 -180 -171 -352h-57v5q67 169 176 347h-230q0 15 0.5 21.5t1.5 14t4.5 9.5t9.5 2h272q2 -25 -6 -47z" />
    <glyph glyph-name="eightsuperior" unicode="&#x2078;" horiz-adv-x="352" 
d="M316 482q0 -52 -40 -82.5t-100 -30.5t-100 30.5t-40 82.5q0 72 84 95q-38 13 -60 38.5t-22 59.5q0 52 39 80t99 28t99.5 -28t39.5 -80q0 -34 -22.5 -60t-60.5 -38q84 -23 84 -95zM263 485q0 27 -24 46.5t-63 19.5t-63 -19.5t-24 -46.5q0 -30 24.5 -50.5t62.5 -20.5
t62.5 20.5t24.5 50.5zM262 670q0 31 -23 49.5t-63 18.5t-63 -19t-23 -49q0 -28 24.5 -50.5t61.5 -22.5q38 0 62 22t24 51z" />
    <glyph glyph-name="ninesuperior" unicode="&#x2079;" horiz-adv-x="352" 
d="M319 597q0 -99 -54.5 -163.5t-146.5 -64.5q-74 0 -74 40v18q29 -11 68 -11q72 0 113.5 48t41.5 121q0 12 -4 32q-17 -38 -49.5 -59t-73.5 -21q-48 0 -78.5 28t-30.5 80q0 61 39.5 99.5t98.5 38.5q73 0 111.5 -52t38.5 -134zM249 669q0 27 -22.5 47.5t-57.5 20.5
q-38 0 -62 -22.5t-24 -59.5q0 -34 21 -53t54 -19q36 0 63.5 24t27.5 62z" />
    <glyph glyph-name="plussuperior" unicode="&#x207a;" horiz-adv-x="352" 
d="M195 400h-38v127h-125v38h125v127h38v-127h126v-38h-126v-127z" />
    <glyph glyph-name="minussuperior" unicode="&#x207b;" horiz-adv-x="352" 
d="M321 527h-289v38h289v-38z" />
    <glyph glyph-name="equalsuperior" unicode="&#x207c;" horiz-adv-x="352" 
d="M321 593h-289v38h289v-38zM321 461h-289v38h289v-38z" />
    <glyph glyph-name="parenleftsuperior" unicode="&#x207d;" horiz-adv-x="214" 
d="M195 295l-31 -23q-61 82 -88.5 160.5t-27.5 174.5q0 137 97 260q10 13 20 13q11 0 27 -15q-95 -125 -95 -258q0 -177 98 -312z" />
    <glyph glyph-name="parenrightsuperior" unicode="&#x207e;" horiz-adv-x="214" 
d="M165 607q0 -186 -100 -315q-10 -13 -20 -13q-11 0 -26 15q97 135 97 313q0 125 -95 257l31 23q60 -73 86.5 -137.5t26.5 -142.5z" />
    <glyph glyph-name="n.sup" unicode="&#x207f;" horiz-adv-x="385" 
d="M339 403q0 -20 -7 -23.5t-40 -3.5v204q0 47 -23 71.5t-62 24.5q-43 0 -76.5 -31.5t-33.5 -87.5v-179h-47v310q0 19 7.5 22.5t39.5 3.5v-70q20 37 55 56.5t74 19.5q52 0 82.5 -30.5t30.5 -88.5v-198z" />
    <glyph glyph-name="zeroinferior" unicode="&#x2080;" horiz-adv-x="352" 
d="M327 69q0 -93 -39.5 -156.5t-111.5 -63.5q-73 0 -112 63.5t-39 156.5q0 90 37.5 142t113.5 52q75 0 113 -52t38 -142zM275 69q0 148 -99 148t-99 -148q0 -73 24.5 -123.5t74.5 -50.5t74.5 50t24.5 124z" />
    <glyph glyph-name="oneinferior" unicode="&#x2081;" horiz-adv-x="352" 
d="M79 96l-14 45q44 13 84.5 34.5t39.5 41.5v19q0 19 8.5 23t41.5 4v-405h-50v289q-40 -30 -110 -51z" />
    <glyph glyph-name="twoinferior" unicode="&#x2082;" horiz-adv-x="352" 
d="M307 -142h-273q-2 25 6 47q46 24 78 44.5t68.5 49.5t55.5 63t19 70q0 40 -24.5 62t-65.5 22t-65.5 -22.5t-24.5 -53.5v-13h-19q-10 0 -17 8t-7 20q0 46 38.5 77t98.5 31q61 0 100 -33.5t39 -91.5q0 -116 -190 -234h183v-46z" />
    <glyph glyph-name="threeinferior" unicode="&#x2083;" horiz-adv-x="352" 
d="M297 -33q0 -56 -43 -87t-105 -31q-48 0 -75.5 14.5t-27.5 37.5v17q43 -22 97 -22q45 0 73.5 19t28.5 55q0 60 -110 60h-29v44h19q58 0 89 21t31 57q0 31 -23 48t-57 17q-37 0 -58.5 -18.5t-21.5 -43.5v-13h-16q-26 0 -26 29q0 40 37 66t90 26q56 0 91.5 -27t35.5 -74
q0 -75 -82 -104q82 -20 82 -91z" />
    <glyph glyph-name="fourinferior" unicode="&#x2084;" horiz-adv-x="352" 
d="M329 -55h-64v-87h-48v87h-197q-2 25 7 43q87 115 169 270h52v-5q-70 -132 -168 -264h137v74q0 11 6 15.5t14 5.5t28 1v-96h64v-44z" />
    <glyph glyph-name="fiveinferior" unicode="&#x2085;" horiz-adv-x="352" 
d="M309 -24q0 -59 -45 -93t-110 -34q-50 0 -79.5 14.5t-29.5 37.5v18q47 -22 103 -22q45 0 77 21t32 56q0 68 -111 68q-35 0 -79 -11q-10 16 -13 35l7 191h225q12 0 15 -9t3 -38h-204l-6 -132q35 5 62 5q153 0 153 -107z" />
    <glyph glyph-name="sixinferior" unicode="&#x2086;" horiz-adv-x="352" 
d="M319 -21q0 -58 -39 -94t-98 -36q-72 0 -110 52t-38 133q0 95 48.5 162t133.5 67q47 0 76.5 -22t29.5 -60q0 -33 -33 -33h-9v14q0 25 -18 40t-49 15q-58 0 -92.5 -53t-34.5 -120q0 -28 5 -42q13 34 48 55.5t74 21.5q47 0 76.5 -26t29.5 -74zM267 -29q0 31 -19 47.5
t-52 16.5q-36 0 -63.5 -22t-27.5 -54q0 -27 22 -45.5t55 -18.5q37 0 61 21t24 55z" />
    <glyph glyph-name="seveninferior" unicode="&#x2087;" horiz-adv-x="352" 
d="M319 210q-104 -180 -171 -352h-57v5q67 169 176 347h-230q0 15 0.5 21.5t1.5 14t4.5 9.5t9.5 2h272q2 -25 -6 -47z" />
    <glyph glyph-name="eightinferior" unicode="&#x2088;" horiz-adv-x="352" 
d="M316 -38q0 -52 -40 -82.5t-100 -30.5t-100 30.5t-40 82.5q0 72 84 95q-38 13 -60 38.5t-22 59.5q0 52 39 80t99 28t99.5 -28t39.5 -80q0 -34 -22.5 -60t-60.5 -38q84 -23 84 -95zM263 -35q0 27 -24 46.5t-63 19.5t-63 -19.5t-24 -46.5q0 -30 24.5 -50.5t62.5 -20.5
t62.5 20.5t24.5 50.5zM262 150q0 31 -23 49.5t-63 18.5t-63 -19t-23 -49q0 -28 24.5 -50.5t61.5 -22.5q38 0 62 22t24 51z" />
    <glyph glyph-name="nineinferior" unicode="&#x2089;" horiz-adv-x="352" 
d="M319 77q0 -99 -54.5 -163.5t-146.5 -64.5q-74 0 -74 40v18q29 -11 68 -11q72 0 113.5 48t41.5 121q0 12 -4 32q-17 -38 -49.5 -59t-73.5 -21q-48 0 -78.5 28t-30.5 80q0 61 39.5 99.5t98.5 38.5q73 0 111.5 -52t38.5 -134zM249 149q0 27 -22.5 47.5t-57.5 20.5
q-38 0 -62 -22.5t-24 -59.5q0 -34 21 -53t54 -19q36 0 63.5 24t27.5 62z" />
    <glyph glyph-name="plusinferior" unicode="&#x208a;" horiz-adv-x="352" 
d="M195 -120h-38v127h-125v38h125v127h38v-127h126v-38h-126v-127z" />
    <glyph glyph-name="minusinferior" unicode="&#x208b;" horiz-adv-x="352" 
d="M321 7h-289v38h289v-38z" />
    <glyph glyph-name="equalinferior" unicode="&#x208c;" horiz-adv-x="352" 
d="M321 73h-289v38h289v-38zM321 -59h-289v38h289v-38z" />
    <glyph glyph-name="parenleftinferior" unicode="&#x208d;" horiz-adv-x="214" 
d="M195 -225l-31 -23q-61 82 -88.5 160.5t-27.5 174.5q0 137 97 260q10 13 20 13q11 0 27 -15q-95 -125 -95 -258q0 -177 98 -312z" />
    <glyph glyph-name="parenrightinferior" unicode="&#x208e;" horiz-adv-x="214" 
d="M165 87q0 -186 -100 -315q-10 -13 -20 -13q-11 0 -26 15q97 135 97 313q0 125 -95 257l31 23q60 -73 86.5 -137.5t26.5 -142.5z" />
    <glyph glyph-name="Euro" unicode="&#x20ac;" 
d="M374 191h-210q36 -149 167 -149q65 0 121 27v-21q0 -29 -40.5 -43.5t-95.5 -14.5q-85 0 -140.5 52t-75.5 149h-75v44h68q-3 31 -3 68v6h-65v44h68q13 106 74.5 167.5t150.5 61.5q66 0 110.5 -29t44.5 -79q0 -23 -10 -35.5t-25 -12.5h-20v18q0 43 -27.5 64t-71.5 21
q-64 0 -109 -44.5t-55 -131.5h219v-44h-222v-6q0 -40 4 -68h218v-44z" />
    <glyph glyph-name="uni20B4" unicode="&#x20b4;" 
d="M447 180h-255q-22 -30 -22 -65q0 -38 28.5 -55t69.5 -17q63 0 120 30v-20q0 -28 -40 -45.5t-94 -17.5q-66 0 -104 33t-38 97q0 33 15 60h-76v44h110q13 13 30.5 25.5t41 28.5t34.5 24h-216v44h269q43 43 43 95q0 38 -28 63t-80 25q-49 0 -80.5 -27t-31.5 -64v-16h-18
q-30 0 -30 39q0 51 48 86t113 35q79 0 122 -38.5t43 -102.5q0 -53 -31 -95h57v-44h-98q-20 -17 -60 -43.5t-51 -34.5h209v-44z" />
    <glyph glyph-name="litre" unicode="&#x2113;" horiz-adv-x="361" 
d="M189 -10q-88 0 -88 101v66q-37 -10 -82 -10v50q45 0 82 12v300q0 63 26.5 104t83.5 41q56 0 83.5 -42.5t27.5 -117.5q0 -105 -43.5 -190t-123.5 -126v-69q0 -64 60 -64q23 0 43 7v-21q0 -20 -21.5 -30.5t-47.5 -10.5zM155 509v-273q53 37 81 103t28 149q0 115 -55 115
q-29 0 -41.5 -28t-12.5 -66z" />
    <glyph glyph-name="afii61352" unicode="&#x2116;" horiz-adv-x="1016" 
d="M597 14q-25 -17 -57 -20l-395 547v-541h-59v629q25 17 57 20l396 -545v540h58v-630zM982 554q0 -80 -44 -131.5t-113 -51.5q-70 0 -114 51.5t-44 131.5t41.5 123t116.5 43q74 0 115.5 -43t41.5 -123zM932 554q0 58 -27.5 91t-79.5 33q-53 0 -80.5 -33t-27.5 -91
q0 -59 29.5 -99t78.5 -40q48 0 77.5 40t29.5 99zM980 286q0 -37 -25 -63.5t-63 -26.5q-32 0 -74.5 32.5t-66.5 32.5q-22 0 -36.5 -18.5t-14.5 -47.5q-20 0 -29 7.5t-9 25.5q0 37 24.5 62t62.5 25q33 0 75 -32t66 -32q22 0 36.5 18t14.5 47q21 0 30 -6.5t9 -23.5z" />
    <glyph glyph-name="uni2117" unicode="&#x2117;" horiz-adv-x="635" 
d="M591 278q0 -116 -75.5 -195t-197.5 -79t-198 79t-76 195t76 195t198 79t197.5 -79t75.5 -195zM551 278q0 100 -64 167.5t-169 67.5q-106 0 -170.5 -67.5t-64.5 -167.5t64.5 -167.5t170.5 -67.5q105 0 169 67.5t64 167.5zM430 317q0 -45 -32.5 -70.5t-82.5 -25.5h-27v-74
h-46v237q0 14 10.5 17.5t35.5 3.5h33q109 0 109 -88zM383 317q0 48 -72 48h-23v-104h20q34 0 54.5 14.5t20.5 41.5z" />
    <glyph glyph-name="trademark" unicode="&#x2122;" horiz-adv-x="591" 
d="M543 457q0 -9 -5.5 -13.5t-13.5 -5.5t-24 -1v180q-40 -87 -74 -141q-18 -7 -42 -7q-37 60 -75 147v-178h-43v248q21 12 57 12q36 -94 82 -172q42 71 80 161q24 11 58 11v-241zM137 438h-46v214h-86v44h203q9 0 12 -9.5t3 -34.5h-86v-214z" />
    <glyph glyph-name="estimated" unicode="&#x212e;" horiz-adv-x="773" 
d="M605 126h70q-54 -62 -124 -98t-174 -36q-141 0 -241 88t-100 234q0 143 107 237.5t256 94.5q83 0 150 -28.5t108.5 -76t63.5 -105.5t22 -120v-5h-556l-7 -8v-199q80 -69 201 -69q139 0 224 91zM593 354l7 8v171q-73 70 -201 70q-136 0 -219 -78v-163l7 -8h406z" />
    <glyph glyph-name="arrowleft" unicode="&#x2190;" horiz-adv-x="762" 
d="M626 293h-394l182 -150q-24 -34 -38 -34q-6 0 -12 6l-243 203l243 204q6 6 12 6q14 0 38 -34l-182 -150h394v-51z" />
    <glyph glyph-name="arrowup" unicode="&#x2191;" horiz-adv-x="762" 
d="M405 75h-49v390l-152 -180q-12 11 -17.5 16t-10.5 12.5t-4 13t6 12.5l203 243l203 -243q5 -7 5.5 -12.5t-4.5 -13t-10.5 -12.5t-17.5 -16l-152 181v-391z" />
    <glyph glyph-name="arrowright" unicode="&#x2192;" horiz-adv-x="762" 
d="M641 318l-243 -203q-6 -6 -12 -6q-14 0 -38 34l182 150h-394v51h394l-182 152q24 34 38 34q6 0 12 -6z" />
    <glyph glyph-name="arrowdown" unicode="&#x2193;" horiz-adv-x="762" 
d="M381 58l-203 243q-5 7 -6 12.5t4 13t10.5 12.5t17.5 16l152 -180v390h49v-391l152 181q12 -11 17.5 -16t10.5 -12.5t4.5 -13t-5.5 -12.5z" />
    <glyph glyph-name="arrowupleft" unicode="&#x2196;" horiz-adv-x="762" 
d="M582 160l-39 -40l-295 291l25 -262q-41 -3 -48 4q-5 5 -6 14l-33 350l354 -31q15 -1 17.5 -16t-0.5 -42l-271 24z" />
    <glyph glyph-name="arrowupright" unicode="&#x2197;" horiz-adv-x="762" 
d="M543 167q-2 -21 -47 -18h-7l25 262l-295 -291l-39 40l296 292l-271 -24q-3 27 -0.5 42t17.5 16l354 31z" />
    <glyph glyph-name="arrowdownright" unicode="&#x2198;" horiz-adv-x="762" 
d="M576 121l-354 32q-15 1 -17.5 16t0.5 41l271 -23l-296 292l39 40l295 -292l-25 263q17 1 23 1t15 -1t12 -5.5t4 -12.5z" />
    <glyph glyph-name="arrowdownleft" unicode="&#x2199;" horiz-adv-x="762" 
d="M557 210q3 -26 0.5 -41t-17.5 -16l-354 -32l33 351q1 15 12.5 17.5t41.5 0.5l-25 -263l295 292l39 -40l-296 -292z" />
    <glyph glyph-name="partialdiff" unicode="&#x2202;" horiz-adv-x="516" 
d="M465 272q0 -129 -58.5 -205.5t-160.5 -76.5q-87 0 -142.5 58.5t-55.5 159.5q0 92 53.5 144.5t132.5 52.5q56 0 102.5 -28t66.5 -79q-4 127 -76.5 203t-210.5 89q4 30 9.5 39.5t21.5 8.5q164 -19 241 -118t77 -248zM400 202q0 67 -43.5 109.5t-110.5 42.5
q-65 0 -102 -38.5t-37 -107.5q0 -77 39.5 -121t103.5 -44q68 0 109 47t41 112z" />
    <glyph glyph-name="product" unicode="&#x220f;" horiz-adv-x="719" 
d="M633 -73q0 -22 -10.5 -27t-49.5 -5v616q0 43 -17.5 60t-66.5 17h-343v-690h-61v714q0 23 11 27.5t50 4.5h395q50 0 71 -24t21 -74v-619z" />
    <glyph glyph-name="summation" unicode="&#x2211;" horiz-adv-x="563" 
d="M532 -106h-499q-2 41 9 60q154 158 267 315q-123 178 -273 334q25 31 50 41h410q15 0 19 -11t4 -44h-390q120 -125 236 -291q2 -35 -8 -55q-98 -138 -243 -289h418v-60z" />
    <glyph glyph-name="minus" unicode="&#x2212;" 
d="M457 216h-413v50h413v-50z" />
    <glyph glyph-name="uni2219" unicode="&#x2219;" 
d="M250 193q-49 0 -49 51q0 50 49 50t49 -50q0 -51 -49 -51z" />
    <glyph glyph-name="radical" unicode="&#x221a;" horiz-adv-x="516" 
d="M505 673l-184 -735h-61l-115 324h-101v49h141l102 -292l163 654h55z" />
    <glyph glyph-name="infinity" unicode="&#x221e;" horiz-adv-x="658" 
d="M618 248q0 -81 -40.5 -141.5t-114.5 -60.5q-49 0 -84 32.5t-50 88.5q-15 -56 -50.5 -88.5t-83.5 -32.5q-74 0 -114 60t-40 142q0 80 38 134t110 54q51 0 88 -33t52 -89q15 56 52 89t88 33q72 0 110.5 -54t38.5 -134zM555 248q0 60 -26 97.5t-74 37.5q-46 0 -71.5 -38.5
t-25.5 -96.5q0 -61 26 -105t71 -44q47 0 73.5 44t26.5 105zM300 248q0 58 -25.5 96.5t-71.5 38.5q-48 0 -74 -38t-26 -97q0 -61 26.5 -105t73.5 -44q46 0 71.5 44.5t25.5 104.5z" />
    <glyph glyph-name="integral" unicode="&#x222b;" horiz-adv-x="307" 
d="M178 534v-537q0 -44 -25 -70.5t-65 -26.5q-55 0 -55 35v21q14 -5 36 -5q25 0 40 16.5t15 42.5v537q0 44 25.5 70.5t65.5 26.5q54 0 54 -35v-21q-14 5 -35 5q-25 0 -40.5 -16.5t-15.5 -42.5z" />
    <glyph glyph-name="approxequal" unicode="&#x2248;" 
d="M417 417q39 0 39 -32q0 -46 -32 -78.5t-79 -32.5q-32 0 -59.5 14t-43.5 31t-39.5 31t-47.5 14q-33 0 -52 -25t-19 -66q-40 0 -40 32q0 45 32 77.5t79 32.5q32 0 59.5 -14t44 -31t40 -31t47.5 -14q33 0 52 25t19 67zM417 209q39 0 39 -32q0 -46 -32 -78t-79 -32
q-32 0 -59.5 14t-43.5 31t-39.5 31t-47.5 14q-33 0 -52 -25t-19 -67q-40 0 -40 32q0 46 32 78.5t79 32.5q32 0 59.5 -14t44 -31t40 -31t47.5 -14q33 0 52 25t19 66z" />
    <glyph glyph-name="notequal" unicode="&#x2260;" 
d="M457 311h-138l-77 -140h215v-49h-241l-70 -128h-55l69 128h-116v49h143l76 140h-219v49h245l67 122h56l-67 -122h112v-49z" />
    <glyph glyph-name="lessequal" unicode="&#x2264;" 
d="M449 50v-50h-398v50h398zM449 452v-55l-337 -125l337 -126v-54l-397 151v58z" />
    <glyph glyph-name="greaterequal" unicode="&#x2265;" 
d="M51 0v50h398v-50h-398zM51 397v55l397 -151v-58l-397 -151v54l336 126z" />
    <glyph glyph-name="lozenge" unicode="&#x25ca;" horiz-adv-x="606" 
d="M575 287l-272 -273l-272 273l272 273zM504 287l-201 199l-201 -199l201 -199z" />
    <glyph glyph-name="flat" unicode="&#x266d;" horiz-adv-x="431" 
d="M364 237q0 -99 -70.5 -169.5t-179.5 -71.5q-16 6 -27 19v670q0 22 7 26.5t33 4.5v-452q21 43 56.5 68.5t76.5 25.5q50 0 77 -33t27 -88zM305 225q0 82 -63 82q-40 0 -77.5 -45.5t-37.5 -115.5v-107q82 2 130 59t48 127z" />
    <glyph glyph-name="natural" unicode="&#x266e;" horiz-adv-x="431" 
d="M348 -7q0 -22 -7 -26.5t-33 -4.5v228l-195 -128q-18 2 -30 11v612q0 22 6.5 26.5t32.5 4.5v-272l195 129q18 -2 31 -11v-569zM308 267v222l-186 -121v-223z" />
    <glyph glyph-name="sharp" unicode="&#x266f;" horiz-adv-x="431" 
d="M157 -38h-39v129l-75 -50l-5 3v71l80 53v197l-75 -49l-5 3v71l80 53v159q0 22 6.5 26.5t32.5 4.5v-164l117 77v170h40v-143l74 49l5 -3v-71l-79 -53v-197l74 49l5 -3v-70l-79 -53v-145q0 -22 -7 -26.5t-33 -4.5v150l-117 -78v-155zM157 391v-197l117 77v198z" />
    <glyph glyph-name="grave.cap" horiz-adv-x="493" 
d="M141 792q6 36 37 67l174 -128l-16 -31h-8z" />
    <glyph glyph-name="acute.cap" horiz-adv-x="493" 
d="M352 792l-188 -92h-7l-16 31l174 128q29 -29 37 -67z" />
    <glyph glyph-name="circumflex.cap" horiz-adv-x="493" 
d="M403 736l-23 -25h-7l-127 93l-127 -93h-7l-23 25l101 106q56 12 112 0z" />
    <glyph glyph-name="caron.cap" horiz-adv-x="493" 
d="M403 824l-101 -107q-56 -10 -112 0l-101 107l23 25h7l127 -94l127 94h7z" />
    <glyph glyph-name="tilde.cap" horiz-adv-x="493" 
d="M406 805q0 -37 -25 -63.5t-63 -26.5q-32 0 -74.5 32.5t-66.5 32.5q-22 0 -36.5 -18.5t-14.5 -47.5q-38 0 -38 33q0 37 24.5 62.5t62.5 25.5q33 0 75 -32.5t66 -32.5q22 0 36.5 18.5t14.5 46.5q21 0 30 -6t9 -24z" />
    <glyph glyph-name="dieresis.cap" horiz-adv-x="493" 
d="M200 775q0 -43 -42 -43t-42 43t42 43t42 -43zM377 775q0 -43 -42 -43t-42 43t42 43t42 -43z" />
    <glyph glyph-name="dieresisUkr" horiz-adv-x="493" 
d="M351 644q0 -42 -40 -42t-40 42q0 41 40 41t40 -41zM222 644q0 -42 -40 -42t-40 42q0 41 40 41t40 -41z" />
    <glyph glyph-name="dieresisUkr.cap" horiz-adv-x="493" 
d="M351 775q0 -41 -40 -41t-40 41t40 41t40 -41zM222 775q0 -41 -40 -41t-40 41t40 41t40 -41z" />
    <glyph glyph-name="ring.cap" horiz-adv-x="493" 
d="M341 774q0 -42 -26.5 -68t-68.5 -26q-41 0 -67.5 26t-26.5 68t26 68t68 26t68.5 -26t26.5 -68zM301 774q0 25 -15 39.5t-40 14.5q-24 0 -39.5 -14.5t-15.5 -39.5q0 -24 15.5 -39.5t39.5 -15.5t39.5 15t15.5 40z" />
    <glyph glyph-name="hungarumlaut.cap" horiz-adv-x="493" 
d="M226 885l-94 -185h-33l-3 9l61 206q37 -3 69 -30zM397 885l-93 -185h-34l-3 9l61 206q37 -3 69 -30z" />
    <glyph glyph-name="dotaccent.cap" horiz-adv-x="493" 
d="M286 775q0 -41 -39 -41q-40 0 -40 41t40 41q39 0 39 -41z" />
    <glyph glyph-name="macron.cap" horiz-adv-x="493" 
d="M386 802v-54h-278v54h278z" />
    <glyph glyph-name="breve.cap" horiz-adv-x="493" 
d="M247 707q-66 0 -105 36t-39 87q0 27 35 27q0 -46 32 -70.5t77 -24.5q44 0 76 24.5t32 70.5q36 0 36 -27q0 -51 -39.5 -87t-104.5 -36z" />
    <glyph glyph-name="ruble" 
d="M452 403q0 -94 -69.5 -143.5t-179.5 -49.5h-38v-65h216q13 0 16 -9.5t3 -35.5h-235v-100h-58v100h-69v45h69v65h-69v44h69v290q0 20 8.5 24t43.5 4h58q235 0 235 -169zM389 401q0 47 -26.5 74t-62.5 35t-89 8h-46v-264h33q86 0 138.5 36.5t52.5 110.5z" />
    <glyph glyph-name="zero.numr" horiz-adv-x="352" 
d="M327 388q0 -93 -39.5 -156.5t-111.5 -63.5q-73 0 -112 63.5t-39 156.5q0 90 37.5 142t113.5 52q75 0 113 -52t38 -142zM275 388q0 148 -99 148t-99 -148q0 -73 24.5 -123.5t74.5 -50.5t74.5 50t24.5 124z" />
    <glyph glyph-name="one.numr" horiz-adv-x="352" 
d="M79 415l-14 45q44 13 84.5 34.5t39.5 41.5v19q0 19 8.5 23t41.5 4v-405h-50v289q-40 -30 -110 -51z" />
    <glyph glyph-name="two.numr" horiz-adv-x="352" 
d="M307 177h-273q-2 25 6 47q46 24 78 44.5t68.5 49.5t55.5 63t19 70q0 40 -24.5 62t-65.5 22t-65.5 -22.5t-24.5 -53.5v-13h-19q-10 0 -17 8t-7 20q0 46 38.5 77t98.5 31q61 0 100 -33.5t39 -91.5q0 -116 -190 -234h183v-46z" />
    <glyph glyph-name="three.numr" horiz-adv-x="352" 
d="M297 286q0 -56 -43 -87t-105 -31q-48 0 -75.5 14.5t-27.5 37.5v17q43 -22 97 -22q45 0 73.5 19t28.5 55q0 60 -110 60h-29v44h19q58 0 89 20.5t31 57.5q0 31 -23 48t-57 17q-37 0 -58.5 -18.5t-21.5 -43.5v-13h-16q-26 0 -26 29q0 40 37 66t90 26q56 0 91.5 -27t35.5 -74
q0 -75 -82 -104q82 -20 82 -91z" />
    <glyph glyph-name="four.numr" horiz-adv-x="352" 
d="M329 264h-64v-87h-48v87h-197q-2 25 7 43q87 115 169 270h52v-5q-70 -132 -168 -264h137v74q0 11 6 15.5t14 5.5t28 1v-96h64v-44z" />
    <glyph glyph-name="five.numr" horiz-adv-x="352" 
d="M309 295q0 -59 -45 -93t-110 -34q-50 0 -79.5 14.5t-29.5 37.5v18q47 -22 103 -22q45 0 77 21t32 56q0 68 -111 68q-35 0 -79 -11q-10 16 -13 35l7 191h225q12 0 15 -9t3 -38h-204l-6 -132q35 5 62 5q153 0 153 -107z" />
    <glyph glyph-name="six.numr" horiz-adv-x="352" 
d="M319 298q0 -58 -39 -94t-98 -36q-72 0 -110 52t-38 133q0 95 48.5 162t133.5 67q47 0 76.5 -22t29.5 -60q0 -33 -33 -33h-9v14q0 25 -18 40t-49 15q-58 0 -92.5 -53t-34.5 -120q0 -28 5 -42q13 34 48 55.5t74 21.5q47 0 76.5 -26t29.5 -74zM267 290q0 31 -19 47.5
t-52 16.5q-36 0 -63.5 -22t-27.5 -54q0 -27 22 -45.5t55 -18.5q37 0 61 21t24 55z" />
    <glyph glyph-name="seven.numr" horiz-adv-x="352" 
d="M319 529q-104 -180 -171 -352h-57v5q67 169 176 347h-230q0 15 0.5 21.5t1.5 14t4.5 9.5t9.5 2h272q2 -25 -6 -47z" />
    <glyph glyph-name="eight.numr" horiz-adv-x="352" 
d="M316 281q0 -52 -40 -82.5t-100 -30.5t-100 30.5t-40 82.5q0 72 84 95q-38 13 -60 38.5t-22 59.5q0 52 39 80t99 28t99.5 -28t39.5 -80q0 -34 -22.5 -60t-60.5 -38q84 -23 84 -95zM263 284q0 27 -24 46.5t-63 19.5t-63 -19.5t-24 -46.5q0 -30 24.5 -50.5t62.5 -20.5
t62.5 20.5t24.5 50.5zM262 469q0 31 -23 49.5t-63 18.5t-63 -19t-23 -49q0 -28 24.5 -50.5t61.5 -22.5q38 0 62 22t24 51z" />
    <glyph glyph-name="nine.numr" horiz-adv-x="352" 
d="M319 396q0 -99 -54.5 -163.5t-146.5 -64.5q-74 0 -74 40v18q29 -11 68 -11q72 0 113.5 48t41.5 121q0 12 -4 32q-17 -38 -49.5 -59t-73.5 -21q-48 0 -78.5 28t-30.5 80q0 61 39.5 99.5t98.5 38.5q73 0 111.5 -52t38.5 -134zM249 468q0 27 -22.5 47.5t-57.5 20.5
q-38 0 -62 -22.5t-24 -59.5q0 -34 21 -53t54 -19q36 0 63.5 24t27.5 62z" />
    <glyph glyph-name="zero.dnom" horiz-adv-x="352" 
d="M327 211q0 -93 -39.5 -156.5t-111.5 -63.5q-73 0 -112 63.5t-39 156.5q0 90 37.5 142t113.5 52q75 0 113 -52t38 -142zM275 211q0 148 -99 148t-99 -148q0 -73 24.5 -123.5t74.5 -50.5t74.5 50t24.5 124z" />
    <glyph glyph-name="one.dnom" horiz-adv-x="352" 
d="M79 238l-14 45q44 13 84.5 34.5t39.5 41.5v19q0 19 8.5 23t41.5 4v-405h-50v289q-40 -30 -110 -51z" />
    <glyph glyph-name="two.dnom" horiz-adv-x="352" 
d="M307 0h-273q-2 25 6 47q46 24 78 44.5t68.5 49.5t55.5 63t19 70q0 40 -24.5 62t-65.5 22t-65.5 -22.5t-24.5 -53.5v-13h-19q-10 0 -17 8t-7 20q0 46 38.5 77t98.5 31q61 0 100 -33.5t39 -91.5q0 -116 -190 -234h183v-46z" />
    <glyph glyph-name="three.dnom" horiz-adv-x="352" 
d="M297 109q0 -56 -43 -87t-105 -31q-48 0 -75.5 14.5t-27.5 37.5v17q43 -22 97 -22q45 0 73.5 19t28.5 55q0 60 -110 60h-29v44h19q58 0 89 21t31 57q0 31 -23 48t-57 17q-37 0 -58.5 -18.5t-21.5 -43.5v-13h-16q-26 0 -26 29q0 40 37 66t90 26q56 0 91.5 -27t35.5 -74
q0 -75 -82 -104q82 -20 82 -91z" />
    <glyph glyph-name="four.dnom" horiz-adv-x="352" 
d="M329 87h-64v-87h-48v87h-197q-2 25 7 43q87 115 169 270h52v-5q-70 -132 -168 -264h137v74q0 11 6 15.5t14 5.5t28 1v-96h64v-44z" />
    <glyph glyph-name="five.dnom" horiz-adv-x="352" 
d="M309 118q0 -59 -45 -93t-110 -34q-50 0 -79.5 14.5t-29.5 37.5v18q47 -22 103 -22q45 0 77 21t32 56q0 68 -111 68q-35 0 -79 -11q-10 16 -13 35l7 191h225q12 0 15 -9t3 -38h-204l-6 -132q35 5 62 5q153 0 153 -107z" />
    <glyph glyph-name="six.dnom" horiz-adv-x="352" 
d="M319 121q0 -58 -39 -94t-98 -36q-72 0 -110 52t-38 133q0 95 48.5 162t133.5 67q47 0 76.5 -22t29.5 -60q0 -33 -33 -33h-9v14q0 25 -18 40t-49 15q-58 0 -92.5 -53t-34.5 -120q0 -28 5 -42q13 34 48 55.5t74 21.5q47 0 76.5 -26t29.5 -74zM267 113q0 31 -19 47.5
t-52 16.5q-36 0 -63.5 -22t-27.5 -54q0 -27 22 -45.5t55 -18.5q37 0 61 21t24 55z" />
    <glyph glyph-name="seven.dnom" horiz-adv-x="352" 
d="M319 352q-104 -180 -171 -352h-57v5q67 169 176 347h-230q0 15 0.5 21.5t1.5 14t4.5 9.5t9.5 2h272q2 -25 -6 -47z" />
    <glyph glyph-name="eight.dnom" horiz-adv-x="352" 
d="M316 104q0 -52 -40 -82.5t-100 -30.5t-100 30.5t-40 82.5q0 72 84 95q-38 13 -60 38.5t-22 59.5q0 52 39 80t99 28t99.5 -28t39.5 -80q0 -34 -22.5 -60t-60.5 -38q84 -23 84 -95zM263 107q0 27 -24 46.5t-63 19.5t-63 -19.5t-24 -46.5q0 -30 24.5 -50.5t62.5 -20.5
t62.5 20.5t24.5 50.5zM262 292q0 31 -23 49.5t-63 18.5t-63 -19t-23 -49q0 -28 24.5 -50.5t61.5 -22.5q38 0 62 22t24 51z" />
    <glyph glyph-name="nine.dnom" horiz-adv-x="352" 
d="M319 219q0 -99 -54.5 -163.5t-146.5 -64.5q-74 0 -74 40v18q29 -11 68 -11q72 0 113.5 48t41.5 121q0 12 -4 32q-17 -38 -49.5 -59t-73.5 -21q-48 0 -78.5 28t-30.5 80q0 61 39.5 99.5t98.5 38.5q73 0 111.5 -52t38.5 -134zM249 291q0 27 -22.5 47.5t-57.5 20.5
q-38 0 -62 -22.5t-24 -59.5q0 -34 21 -53t54 -19q36 0 63.5 24t27.5 62z" />
    <glyph glyph-name="a.sup" horiz-adv-x="349" 
d="M28 469q0 83 119 96l99 12l-1 16q-5 85 -97 85q-43 0 -90 -22v16q0 21 34.5 34.5t73.5 13.5q119 0 127 -123l14 -196q1 -17 -8 -21t-40 -4l-6 88q-40 -93 -128 -93q-46 0 -71.5 29t-25.5 69zM81 472q0 -28 16.5 -46t45.5 -18q42 0 70.5 39t32.5 96l-93 -12
q-72 -10 -72 -59z" />
    <glyph glyph-name="b.sup" horiz-adv-x="393" 
d="M97 831v-206q19 44 54 69.5t81 25.5q61 0 95 -44t34 -114q0 -78 -44 -134.5t-114 -56.5q-74 0 -106 60v-53h-47v426q0 19 7.5 23t39.5 4zM310 561q0 51 -23 83.5t-69 32.5q-51 0 -84 -44.5t-33 -111.5q0 -43 25 -75t69 -32q54 0 84.5 44t30.5 103z" />
    <glyph glyph-name="c.sup" horiz-adv-x="338" 
d="M299 433v-16q0 -22 -31.5 -34t-73.5 -12q-76 0 -119 49t-43 136q0 71 47 117.5t118 46.5q47 0 79.5 -23t32.5 -65q0 -34 -28 -34h-14v13q0 34 -20.5 50.5t-52.5 16.5q-49 0 -80 -36t-31 -86q0 -66 32 -104t97 -38q43 0 87 19z" />
    <glyph glyph-name="d.sup" horiz-adv-x="392" 
d="M32 529q0 79 43 135t113 56q73 0 107 -58v168h47v-427q0 -19 -7.5 -23t-39.5 -4v90q-20 -45 -56 -70t-80 -25q-60 0 -93.5 44t-33.5 114zM82 530q0 -49 23.5 -82t66.5 -33q50 0 84.5 44.5t34.5 110.5q0 44 -24 76t-69 32q-54 0 -85 -44.5t-31 -103.5z" />
    <glyph glyph-name="e.sup" horiz-adv-x="353" 
d="M302 433v-17q0 -21 -32 -33t-76 -12q-75 0 -118.5 48t-43.5 136q0 71 42.5 118t109.5 47q66 0 102.5 -42.5t36.5 -109.5q0 -42 -47 -42h-192q14 -112 130 -112q45 0 88 19zM183 680q-47 0 -72.5 -32.5t-27.5 -84.5h170q20 0 20 21q0 43 -24 69.5t-66 26.5z" />
    <glyph glyph-name="f.sup" horiz-adv-x="239" 
d="M117 378h-47v261l-49 14q0 16 8 26h41v28q0 59 30 94.5t84 35.5q48 0 48 -34v-15q-16 6 -33 6q-82 0 -82 -95v-20h83q13 0 15.5 -8t2.5 -34h-101v-259z" />
    <glyph glyph-name="g.sup" horiz-adv-x="338" 
d="M329 755q-35 2 -62.5 -10.5t-27.5 -31.5q0 -9 2 -12q53 -31 53 -92q0 -51 -37.5 -80.5t-92.5 -29.5h-1q-72 -2 -72 -32t52 -30h54q120 0 120 -76q0 -53 -48.5 -79.5t-115.5 -26.5q-61 0 -99 21t-38 62q0 50 60 70q-30 17 -30 48q0 41 52 56q-63 29 -63 97q0 52 36 81.5
t93 29.5q25 0 46 -6q-1 4 -1 11q0 38 30.5 57.5t68.5 19.5q13 0 17 -10t4 -37zM247 607q0 32 -22.5 52.5t-60.5 20.5t-60 -19.5t-22 -53.5t23 -53.5t59 -19.5q35 0 59 20.5t24 52.5zM187 396h-50q-34 -1 -54 -15t-20 -35q0 -56 94 -56q47 0 78.5 16t31.5 47q0 43 -80 43z
" />
    <glyph glyph-name="h.sup" horiz-adv-x="385" 
d="M339 403q0 -20 -7 -23.5t-40 -3.5v204q0 47 -23 71.5t-62 24.5q-43 0 -76.5 -31.5t-33.5 -87.5v-179h-47v426q0 19 7.5 23t39.5 4v-187q20 37 55 56.5t74 19.5q52 0 82.5 -30.5t30.5 -88.5v-198z" />
    <glyph glyph-name="j.sup" horiz-adv-x="156" 
d="M106 714v-385q0 -34 -18.5 -54t-49.5 -20q-43 0 -43 29v19q8 -3 26 -3q17 0 27.5 11t10.5 29v348q0 19 7.5 22.5t39.5 3.5zM120 827q0 -35 -36 -35q-35 0 -35 35q0 36 35 36q36 0 36 -36z" />
    <glyph glyph-name="k.sup" horiz-adv-x="346" 
d="M335 407v-12q0 -22 -39 -22q-23 0 -35.5 8t-30.5 33l-82 105h-51v-141h-47v426q0 19 7.5 23t39.5 4v-271h50q65 60 121 152h52v-6q-59 -93 -132 -163l88 -105q23 -31 52 -31h7z" />
    <glyph glyph-name="l.sup" horiz-adv-x="147" 
d="M97 378h-47v449q0 19 7.5 23t39.5 4v-476z" />
    <glyph glyph-name="m.sup" horiz-adv-x="572" 
d="M527 403q0 -19 -7.5 -23t-39.5 -4v208q0 92 -72 92q-37 0 -66.5 -31.5t-29.5 -86.5v-180h-47v206q0 45 -19 68.5t-53 23.5q-38 0 -67 -31t-29 -88v-179h-47v310q0 19 7.5 22.5t39.5 3.5v-67q39 73 115 73q37 0 62.5 -19.5t33.5 -57.5q39 77 120 77q47 0 73 -29.5
t26 -86.5v-201z" />
    <glyph glyph-name="o.sup" horiz-adv-x="379" 
d="M347 554q0 -80 -44 -131.5t-113 -51.5q-70 0 -114 51.5t-44 131.5t41.5 123t116.5 43q74 0 115.5 -43t41.5 -123zM297 554q0 58 -27.5 91t-79.5 33q-53 0 -80.5 -33t-27.5 -91q0 -59 29.5 -99t78.5 -40q48 0 77.5 40t29.5 99z" />
    <glyph glyph-name="p.sup" horiz-adv-x="393" 
d="M97 262h-47v426q0 19 7.5 22.5t39.5 3.5v-89q19 44 54 69.5t81 25.5q61 0 95 -44t34 -114q0 -78 -44 -134.5t-114 -56.5q-74 0 -106 60v-169zM310 561q0 51 -23 83.5t-69 32.5q-51 0 -84 -44.5t-33 -111.5q0 -43 25 -75t69 -32q54 0 84.5 44t30.5 103z" />
    <glyph glyph-name="q.sup" horiz-adv-x="392" 
d="M32 529q0 79 43 135t113 56q73 0 107 -59v51h47v-424q0 -19 -7.5 -23t-39.5 -4v205q-20 -45 -55.5 -70t-80.5 -25q-60 0 -93.5 44t-33.5 114zM82 530q0 -50 23 -82.5t67 -32.5q51 0 85 44.5t34 110.5q0 44 -24 76t-69 32q-54 0 -85 -44.5t-31 -103.5z" />
    <glyph glyph-name="r.sup" horiz-adv-x="240" 
d="M97 378h-47v310q0 19 7.5 22.5t39.5 3.5v-74q17 39 48 59.5t59 20.5q14 0 18.5 -10t2.5 -39q-56 3 -92 -30t-36 -95v-168z" />
    <glyph glyph-name="s.sup" horiz-adv-x="290" 
d="M251 468q0 -47 -34 -72t-83 -25q-35 0 -60.5 11.5t-25.5 33.5v18q36 -20 81 -20q31 0 52 12.5t21 36.5q0 20 -17.5 32.5t-43 19.5t-51 16t-43 30t-17.5 55q-1 45 32.5 74.5t89.5 29.5q48 0 78 -22.5t30 -55.5q0 -28 -27 -28h-13v10q0 24 -18.5 39.5t-50.5 15.5
q-34 0 -53 -16.5t-19 -39.5q0 -29 27 -45.5t59 -22.5t59 -27.5t27 -59.5z" />
    <glyph glyph-name="t.sup" horiz-adv-x="283" 
d="M255 671h-140v-154q0 -52 16 -78t58 -26q33 0 67 17v-16q0 -21 -26 -32.5t-59 -11.5q-52 0 -77.5 32.5t-25.5 104.5v165l-50 14q2 19 9 27h41v53q0 19 7.5 23t39.5 4v-80h121q13 0 16 -8.5t3 -33.5z" />
    <glyph glyph-name="u.sup" horiz-adv-x="380" 
d="M331 516q0 -71 -39 -108.5t-104 -37.5q-64 0 -101.5 37.5t-37.5 108.5v172q0 19 7 22.5t40 3.5v-191q0 -106 92 -106q46 0 71 27.5t25 78.5v189h47v-196z" />
    <glyph glyph-name="v.sup" horiz-adv-x="353" 
d="M199 385q-25 -11 -52 -11l-129 334v4h56l101 -278q69 138 108 278h55q-53 -172 -139 -327z" />
    <glyph glyph-name="w.sup" horiz-adv-x="532" 
d="M400 385q-25 -11 -50 -11l-79 267q-34 -123 -97 -256q-25 -11 -52 -11l-103 334v4h54l78 -275q59 132 87 231q6 27 3 36q20 10 57 12l79 -279q57 137 87 275h51q-40 -165 -115 -327z" />
    <glyph glyph-name="x.sup" horiz-adv-x="352" 
d="M332 378h-55l-104 135q-54 -57 -95 -135h-55q51 97 126 169l-120 159v6h54l103 -133q50 58 90 133h52q-47 -94 -117 -169l121 -159v-6z" />
    <glyph glyph-name="y.sup" horiz-adv-x="355" 
d="M340 712v-6l-123 -325q-11 -126 -102 -126q-51 0 -51 32v17q20 -5 35 -5q61 0 68 78q-95 166 -152 335h57q39 -129 118 -272q6 15 48 134t51 138h51z" />
    <glyph glyph-name="z.sup" horiz-adv-x="324" 
d="M296 378h-274q-2 21 5 38l202 255h-191q0 26 2.5 34t15.5 8h239q2 -22 -5 -37l-202 -256h208v-42z" />
    <glyph glyph-name="fi.cap" horiz-adv-x="715" 
d="M144 0h-59v612q0 23 9.5 27.5t49.5 4.5h284q16 0 19.5 -12t3.5 -46h-307v-267h266v-56h-266v-263zM629 0h-59v615q0 22 10 27t49 5v-647z" />
    <glyph glyph-name="fl.cap" horiz-adv-x="963" 
d="M144 0h-59v612q0 23 9.5 27.5t49.5 4.5h284q16 0 19.5 -12t3.5 -46h-307v-267h266v-56h-266v-263zM922 0h-223q-71 0 -100 28.5t-29 99.5v487q0 22 10 27t49 5v-512q0 -41 18.5 -59t60.5 -18h214v-58z" />
    <glyph glyph-name="germandbls.cap" horiz-adv-x="1006" 
d="M430 167q0 -85 -59 -131t-143 -46q-63 0 -107 19t-44 54v25q74 -38 150 -38q59 0 100.5 28t41.5 82q0 42 -32.5 68.5t-78.5 42t-92.5 33.5t-79 58t-32.5 102q0 83 58 136.5t153 53.5q80 0 131.5 -40.5t51.5 -99.5q0 -49 -38 -49h-16v18q0 48 -35.5 80.5t-97.5 32.5
q-66 0 -105.5 -35.5t-39.5 -86.5q0 -50 32.5 -81t78.5 -47.5t92 -33.5t78.5 -53t32.5 -92zM932 167q0 -85 -59 -131t-143 -46q-63 0 -107 19t-44 54v25q74 -38 150 -38q59 0 100.5 28t41.5 82q0 42 -32.5 68.5t-78.5 42t-92.5 33.5t-79 58t-32.5 102q0 83 58 136.5t153 53.5
q80 0 131.5 -40.5t51.5 -99.5q0 -49 -38 -49h-16v18q0 48 -35.5 80.5t-97.5 32.5q-66 0 -105.5 -35.5t-39.5 -86.5q0 -50 32.5 -81t78.5 -47.5t92 -33.5t78.5 -53t32.5 -92z" />
    <glyph glyph-name="numbersign.lp" 
d="M158 -10h-48l20 180h-87v47h93l17 150h-120v47h126l19 168h48l-19 -168h118l19 168h48l-19 -168h77q12 0 15 -10t3 -37h-101l-17 -150h91q12 0 15 -10t3 -37h-115l-20 -180h-48l20 180h-118zM201 367l-17 -150h118l17 150h-118z" />
    <glyph glyph-name="currency.lp" horiz-adv-x="445" 
d="M365 242q0 -47 -25 -83l64 -64l-35 -37l-64 64q-33 -24 -82 -24q-47 0 -81 25l-65 -66l-35 37l64 65q-25 36 -25 83t25 81l-63 65l35 37l64 -66q36 23 81 23q46 0 81 -22l66 66l35 -37l-65 -66q25 -34 25 -81zM315 242q0 41 -25.5 66t-66.5 25q-40 0 -65.5 -25.5
t-25.5 -65.5q0 -41 25.5 -68t65.5 -27t66 27t26 68z" />
    <glyph glyph-name="dollar.lp" horiz-adv-x="464" 
d="M257 -101h-47v91q-63 0 -103 19t-40 48v21q65 -35 142 -35q57 0 97 24t40 72q0 32 -22 54.5t-55 34t-71.5 26.5t-71.5 31t-55 48.5t-22 78.5q0 67 43.5 113t117.5 55v93h47v-92q67 -4 111 -39t44 -83q0 -46 -32 -46h-18v17q0 41 -33 70t-90 29q-61 0 -96 -31t-35 -77
q0 -43 30.5 -70.5t74 -42t87.5 -30.5t74.5 -48.5t30.5 -83.5q0 -64 -42 -102.5t-106 -49.5v-95z" />
    <glyph glyph-name="cent.lp" horiz-adv-x="445" 
d="M266 -117h-47v109q-83 10 -128 69t-45 159q0 79 47.5 135t125.5 67v119h47v-118q56 -3 92.5 -33.5t36.5 -80.5q0 -18 -8 -28t-20 -10h-21v15q0 44 -26.5 65.5t-69.5 21.5q-64 0 -105 -45t-41 -108q0 -83 40 -129.5t124 -46.5q63 0 109 23v-24q0 -24 -34 -37t-77 -15v-108
z" />
    <glyph glyph-name="sterling.lp" horiz-adv-x="461" 
d="M351 213h-152q33 -80 35 -159h196v-54h-390v54h135q-2 70 -40 159h-85v45h64q-39 87 -39 154q0 76 52 123t135 47q65 0 107.5 -30t42.5 -80q0 -22 -9.5 -34.5t-24.5 -12.5h-20v18q0 40 -28 63t-74 23q-53 0 -87 -32.5t-34 -84.5q0 -60 44 -154h153q13 0 16 -9t3 -36z" />
    <glyph glyph-name="yen.lp" horiz-adv-x="496" 
d="M276 0h-58v123h-153v45h153v76h-153v45h128l-169 276v7h66l162 -264q93 130 160 264h68q-85 -157 -176 -283h104q13 0 16 -9t3 -36h-151v-76h132q13 0 16 -9.5t3 -35.5h-151v-123z" />
    <glyph glyph-name="florin.lp" horiz-adv-x="416" 
d="M192 -165h-54v446l-105 18q0 22 11 33h94v65q0 84 41 134.5t116 50.5q24 0 44.5 -9.5t20.5 -30.5v-21q-22 8 -46 8q-64 0 -93 -35t-29 -107v-55h156q15 0 18 -10t3 -41h-177v-446z" />
    <glyph glyph-name="Euro.lp" horiz-adv-x="513" 
d="M377 191h-210q36 -149 167 -149q65 0 121 27v-21q0 -29 -40.5 -43.5t-95.5 -14.5q-85 0 -140.5 52t-75.5 149h-75v44h68q-3 31 -3 68v6h-65v44h68q13 106 74.5 167.5t150.5 61.5q66 0 110.5 -29t44.5 -79q0 -23 -10 -35.5t-25 -12.5h-20v18q0 43 -27.5 64t-71.5 21
q-64 0 -109 -44.5t-55 -131.5h219v-44h-222v-6q0 -40 4 -68h218v-44z" />
    <glyph glyph-name="ruble.lp" horiz-adv-x="490" 
d="M448 403q0 -94 -69.5 -143.5t-179.5 -49.5h-38v-65h216q13 0 16 -9.5t3 -35.5h-235v-100h-58v100h-69v45h69v65h-69v44h69v290q0 20 8.5 24t43.5 4h58q235 0 235 -169zM385 401q0 47 -26.5 74t-62.5 35t-89 8h-46v-264h33q86 0 138.5 36.5t52.5 110.5z" />
    <glyph glyph-name="uni20B4.lp" horiz-adv-x="488" 
d="M440 180h-255q-22 -30 -22 -65q0 -38 28.5 -55t69.5 -17q63 0 120 30v-20q0 -28 -40 -45.5t-94 -17.5q-66 0 -104 33t-38 97q0 33 15 60h-76v44h110q13 13 30.5 25.5t41 28.5t34.5 24h-216v44h269q43 43 43 95q0 38 -28 63t-80 25q-49 0 -80.5 -27t-31.5 -64v-16h-18
q-30 0 -30 39q0 51 48 86t113 35q79 0 122 -38.5t43 -102.5q0 -53 -31 -95h57v-44h-98q-20 -17 -60 -43.5t-51 -34.5h209v-44z" />
    <glyph glyph-name="zero.lp" horiz-adv-x="511" 
d="M465 304q0 -133 -54 -223.5t-156 -90.5q-69 0 -117.5 45t-70 114t-21.5 155q0 131 51 204.5t158 73.5q108 0 159 -73.5t51 -204.5zM403 304q0 225 -148 225q-147 0 -147 -225q0 -112 37.5 -186.5t109.5 -74.5q73 0 110.5 74t37.5 187z" />
    <glyph glyph-name="one.lp" horiz-adv-x="392" 
d="M61 344l-15 54q67 19 125 49t58 60v37q0 23 9.5 27.5t48.5 4.5v-576h-58v420q-63 -46 -168 -76z" />
    <glyph glyph-name="two.lp" horiz-adv-x="478" 
d="M418 0h-379q-3 31 8 55q60 32 111 66.5t99.5 78.5t77 94.5t28.5 101.5q0 66 -37 99t-99 33q-63 0 -98.5 -35t-35.5 -82v-18h-22q-11 0 -19 9.5t-8 25.5q0 66 53 110t134 44q85 0 139.5 -47.5t54.5 -129.5q0 -177 -279 -351h272v-54z" />
    <glyph glyph-name="three.lp" horiz-adv-x="450" 
d="M392 159q0 -81 -58.5 -125t-145.5 -44q-62 0 -101.5 17.5t-39.5 49.5v20q62 -32 136 -32q63 0 105 29.5t42 84.5q0 95 -157 95h-40v51h26q82 0 126.5 34t44.5 91q0 46 -33 72t-86 26q-57 0 -89 -29t-32 -66v-18h-22q-11 0 -19 9t-8 25q0 60 50.5 96.5t125.5 36.5
q77 0 126.5 -39.5t49.5 -105.5q0 -52 -32 -90.5t-89 -58.5q120 -27 120 -129z" />
    <glyph glyph-name="four.lp" horiz-adv-x="495" 
d="M373 0h-57v129h-285q-3 29 9 53q144 196 247 390h62v-9q-101 -188 -247 -380h214v112q0 21 10 25.5t47 4.5v-142h92v-54h-92v-129z" />
    <glyph glyph-name="five.lp" horiz-adv-x="459" 
d="M411 165q0 -80 -63.5 -127.5t-150.5 -47.5q-64 0 -106 17.5t-42 49.5v20q66 -32 139 -32q68 0 114.5 32t46.5 86q0 107 -154 107q-59 0 -116 -15q-12 20 -18 49l12 268h311q17 0 20.5 -10t3.5 -44h-287l-10 -206q56 10 87 10q213 0 213 -157z" />
    <glyph glyph-name="six.lp" horiz-adv-x="491" 
d="M444 172q0 -81 -55.5 -131.5t-134.5 -50.5q-102 0 -154.5 75t-52.5 189q0 140 68.5 234t189.5 94q63 0 103.5 -29.5t40.5 -79.5q0 -22 -11.5 -33.5t-30.5 -11.5h-13v18q0 39 -26 60t-69 21q-86 0 -138 -75t-52 -180q0 -42 10 -73q18 51 67.5 83t108.5 32
q66 0 107.5 -35.5t41.5 -106.5zM381 162q0 46 -28 72.5t-80 26.5q-55 0 -96 -34t-41 -84q0 -39 32.5 -69.5t84.5 -30.5q58 0 93 34.5t35 84.5z" />
    <glyph glyph-name="seven.lp" horiz-adv-x="442" 
d="M162 0h-68v9q108 263 260 509h-334q0 23 1 32t5.5 15.5t15.5 6.5h379q3 -31 -8 -55q-151 -261 -251 -517z" />
    </font>
</defs>
</svg>
